<?xml version="1.0" encoding="UTF-8"?>
<!DOCTYPE svg PUBLIC "-//W3C//DTD SVG 1.1//EN" "http://www.w3.org/Graphics/SVG/1.1/DTD/svg11.dtd">
<!-- Creator: CorelDRAW X6 -->
<svg xmlns="http://www.w3.org/2000/svg" xml:space="preserve" width="400px" height="200px" version="1.1" style="shape-rendering:geometricPrecision; text-rendering:geometricPrecision; image-rendering:optimizeQuality; fill-rule:evenodd; clip-rule:evenodd"
viewBox="0 0 400 200"
 xmlns:xlink="http://www.w3.org/1999/xlink">
 <defs>
  <style type="text/css">
   <![CDATA[
    .fil5 {fill:#00ACC1;fill-rule:nonzero}
    .fil11 {fill:#546E79;fill-rule:nonzero}
    .fil4 {fill:#679E38;fill-rule:nonzero}
    .fil0 {fill:#827716;fill-rule:nonzero}
    .fil8 {fill:#8C6E62;fill-rule:nonzero}
    .fil1 {fill:#9E9C23;fill-rule:nonzero}
    .fil2 {fill:#AFB32A;fill-rule:nonzero}
    .fil3 {fill:#BFCA33;fill-rule:nonzero}
    .fil9 {fill:#FB8C00;fill-rule:nonzero}
    .fil6 {fill:#FBBF2D;fill-rule:nonzero}
    .fil7 {fill:#FDD834;fill-rule:nonzero}
    .fil10 {fill:#FFA726;fill-rule:nonzero}
   ]]>
  </style>
 </defs>
 <g id="Layer_x0020_1">
  <metadata id="CorelCorpID_0Corel-Layer"/>
  <g id="_240172080">
   <polygon class="fil0" points="190,152 208,103 227,152 "/>
   <polygon class="fil1" points="193,133 208,93 223,133 "/>
   <polygon class="fil2" points="196,115 208,84 220,115 "/>
   <polygon class="fil3" points="198,101 208,75 218,101 "/>
  </g>
  <g id="_240172976">
   <polygon class="fil0" points="223,157 240,113 257,157 "/>
   <polygon class="fil1" points="226,139 240,103 254,139 "/>
   <polygon class="fil2" points="229,123 240,95 251,123 "/>
   <polygon class="fil3" points="231,110 240,87 249,110 "/>
  </g>
  <path class="fil4" d="M48 167c0,-43 35,-77 77,-77 43,0 77,35 77,77l-155 0z"/>
  <path class="fil2" d="M233 167c0,-28 23,-50 50,-50 28,0 50,23 50,50l-101 0z"/>
  <g id="_240184816">
   <path class="fil1" d="M377 177l-336 0c-3,0 -6,-3 -6,-6 0,-3 3,-6 6,-6l336 0c3,0 6,3 6,6 0,3 -3,6 -6,6z"/>
   <path class="fil4" d="M361 193l-258 0c-4,0 -8,-3 -8,-8l0 -8 273 0 0 8c0,4 -3,8 -8,8z"/>
   <path class="fil2" d="M353 166l-206 0 0 -7c0,-4 3,-7 7,-7l192 0c4,0 7,3 7,7l0 7z"/>
   <path class="fil1" d="M30 171c0,3 -2,5 -5,5 -3,0 -5,-2 -5,-5 0,-3 2,-5 5,-5 3,0 5,2 5,5z"/>
   <path class="fil1" d="M395 171c0,2 -2,4 -4,4 -2,0 -4,-2 -4,-4 0,-2 2,-4 4,-4 2,0 4,2 4,4z"/>
   <path class="fil2" d="M89 185c0,3 -2,5 -5,5 -3,0 -5,-2 -5,-5 0,-3 2,-5 5,-5 3,0 5,2 5,5z"/>
   <path class="fil2" d="M74 185c0,2 -2,3 -3,3 -2,0 -3,-2 -3,-3 0,-2 2,-3 3,-3 2,0 3,2 3,3z"/>
   <path class="fil1" d="M15 171c0,2 -2,4 -4,4 -2,0 -4,-2 -4,-4 0,-2 2,-4 4,-4 2,0 4,2 4,4z"/>
  </g>
  <g id="_240184272">
   <path class="fil3" d="M166 152c0,-1 2,-3 3,-4 0,-1 -2,-3 -1,-5 1,-1 3,-1 4,-3 1,-1 0,-4 1,-5 1,-1 4,0 5,-1 1,-1 1,-3 3,-4 1,-1 3,1 5,1 1,0 2,-3 4,-3 1,0 3,2 4,3 1,0 3,-2 5,-1 1,1 1,3 3,4 1,1 4,0 5,1 1,1 0,4 1,5 1,1 3,1 4,3 1,1 -1,3 -1,5 0,1 3,2 3,4l-44 0z"/>
  </g>
  <g id="_240184016">
   <polygon class="fil3" points="247,152 258,149 250,141 261,144 258,133 266,141 269,130 272,141 280,133 277,144 288,141 280,149 291,152 "/>
  </g>
  <g id="_240182800">
   <g>
    <path class="fil5" d="M53 70c0,-4 3,-7 7,-7 4,0 7,3 7,7l-14 0z"/>
    <path class="fil5" d="M38 70c0,-3 2,-5 5,-5 3,0 5,2 5,5l-10 0z"/>
    <path class="fil5" d="M33 70c0,-2 2,-3 3,-3 2,0 3,2 3,3l-7 0z"/>
    <path class="fil5" d="M63 70c0,-6 5,-10 10,-10 6,0 10,5 10,10l-21 0z"/>
    <path class="fil5" d="M80 70c0,-4 3,-7 7,-7 4,0 7,3 7,7l-14 0z"/>
   </g>
  </g>
  <g id="_240182544">
   <g>
    <path class="fil5" d="M180 44c0,-6 -5,-10 -10,-10 -6,0 -10,5 -10,10l20 0z"/>
    <path class="fil5" d="M199 43c0,-4 -3,-7 -7,-7 -4,0 -7,3 -7,7l15 0z"/>
    <path class="fil5" d="M165 44c0,-8 -7,-15 -15,-15 -8,0 -15,7 -15,15l30 0z"/>
    <path class="fil5" d="M142 44c0,-6 -4,-10 -10,-10 -6,0 -10,4 -10,10l20 0z"/>
   </g>
  </g>
  <g id="_240180432">
   <g>
    <path class="fil5" d="M242 87c0,-4 3,-7 7,-7 4,0 7,3 7,7l-14 0z"/>
    <path class="fil5" d="M227 87c0,-3 2,-5 5,-5 3,0 5,2 5,5l-10 0z"/>
    <path class="fil5" d="M253 87c0,-6 5,-11 11,-11 6,0 11,5 11,11l-21 0z"/>
    <path class="fil5" d="M269 87c0,-4 3,-7 7,-7 4,0 7,3 7,7l-14 0z"/>
   </g>
  </g>
  <g id="_240179152">
   <g>
    <path class="fil6" d="M87 88c0,6 -7,11 -16,11 -9,0 -16,-5 -16,-11 0,-6 7,-11 16,-11 9,0 16,5 16,11z"/>
    <path class="fil6" d="M92 104c0,8 -9,15 -21,15 -11,0 -21,-7 -21,-15 0,-8 9,-15 21,-15 11,0 21,7 21,15z"/>
    <path class="fil6" d="M99 122c0,11 -12,20 -27,20 -15,0 -27,-9 -27,-20 0,-11 12,-20 27,-20 15,0 27,9 27,20z"/>
   </g>
   <path class="fil7" d="M91 109c1,-2 1,-3 1,-5 0,-4 -2,-8 -6,-11 1,-1 1,-3 1,-5 0,-6 -7,-11 -16,-11 0,0 0,0 0,0l0 65c0,0 0,0 0,0 15,0 27,-9 27,-20 0,-5 -3,-10 -8,-14z"/>
   <g>
    <polygon class="fil8" points="72,89 74,165 69,165 71,89 "/>
   </g>
   <g>
    <g>
     <polygon class="fil8" points="87,117 72,133 70,131 86,116 "/>
    </g>
    <g>
     <polygon class="fil8" points="57,116 73,131 71,133 56,117 "/>
    </g>
   </g>
   <g>
    <g>
     <polygon class="fil8" points="78,96 72,103 71,102 78,96 "/>
    </g>
    <g>
     <polygon class="fil8" points="65,96 72,102 71,103 65,96 "/>
    </g>
   </g>
   <g>
    <g>
     <polygon class="fil8" points="83,105 72,116 70,115 82,104 "/>
    </g>
    <g>
     <polygon class="fil8" points="61,104 73,115 71,116 60,105 "/>
    </g>
   </g>
  </g>
  <g id="_240177328">
   <path class="fil9" d="M116 133l11 -36c2,-5 9,-5 10,0l11 36c1,4 -2,7 -5,7l-22 0c-4,0 -6,-4 -5,-7z"/>
   <path class="fil10" d="M148 133l-11 -36c-1,-3 -3,-4 -5,-4l0 47 11 0c4,0 6,-4 5,-7z"/>
   <g>
    <polygon class="fil8" points="132,109 134,165 130,165 131,109 "/>
   </g>
   <g>
    <g>
     <polygon class="fil8" points="140,120 132,129 131,128 140,120 "/>
    </g>
    <g>
     <polygon class="fil8" points="124,120 133,128 132,129 123,120 "/>
    </g>
   </g>
  </g>
  <g id="_240176848">
   <polygon class="fil3" points="65,165 74,163 68,157 76,159 74,150 80,156 83,148 85,156 91,150 89,159 98,157 92,163 100,165 "/>
  </g>
  <path class="fil10" d="M262 105c-3,3 -7,4 -7,4 0,0 1,-4 3,-7 3,-3 7,-4 7,-4 0,0 -1,4 -3,7z"/>
  <path class="fil10" d="M298 130c-3,3 -7,4 -7,4 0,0 1,-4 3,-7 3,-3 7,-4 7,-4 0,0 -1,4 -3,7z"/>
  <path class="fil10" d="M252 141c-3,3 -7,4 -7,4 0,0 1,-4 3,-7 3,-3 7,-4 7,-4 0,0 -1,4 -3,7z"/>
  <path class="fil7" d="M285 100c-3,3 -7,4 -7,4 0,0 1,-4 3,-7 3,-3 7,-4 7,-4 0,0 -1,4 -3,7z"/>
  <path class="fil10" d="M350 132c-3,3 -7,4 -7,4 0,0 1,-4 3,-7 3,-3 7,-4 7,-4 0,0 -1,4 -3,7z"/>
  <path class="fil10" d="M370 143c-3,3 -7,4 -7,4 0,0 1,-4 3,-7 3,-3 7,-4 7,-4 0,0 -1,4 -3,7z"/>
  <path class="fil7" d="M370 104c-3,3 -7,4 -7,4 0,0 1,-4 3,-7 3,-3 7,-4 7,-4 0,0 -1,4 -3,7z"/>
  <path class="fil7" d="M307 148c-3,3 -7,4 -7,4 0,0 1,-4 3,-7 3,-3 7,-4 7,-4 0,0 -1,4 -3,7z"/>
  <path class="fil10" d="M172 123c-3,3 -7,4 -7,4 0,0 1,-4 3,-7 3,-3 7,-4 7,-4 0,0 -1,4 -3,7z"/>
  <path class="fil10" d="M141 153c-3,3 -7,4 -7,4 0,0 1,-4 3,-7 3,-3 7,-4 7,-4 0,0 -1,4 -3,7z"/>
  <path class="fil7" d="M109 151c-3,3 -7,4 -7,4 0,0 1,-4 3,-7 3,-3 7,-4 7,-4 0,0 -1,4 -3,7z"/>
  <path class="fil7" d="M122 114c-3,3 -7,4 -7,4 0,0 1,-4 3,-7 3,-3 7,-4 7,-4 0,0 -1,4 -3,7z"/>
  <path class="fil10" d="M85 111c-3,3 -7,4 -7,4 0,0 1,-4 3,-7 3,-3 7,-4 7,-4 0,0 -1,4 -3,7z"/>
  <path class="fil10" d="M104 101c-3,3 -7,4 -7,4 0,0 1,-4 3,-7 3,-3 7,-4 7,-4 0,0 -1,4 -3,7z"/>
  <path class="fil10" d="M43 150c-3,3 -7,4 -7,4 0,0 1,-4 3,-7 3,-3 7,-4 7,-4 0,0 -1,4 -3,7z"/>
  <path class="fil7" d="M17 141c-3,3 -7,4 -7,4 0,0 1,-4 3,-7 3,-3 7,-4 7,-4 0,0 -1,4 -3,7z"/>
  <path class="fil10" d="M37 114c-3,3 -7,4 -7,4 0,0 1,-4 3,-7 3,-3 7,-4 7,-4 0,0 -1,4 -3,7z"/>
  <path class="fil11" d="M161 78c0,-6 3,-11 7,-15 0,0 -1,0 -1,1 -4,2 -7,7 -7,12 -4,-2 -9,-2 -14,0 0,0 -1,0 -1,1 5,-2 11,-1 16,2z"/>
  <path class="fil11" d="M186 63c2,-5 7,-9 12,-11 0,0 -1,0 -1,0 -5,0 -9,3 -11,8 -3,-4 -8,-6 -13,-5 0,0 -1,0 -1,0 6,1 11,4 14,9z"/>
  <path class="fil11" d="M176 92c2,-3 5,-6 8,-7 0,0 -1,0 -1,0 -3,0 -6,2 -7,5 -2,-2 -5,-4 -8,-4 0,0 -1,0 -1,0 4,0 7,3 9,6z"/>
  <g id="_240076304">
   <g>
    <path class="fil6" d="M340 101c0,4 -5,8 -10,8 -6,0 -10,-3 -10,-8 0,-4 5,-8 10,-8 6,0 10,3 10,8z"/>
    <path class="fil6" d="M343 112c0,5 -6,10 -14,10 -8,0 -14,-4 -14,-10 0,-5 6,-10 14,-10 8,0 14,4 14,10z"/>
    <path class="fil6" d="M348 124c0,7 -8,13 -18,13 -10,0 -18,-6 -18,-13 0,-7 8,-13 18,-13 10,0 18,6 18,13z"/>
   </g>
   <path class="fil7" d="M343 115c0,-1 1,-2 1,-3 0,-3 -2,-5 -4,-7 1,-1 1,-2 1,-3 0,-4 -5,-8 -10,-8 0,0 0,0 0,0l0 43c0,0 0,0 0,0 10,0 18,-6 18,-13 0,-3 -2,-7 -5,-9z"/>
   <g>
    <polygon class="fil8" points="330,102 331,152 328,152 329,102 "/>
   </g>
   <g>
    <g>
     <polygon class="fil8" points="340,120 330,131 328,130 339,120 "/>
    </g>
    <g>
     <polygon class="fil8" points="320,120 331,130 329,131 319,120 "/>
    </g>
   </g>
   <g>
    <g>
     <polygon class="fil8" points="334,107 330,111 329,111 334,106 "/>
    </g>
    <g>
     <polygon class="fil8" points="325,106 330,111 329,111 325,107 "/>
    </g>
   </g>
   <g>
    <g>
     <polygon class="fil8" points="337,112 330,120 329,119 337,112 "/>
    </g>
    <g>
     <polygon class="fil8" points="323,112 330,119 329,120 322,112 "/>
    </g>
   </g>
  </g>
 </g>
</svg>
