<?xml version="1.0" encoding="UTF-8"?>
<!DOCTYPE svg PUBLIC "-//W3C//DTD SVG 1.1//EN" "http://www.w3.org/Graphics/SVG/1.1/DTD/svg11.dtd">
<!-- Creator: CorelDRAW X6 -->
<svg xmlns="http://www.w3.org/2000/svg" xml:space="preserve" width="200px" height="200px" version="1.1" style="shape-rendering:geometricPrecision; text-rendering:geometricPrecision; image-rendering:optimizeQuality; fill-rule:evenodd; clip-rule:evenodd"
viewBox="0 0 200 200"
 xmlns:xlink="http://www.w3.org/1999/xlink">
 <defs>
  <style type="text/css">
   <![CDATA[
    .fil0 {fill:#63A52F}
   ]]>
  </style>
 </defs>
 <g id="Layer_x0020_1">
  <metadata id="CorelCorpID_0Corel-Layer"/>
  <g id="_996563072">
   <path class="fil0" d="M54 168c9,5 17,11 26,13 9,2 18,3 28,4 1,0 4,0 3,2 0,2 -2,2 -4,2 -3,0 -7,0 -10,0 -11,0 -22,1 -33,2 -20,2 -37,-6 -50,-21 -15,-18 -16,-39 -10,-60 3,-8 7,-15 13,-22 2,-2 3,-1 4,1 1,1 1,3 1,4 2,14 7,19 21,23 8,2 16,4 22,9 9,7 14,16 17,27 2,7 3,15 7,22 1,1 2,3 2,4 1,1 2,2 1,3 -1,1 -2,1 -4,1 -2,-1 -4,-1 -7,-2 -9,-3 -17,-6 -25,-10 -1,0 -2,-1 -4,-1z"/>
   <path class="fil0" d="M172 128c1,-8 2,-16 2,-24 -1,-13 -6,-25 -11,-36 -1,-2 -2,-4 0,-5 2,-1 4,2 4,3 6,14 15,26 23,39 8,12 10,25 8,39 -2,11 -6,20 -13,29 -7,9 -16,14 -27,18 -11,4 -22,3 -33,3 -1,0 -2,0 -2,-1 -1,-1 -3,-1 -3,-2 0,-2 1,-2 2,-3 3,-2 5,-4 7,-7 6,-7 5,-16 3,-24 -5,-18 -5,-34 10,-48 6,-6 14,-12 18,-20 1,-2 2,-4 3,-5 0,-1 0,-2 2,-2 1,0 1,1 1,2 3,10 5,20 6,31 0,5 0,10 0,15z"/>
   <path class="fil0" d="M81 39c-6,1 -11,3 -16,6 -9,4 -17,10 -24,18 -4,5 -8,10 -12,16 -1,1 -2,3 -3,2 -2,-1 -1,-3 -1,-4 0,-2 2,-3 3,-4 8,-10 13,-22 19,-33 6,-13 16,-22 28,-28 23,-10 48,-6 66,12 8,8 13,17 18,27 1,2 2,3 0,5 -2,2 -3,0 -5,0 -7,-3 -14,-6 -22,-1 -5,3 -9,6 -13,10 -6,6 -14,11 -22,13 -8,2 -16,1 -24,-2 -7,-3 -15,-5 -22,-6 -2,0 -5,-1 -7,0 -1,1 -2,1 -3,0 -1,-1 1,-2 1,-3 11,-12 25,-21 40,-27z"/>
  </g>
 </g>
</svg>
