<?xml version="1.0" encoding="UTF-8"?>
<!DOCTYPE svg PUBLIC "-//W3C//DTD SVG 1.1//EN" "http://www.w3.org/Graphics/SVG/1.1/DTD/svg11.dtd">
<!-- Creator: CorelDRAW X6 -->
<svg xmlns="http://www.w3.org/2000/svg" xml:space="preserve" width="400px" height="200px" version="1.1" style="shape-rendering:geometricPrecision; text-rendering:geometricPrecision; image-rendering:optimizeQuality; fill-rule:evenodd; clip-rule:evenodd"
viewBox="0 0 400 200"
 xmlns:xlink="http://www.w3.org/1999/xlink">
 <defs>
  <style type="text/css">
   <![CDATA[
    .fil0 {fill:#EBECEC;fill-rule:nonzero}
    .fil1 {fill:#FFC300;fill-rule:nonzero}
   ]]>
  </style>
 </defs>
 <g id="Layer_x0020_1">
  <metadata id="CorelCorpID_0Corel-Layer"/>
  <g id="_924904896">
   <g>
    <path class="fil0" d="M134 143c1,-3 -1,-7 -5,-7 -1,0 -3,1 -4,2 -1,-2 -3,-4 -6,-4 -1,0 -1,0 -2,0 0,-1 0,-2 -1,-3 0,0 -1,-1 -1,-1 0,0 0,0 -1,-1 -1,-1 -3,-2 -4,-2 -1,0 -2,0 -3,1 0,0 -1,1 -1,1 0,0 0,0 0,0 -1,1 -1,1 -1,2 -1,-1 -3,-2 -5,-2 -1,0 -3,0 -4,1 -1,-2 -3,-4 -5,-4 -4,0 -6,4 -6,7 0,0 0,0 0,0 -5,0 -7,4 -6,8l55 0z"/>
    <path class="fil0" d="M259 119c0,-2 -1,-5 -3,-6l0 0c-1,-1 -2,-1 -3,-1 -2,0 -3,1 -5,2 0,0 -1,1 -1,1 -1,-2 -3,-4 -6,-4 -1,0 -2,0 -3,1 0,-3 -2,-5 -5,-5 -4,0 -6,3 -5,6 -1,0 -1,0 -2,0 -1,0 -2,0 -3,1 -1,1 -2,1 -2,2 0,1 -1,2 -1,3l39 0z"/>
    <g>
     <path class="fil0" d="M376 73c0,-1 0,-1 0,-2 0,-1 0,-2 0,-2 0,-1 0,-1 -1,-2 -1,-1 -1,-2 -2,-2 -1,-1 -2,-1 -3,-1 -1,0 -2,0 -3,1 0,0 0,0 0,0 0,0 0,0 0,0 0,0 0,-1 0,-1 -1,-2 -2,-3 -3,-4 -2,-1 -3,-1 -5,-1 -2,1 -4,3 -5,5 0,1 0,2 0,3 0,0 0,0 0,0 -1,0 -3,0 -4,1 -1,1 -2,1 -2,2 0,0 0,0 0,0 0,0 0,0 0,0 -1,1 -1,3 -1,4l30 0z"/>
    </g>
    <path class="fil0" d="M109 83c1,-3 -1,-7 -5,-7 -1,0 -3,1 -4,2 -1,-2 -3,-4 -6,-4 -1,0 -1,0 -2,0 0,-1 0,-2 -1,-3 0,0 -1,-1 -1,-1 0,0 0,0 -1,-1 -1,-1 -3,-2 -4,-2 -1,0 -2,0 -3,1 0,0 -1,1 -1,1 0,0 0,0 0,0 -1,1 -1,1 -1,2 -1,-1 -3,-2 -5,-2 -1,0 -3,0 -4,1 -1,-2 -3,-4 -5,-4 -4,0 -6,4 -6,7 0,0 0,0 0,0 -5,0 -7,4 -6,8l55 0z"/>
    <path class="fil0" d="M21 74c2,-3 1,-8 -3,-8 -1,0 -2,0 -3,1 0,-2 -2,-4 -5,-4 -3,0 -5,3 -4,5 -1,0 -1,0 -2,0 -2,0 -4,2 -4,4 0,1 0,1 1,2l20 0z"/>
    <path class="fil0" d="M157 93c0,-2 -2,-4 -5,-4 -1,0 -1,0 -1,0 0,-2 -1,-4 -4,-4 -1,0 -2,0 -2,0 -1,-2 -2,-3 -4,-3 -1,0 -1,0 -2,0 -2,0 -3,1 -4,2 -1,1 -1,3 -1,4 0,0 0,0 0,0 -1,0 -3,0 -4,1 -1,1 -2,2 -2,4 0,0 0,0 0,0l30 0z"/>
    <path class="fil0" d="M299 79c0,-2 -2,-4 -5,-4 -1,0 -1,0 -1,0 0,-2 -1,-4 -4,-4 -1,0 -2,0 -2,0 -1,-2 -2,-3 -4,-3 -1,0 -1,0 -2,0 -2,0 -3,1 -4,2 -1,1 -1,3 -1,4 0,0 0,0 0,0 -1,0 -3,0 -4,1 -1,1 -2,2 -2,4 0,0 0,0 0,0l30 0z"/>
    <path class="fil0" d="M167 82c-1,-5 1,-11 7,-11 1,0 3,0 4,1 1,-3 3,-6 8,-6 5,0 8,4 7,9 1,0 2,-1 3,-1 4,0 7,3 7,7 0,0 0,1 0,1l-36 0z"/>
    <path class="fil0" d="M344 122c1,-4 -2,-8 -6,-8 -1,0 -2,0 -3,1 -1,-3 -3,-5 -7,-5 -4,0 -6,4 -6,7 -1,0 -1,0 -2,0 -3,0 -6,3 -6,6l30 0z"/>
    <path class="fil0" d="M378 82l22 0c0,0 0,-1 0,-1 0,-1 -1,-1 -1,-2 -1,-1 -2,-1 -3,-1 0,-2 -1,-4 -4,-4 0,0 -1,0 -1,0 0,0 0,-1 -1,-1 -2,-2 -5,-3 -7,-2 -2,1 -3,5 -3,7 0,0 0,0 0,0 -2,0 -3,2 -3,3z"/>
   </g>
   <path class="fil1" d="M388 62c0,3 -2,5 -5,5 -3,0 -5,-2 -5,-5 0,-3 2,-5 5,-5 3,0 5,2 5,5z"/>
  </g>
 </g>
</svg>
