<?xml version="1.0" encoding="UTF-8"?>
<!DOCTYPE svg PUBLIC "-//W3C//DTD SVG 1.1//EN" "http://www.w3.org/Graphics/SVG/1.1/DTD/svg11.dtd">
<!-- Creator: CorelDRAW X6 -->
<svg xmlns="http://www.w3.org/2000/svg" xml:space="preserve" width="200px" height="200px" version="1.1" style="shape-rendering:geometricPrecision; text-rendering:geometricPrecision; image-rendering:optimizeQuality; fill-rule:evenodd; clip-rule:evenodd"
viewBox="0 0 200 200"
 xmlns:xlink="http://www.w3.org/1999/xlink">
 <defs>
  <style type="text/css">
   <![CDATA[
    .str0 {stroke:white;stroke-width:2.00013}
    .fil46 {fill:none}
    .fil27 {fill:#E7E7E7}
    .fil47 {fill:#112131;fill-rule:nonzero}
    .fil40 {fill:#1A2A3A;fill-rule:nonzero}
    .fil30 {fill:#1B293A;fill-rule:nonzero}
    .fil32 {fill:#23344A;fill-rule:nonzero}
    .fil31 {fill:#272B36;fill-rule:nonzero}
    .fil38 {fill:#2F567B;fill-rule:nonzero}
    .fil39 {fill:#344352;fill-rule:nonzero}
    .fil29 {fill:#354453;fill-rule:nonzero}
    .fil43 {fill:#425B75;fill-rule:nonzero}
    .fil26 {fill:#430D22;fill-rule:nonzero}
    .fil24 {fill:#4A0E25;fill-rule:nonzero}
    .fil22 {fill:#501028;fill-rule:nonzero}
    .fil20 {fill:#57112C;fill-rule:nonzero}
    .fil18 {fill:#5E122F;fill-rule:nonzero}
    .fil16 {fill:#641332;fill-rule:nonzero}
    .fil14 {fill:#6B1536;fill-rule:nonzero}
    .fil12 {fill:#711639;fill-rule:nonzero}
    .fil10 {fill:#78173C;fill-rule:nonzero}
    .fil8 {fill:#7F193F;fill-rule:nonzero}
    .fil45 {fill:#85962D;fill-rule:nonzero}
    .fil44 {fill:#9DAF35;fill-rule:nonzero}
    .fil42 {fill:#B1D7EF;fill-rule:nonzero}
    .fil36 {fill:#BE8C52;fill-rule:nonzero}
    .fil35 {fill:#D49F67;fill-rule:nonzero}
    .fil34 {fill:#DD3E15;fill-rule:nonzero}
    .fil41 {fill:#E5F3FF;fill-rule:nonzero}
    .fil33 {fill:#FF8C23;fill-rule:nonzero}
    .fil37 {fill:#916333;fill-rule:nonzero}
    .fil28 {fill:url(#id0)}
    .fil25 {fill:url(#id1)}
    .fil23 {fill:url(#id2)}
    .fil21 {fill:url(#id3)}
    .fil19 {fill:url(#id4)}
    .fil17 {fill:url(#id5)}
    .fil15 {fill:url(#id6)}
    .fil13 {fill:url(#id7)}
    .fil11 {fill:url(#id8)}
    .fil9 {fill:url(#id9)}
    .fil7 {fill:url(#id10)}
    .fil6 {fill:url(#id11)}
    .fil5 {fill:url(#id12)}
    .fil4 {fill:url(#id13)}
    .fil3 {fill:url(#id14)}
    .fil2 {fill:url(#id15)}
    .fil1 {fill:url(#id16)}
    .fil0 {fill:url(#id17)}
   ]]>
  </style>
  <linearGradient id="id0" gradientUnits="userSpaceOnUse" x1="30.6531" y1="200.412" x2="166.287" y2="0.799088">
   <stop offset="0" style="stop-color:white"/>
   <stop offset="0.65098" style="stop-color:#EFEFEF"/>
   <stop offset="1" style="stop-color:#DEDEDE"/>
  </linearGradient>
  <radialGradient id="id1" gradientUnits="objectBoundingBox" cx="150%" cy="-49.9997%" r="50%" fx="150%" fy="-49.9997%">
   <stop offset="0" style="stop-color:#535354"/>
   <stop offset="0.458824" style="stop-color:#4D4D4E"/>
   <stop offset="1" style="stop-color:#484849"/>
  </radialGradient>
  <radialGradient id="id2" gradientUnits="objectBoundingBox" cx="150%" cy="-49.9997%" r="50.0003%" fx="150%" fy="-49.9997%">
   <stop offset="0" style="stop-color:#5B5B5C"/>
   <stop offset="0.458824" style="stop-color:#555556"/>
   <stop offset="1" style="stop-color:#4F4F50"/>
  </radialGradient>
  <radialGradient id="id3" gradientUnits="objectBoundingBox" cx="150%" cy="-49.9997%" r="50.0003%" fx="150%" fy="-49.9997%">
   <stop offset="0" style="stop-color:#636364"/>
   <stop offset="0.458824" style="stop-color:#5C5C5D"/>
   <stop offset="1" style="stop-color:#565657"/>
  </radialGradient>
  <radialGradient id="id4" gradientUnits="objectBoundingBox" cx="150%" cy="-50%" r="50.0003%" fx="150%" fy="-50%">
   <stop offset="0" style="stop-color:#6C6C6C"/>
   <stop offset="0.458824" style="stop-color:#656565"/>
   <stop offset="1" style="stop-color:#5E5E5E"/>
  </radialGradient>
  <radialGradient id="id5" gradientUnits="objectBoundingBox" cx="150%" cy="-49.9997%" r="50.0003%" fx="150%" fy="-49.9997%">
   <stop offset="0" style="stop-color:#747475"/>
   <stop offset="0.458824" style="stop-color:#6C6C6D"/>
   <stop offset="1" style="stop-color:#656566"/>
  </radialGradient>
  <radialGradient id="id6" gradientUnits="objectBoundingBox" cx="150%" cy="-49.9997%" r="50.0002%" fx="150%" fy="-49.9997%">
   <stop offset="0" style="stop-color:#7C7C7D"/>
   <stop offset="0.458824" style="stop-color:#747475"/>
   <stop offset="1" style="stop-color:#6C6C6D"/>
  </radialGradient>
  <radialGradient id="id7" gradientUnits="objectBoundingBox" cx="150%" cy="-50%" r="50%" fx="150%" fy="-50%">
   <stop offset="0" style="stop-color:#848485"/>
   <stop offset="0.458824" style="stop-color:#7B7B7C"/>
   <stop offset="1" style="stop-color:#737374"/>
  </radialGradient>
  <radialGradient id="id8" gradientUnits="objectBoundingBox" cx="150%" cy="-50%" r="50%" fx="150%" fy="-50%">
   <stop offset="0" style="stop-color:#8C8C8D"/>
   <stop offset="0.458824" style="stop-color:#838384"/>
   <stop offset="1" style="stop-color:#7A7A7B"/>
  </radialGradient>
  <radialGradient id="id9" gradientUnits="objectBoundingBox" cx="150%" cy="-49.9997%" r="50.0002%" fx="150%" fy="-49.9997%">
   <stop offset="0" style="stop-color:#959595"/>
   <stop offset="0.458824" style="stop-color:#8B8B8B"/>
   <stop offset="1" style="stop-color:#828282"/>
  </radialGradient>
  <radialGradient id="id10" gradientUnits="objectBoundingBox" cx="150%" cy="-50%" r="50%" fx="150%" fy="-50%">
   <stop offset="0" style="stop-color:#9D9D9D"/>
   <stop offset="0.458824" style="stop-color:#939393"/>
   <stop offset="1" style="stop-color:#898989"/>
  </radialGradient>
  <radialGradient id="id11" gradientUnits="objectBoundingBox" cx="150%" cy="-49.9997%" r="50.0002%" fx="150%" fy="-49.9997%">
   <stop offset="0" style="stop-color:#A5A5A5"/>
   <stop offset="0.458824" style="stop-color:#9A9A9A"/>
   <stop offset="1" style="stop-color:#909090"/>
  </radialGradient>
  <radialGradient id="id12" gradientUnits="objectBoundingBox" cx="150%" cy="-49.9997%" r="50%" fx="150%" fy="-49.9997%">
   <stop offset="0" style="stop-color:#ADADAE"/>
   <stop offset="0.458824" style="stop-color:#A2A2A2"/>
   <stop offset="1" style="stop-color:#979797"/>
  </radialGradient>
  <radialGradient id="id13" gradientUnits="objectBoundingBox" cx="150%" cy="-50%" r="50.0002%" fx="150%" fy="-50%">
   <stop offset="0" style="stop-color:#B5B5B6"/>
   <stop offset="0.458824" style="stop-color:#A9A9AA"/>
   <stop offset="1" style="stop-color:#9D9D9E"/>
  </radialGradient>
  <radialGradient id="id14" gradientUnits="objectBoundingBox" cx="150%" cy="-49.9998%" r="50.0002%" fx="150%" fy="-49.9998%">
   <stop offset="0" style="stop-color:#BDBDBE"/>
   <stop offset="0.458824" style="stop-color:#B0B0B1"/>
   <stop offset="1" style="stop-color:#A4A4A5"/>
  </radialGradient>
  <radialGradient id="id15" gradientUnits="objectBoundingBox" cx="150%" cy="-50%" r="50%" fx="150%" fy="-50%">
   <stop offset="0" style="stop-color:#C6C6C6"/>
   <stop offset="0.458824" style="stop-color:#B8B8B8"/>
   <stop offset="1" style="stop-color:#ABABAB"/>
  </radialGradient>
  <radialGradient id="id16" gradientUnits="objectBoundingBox" cx="150%" cy="-49.9998%" r="50%" fx="150%" fy="-49.9998%">
   <stop offset="0" style="stop-color:#CECECE"/>
   <stop offset="0.458824" style="stop-color:silver"/>
   <stop offset="1" style="stop-color:#B2B2B2"/>
  </radialGradient>
  <radialGradient id="id17" gradientUnits="objectBoundingBox" cx="150%" cy="-49.9998%" r="50%" fx="150%" fy="-49.9998%">
   <stop offset="0" style="stop-color:#D6D6D6"/>
   <stop offset="0.458824" style="stop-color:#C7C7C7"/>
   <stop offset="1" style="stop-color:#B9B9B9"/>
  </radialGradient>
 </defs>
 <g id="Layer_x0020_1">
  <metadata id="CorelCorpID_0Corel-Layer"/>
  <g id="_1144967760">
   <path class="fil0" d="M183 127c0,0 -1,-1 -1,-1l2 -65c0,-2 -1,-4 -3,-5l-81 -47c-1,0 -2,-1 -3,-1 -1,0 -2,0 -3,1l-45 27c-1,0 -1,0 -2,0l46 -28c1,0 2,-1 3,-1 1,0 2,0 3,1l82 48c1,1 3,3 3,5l-2 66z"/>
   <path class="fil1" d="M182 126c0,0 -1,-1 -1,-1l2 -63c0,-2 -1,-4 -3,-5l-80 -47c-1,0 -2,-1 -3,-1 -1,0 -2,0 -3,1l-44 27c-1,0 -1,0 -2,0l45 -27c1,0 2,-1 3,-1 1,0 2,0 3,1l81 47c1,1 3,3 3,5l-2 65z"/>
   <path class="fil2" d="M181 125c0,0 -1,-1 -1,-1l3 -62c0,-2 -1,-4 -3,-5l-79 -46c-1,0 -2,-1 -3,-1 -1,0 -2,0 -3,1l-42 27c-1,0 -1,0 -2,0l44 -27c1,0 2,-1 3,-1 1,0 2,0 3,1l80 47c1,1 3,3 3,5l-2 63z"/>
   <path class="fil3" d="M181 124c0,0 -1,-1 -1,-1l3 -61c0,-2 -1,-4 -3,-4l-78 -46c-1,0 -2,-1 -3,-1 -1,0 -2,0 -3,1l-41 26c-1,0 -1,0 -2,0l42 -27c1,0 2,-1 3,-1 1,0 2,0 3,1l79 46c1,1 3,3 3,5l-3 62z"/>
   <path class="fil4" d="M180 123c0,0 -1,-1 -1,-1l3 -60c0,-2 -1,-4 -3,-4l-77 -45c-1,0 -2,-1 -3,-1 -1,0 -2,0 -3,1l-40 26c0,0 -1,0 -1,0l41 -26c1,0 2,-1 3,-1 1,0 2,0 3,1l78 46c1,1 3,3 3,4l-3 61z"/>
   <path class="fil5" d="M179 121c0,0 -1,-1 -1,-1l4 -58c0,-2 -1,-4 -3,-4l-77 -45c-1,0 -2,-1 -3,-1 -1,0 -2,0 -3,1l-39 26c0,0 -1,0 -1,0l40 -26c1,0 2,-1 3,-1 1,0 2,0 3,1l77 45c1,1 3,3 3,4l-3 60z"/>
   <path class="fil6" d="M178 120c0,0 -1,-1 -1,-1l4 -57c0,-2 -1,-4 -3,-4l-76 -44c-1,0 -2,-1 -3,-1 -1,0 -2,0 -3,1l-38 26c0,0 -1,0 -1,0l39 -26c1,0 2,-1 3,-1 1,0 2,0 3,1l77 45c1,1 3,3 3,4l-4 58z"/>
   <path class="fil7" d="M178 119c0,0 -1,-1 -1,-1l4 -56c0,-2 -1,-4 -2,-4l-75 -44c-1,0 -2,-1 -2,-1 -1,0 -2,0 -2,1l-37 25c0,0 -1,0 -1,0l38 -26c1,0 2,-1 3,-1 1,0 2,0 3,1l76 44c1,1 3,3 3,4l-4 57z"/>
   <path class="fil8" d="M102 194c-1,0 -3,-1 -4,-1l-80 -45c-1,0 -1,-2 -1,-4 0,-7 9,-79 9,-79 0,0 0,-2 0,-2 0,-1 1,-3 2,-4l32 -21c0,0 1,0 1,0l-31 21c-1,1 -2,2 -2,3 0,0 0,2 0,2 0,0 -8,69 -9,77 0,2 0,3 1,4l78 44c1,0 3,1 4,1 0,0 0,0 0,0 0,0 0,0 0,0 1,0 70,-44 70,-44 1,-1 2,-3 2,-4l2 -26c0,0 1,1 1,1l-2 26c0,2 -1,4 -3,4 0,0 -70,45 -71,45 0,0 0,0 0,0 0,0 0,0 0,0z"/>
   <path class="fil9" d="M177 118c0,0 -1,-1 -1,-1l5 -55c0,-2 -1,-3 -2,-4l-74 -43c-1,0 -2,-1 -2,-1 -1,0 -2,0 -2,1l-36 25c0,0 -1,0 -1,0l37 -25c1,0 2,-1 2,-1 1,0 2,0 2,1l75 44c1,1 2,3 2,4l-4 56z"/>
   <path class="fil10" d="M102 192c-1,0 -3,-1 -4,-1l-78 -44c-1,0 -1,-2 -1,-4 0,-8 9,-77 9,-77 0,0 0,-1 0,-2 0,-1 1,-3 2,-3l31 -21c0,0 1,0 1,0l-31 21c-1,1 -2,2 -2,3 0,0 0,1 0,2 0,0 -8,66 -8,75 0,2 0,3 1,4l77 43c0,0 3,1 4,1 0,0 0,0 0,0 0,0 0,0 0,0 2,0 68,-42 68,-42 1,-1 2,-3 2,-4l2 -25c0,0 1,1 1,1l-2 26c0,2 -1,4 -2,4 0,0 -68,44 -70,44 0,0 0,0 0,0 0,0 0,0 0,0z"/>
   <path class="fil11" d="M176 117c0,0 -1,-1 -1,-1l5 -54c0,-2 -1,-3 -2,-4l-73 -43c-1,0 -2,-1 -2,-1 -1,0 -2,0 -2,1l-35 25c0,0 -1,0 -1,0l36 -25c1,0 2,-1 2,-1 1,0 2,0 2,1l74 43c1,1 2,3 2,4l-5 55z"/>
   <path class="fil12" d="M103 189c-1,0 -3,-1 -4,-1l-77 -43c-1,0 -1,-2 -1,-4 1,-9 8,-75 8,-75 0,0 0,-1 0,-2 0,-1 1,-3 2,-3l31 -21c0,0 1,0 1,0l-30 21c-1,1 -2,2 -2,3 0,0 0,1 0,2 0,0 -8,63 -8,73 0,2 0,3 1,4l75 43c0,0 3,1 4,1 0,0 0,0 0,0 0,0 0,0 0,0 2,0 67,-41 67,-41 1,-1 2,-3 2,-4l2 -25c0,0 1,1 1,1l-2 25c0,2 -1,3 -2,4 0,0 -67,42 -68,42 0,0 0,0 0,0 0,0 0,0 0,0z"/>
   <path class="fil13" d="M175 116c0,0 -1,-1 -1,-1l5 -53c0,-2 -1,-3 -2,-4l-73 -42c-1,0 -2,-1 -2,-1 -1,0 -2,0 -2,1l-34 25c0,0 -1,0 -1,0l35 -25c1,0 2,-1 2,-1 1,0 2,0 2,1l73 43c1,1 2,3 2,4l-5 54z"/>
   <path class="fil14" d="M103 186c-1,0 -3,-1 -4,-1l-75 -43c-1,0 -1,-2 -1,-4 1,-9 8,-73 8,-73 0,0 0,-1 0,-2 0,-1 1,-3 2,-3l30 -21c0,0 1,0 1,0l-29 21c-1,1 -2,2 -2,3 0,0 0,1 0,2 0,0 -8,61 -8,70 0,2 0,3 1,4l74 42c0,0 3,1 4,1 0,0 0,0 0,0 0,0 0,0 0,0 2,0 66,-40 66,-40 1,-1 2,-3 2,-4l2 -25c0,0 1,1 1,1l-2 25c0,2 -1,3 -2,4 0,0 -65,41 -67,41 0,0 0,0 0,0 0,0 0,0 0,0z"/>
   <path class="fil15" d="M174 115c0,0 -1,-1 -1,-1l6 -51c0,-2 -1,-3 -2,-4l-72 -42c-1,0 -2,-1 -2,-1 -1,0 -2,0 -2,1l-33 24c0,0 -1,0 -1,0l34 -25c1,0 2,-1 2,-1 1,0 2,0 2,1l73 42c1,1 2,3 2,4l-5 53z"/>
   <path class="fil16" d="M104 184c-1,0 -3,-1 -4,-1l-74 -42c0,0 -1,-2 -1,-4 1,-10 8,-70 8,-70 0,0 0,-1 0,-2 0,-1 1,-3 2,-3l29 -21c0,0 1,0 1,0l-29 21c-1,1 -2,2 -2,3 0,0 0,1 0,2 0,0 -7,58 -8,68 0,2 0,3 1,4l73 41c0,0 3,2 4,2 0,0 0,0 0,0 0,0 0,0 0,0 2,0 64,-39 64,-39 1,-1 2,-3 2,-4l3 -24c0,0 1,1 1,1l-2 25c0,2 -1,3 -2,4 0,0 -64,40 -66,40 0,0 0,0 0,0 0,0 0,0 0,0z"/>
   <path class="fil17" d="M174 114c0,0 -1,-1 -1,-1l6 -50c0,-1 -1,-3 -2,-4l-71 -41c-1,0 -2,-1 -2,-1 -1,0 -2,0 -2,1l-33 24c0,0 -1,0 -1,0l33 -24c1,0 2,-1 2,-1 1,0 2,0 2,1l72 42c1,1 2,3 2,4l-6 51z"/>
   <path class="fil18" d="M104 181c-1,0 -3,-1 -4,-2l-73 -41c0,0 -1,-2 -1,-4 1,-11 8,-68 8,-68 0,0 0,-1 0,-2 0,-1 1,-2 2,-3l29 -21c0,0 1,0 1,0l-28 21c-1,1 -2,2 -2,3 0,0 0,1 0,2 0,0 -7,55 -8,66 0,2 0,3 0,4l71 40c0,0 3,2 4,2 0,0 0,0 0,0 0,0 0,0 0,0 2,0 63,-38 63,-38 1,-1 2,-3 2,-4l3 -24c0,0 1,1 1,1l-3 24c0,2 -1,3 -2,4 0,0 -62,39 -64,39 0,0 0,0 0,0 0,0 0,0 0,0z"/>
   <path class="fil19" d="M173 113c0,0 -1,-1 -1,-1l6 -49c0,-1 -1,-3 -2,-4l-70 -41c-1,0 -1,-1 -2,-1 -1,0 -2,0 -2,1l-32 24c0,0 -1,0 -1,0l33 -24c1,0 2,-1 2,-1 1,0 2,0 2,1l71 41c1,1 2,3 2,4l-6 50z"/>
   <path class="fil20" d="M105 178c0,0 0,0 0,0 0,0 0,0 0,0 0,0 -3,-2 -4,-2l-71 -40c0,0 -1,-2 0,-4 1,-11 8,-66 8,-66 0,0 0,-1 0,-2 0,-1 1,-2 2,-3l28 -21c0,0 1,0 1,0l-28 21c-1,1 -2,2 -2,3 0,0 0,1 0,2 0,0 -7,53 -8,64 0,2 0,3 0,3l70 39 4 2c0,0 0,0 0,0 2,0 62,-37 62,-37 1,-1 2,-3 2,-4l3 -24c0,0 1,1 1,1l-3 24c0,1 -1,3 -2,4 0,0 -61,38 -63,38z"/>
   <path class="fil21" d="M172 112c0,0 -1,-1 -1,-1l7 -48c0,-1 -1,-3 -2,-4l-69 -40c-1,0 -1,-1 -2,-1 -1,0 -2,0 -2,1l-31 24c0,0 -1,0 -1,0l32 -24c1,0 1,-1 2,-1 1,0 2,0 2,1l70 41c1,1 2,3 2,4l-6 49z"/>
   <path class="fil22" d="M105 176c0,0 0,0 0,0l-4 -2 -70 -39c0,0 0,-1 0,-3 1,-12 8,-64 8,-64 0,0 0,-1 0,-2 0,-1 1,-2 2,-3l28 -21c0,0 1,0 1,0l-27 21c-1,1 -2,2 -2,3 0,0 0,1 0,1 0,0 -7,50 -8,62 0,2 0,3 0,3l68 39 3 2c0,0 0,0 0,0 2,0 60,-35 60,-35 1,-1 2,-3 2,-4l3 -23c0,0 1,1 1,1l-3 24c0,1 -1,3 -2,4 0,0 -60,37 -62,37z"/>
   <path class="fil23" d="M171 111c0,0 -1,-1 -1,-1l7 -47c0,-1 -1,-3 -2,-4l-68 -40c-1,0 -1,-1 -2,-1 -1,0 -2,0 -2,1l-30 24c0,0 -1,0 -1,0l31 -24c1,0 1,-1 2,-1 1,0 2,0 2,1l69 40c1,1 2,3 2,4l-7 48z"/>
   <path class="fil24" d="M105 173c0,0 0,0 0,0l-3 -2 -68 -39c0,0 0,-1 0,-3 1,-12 8,-62 8,-62 0,0 0,-1 0,-1 0,-1 1,-2 2,-3l27 -21c0,0 1,0 1,0l-27 21c-1,1 -2,3 -2,4 0,0 -9,63 -8,64l70 40c0,0 0,0 0,0 2,0 59,-34 59,-34 1,-1 2,-3 2,-4l3 -23c0,0 1,1 1,1l-3 23c0,1 -1,3 -2,4 0,0 -58,35 -60,35z"/>
   <path class="fil25" d="M171 110c-25,-32 -59,-55 -98,-67l30 -24c1,0 1,-1 2,-1 1,0 2,0 2,1l68 40c1,1 2,3 2,4l-7 47z"/>
   <path class="fil26" d="M106 171c0,0 0,0 0,0l-70 -40c-1,-1 8,-64 8,-64 0,-1 1,-3 2,-4l27 -21c39,12 74,36 98,67l-3 23c0,1 -1,3 -2,4 0,0 -57,34 -59,34z"/>
   <path class="fil27" d="M185 146c0,2 -1,4 -3,4l-80 46c-1,1 -4,1 -5,0l-80 -46c-1,-1 -3,-3 -3,-4l0 -92c0,-2 1,-4 3,-4l80 -46c1,-1 4,-1 5,0l80 46c1,1 3,3 3,4l0 92z"/>
   <path class="fil28" d="M182 146c0,2 -1,4 -2,4l-78 45c-1,1 -4,1 -5,0l-78 -45c-1,-1 -2,-3 -2,-4l0 -90c0,-2 1,-4 2,-4l78 -45c1,-1 4,-1 5,0l78 45c1,1 2,3 2,4l0 90z"/>
  </g>
  <g id="_1144956848">
   <g>
    <polygon class="fil29" points="146,146 71,146 71,149 146,149 "/>
    <polygon class="fil30" points="71,152 146,152 146,149 71,149 "/>
    <polygon class="fil31" points="58,95 67,95 67,90 58,90 "/>
    <path class="fil32" d="M71 141c0,1 -1,1 -1,1l-3 0c-1,0 -1,-1 -1,-1l0 -49c0,-1 1,-1 1,-1l2 0c1,0 1,1 1,1l0 49z"/>
    <path class="fil33" d="M65 90c0,-1 -1,-1 -1,-1l-20 0c-1,0 -1,1 -1,1l0 3 22 0 0 -3z"/>
    <path class="fil34" d="M43 93l0 3c0,1 1,1 1,1l20 0c1,0 1,-1 1,-1l0 -3 -22 0z"/>
    <polygon class="fil35" points="75,146 90,146 90,110 75,110 "/>
    <polygon class="fil36" points="106,110 90,110 90,146 106,146 "/>
    <polygon class="fil37" points="81,117 77,117 77,110 81,110 "/>
    <polygon class="fil37" points="103,117 99,117 99,110 103,110 "/>
    <polygon class="fil38" points="84,139 86,139 83,135 81,139 83,139 83,143 79,143 79,139 81,139 79,135 76,139 78,139 78,143 77,143 77,144 85,144 85,143 84,143 "/>
    <polygon class="fil35" points="106,146 121,146 121,118 106,118 "/>
    <polygon class="fil36" points="136,118 121,118 121,146 136,146 "/>
    <polygon class="fil37" points="112,125 109,125 109,118 112,118 "/>
    <polygon class="fil37" points="134,125 130,125 130,118 134,118 "/>
    <polygon class="fil38" points="115,139 116,139 114,135 112,139 114,139 114,143 110,143 110,139 112,139 109,135 107,139 109,139 109,143 108,143 108,144 116,144 116,143 115,143 "/>
    <path class="fil39" d="M68 139c-5,0 -10,5 -9,10 0,3 1,5 3,7l13 -14c-2,-2 -4,-3 -7,-3z"/>
    <path class="fil40" d="M75 142l-13 14c2,2 4,3 7,3 5,0 10,-5 9,-10 0,-3 -1,-5 -3,-7z"/>
    <path class="fil39" d="M66 152c1,1 2,1 3,1 3,0 4,-2 4,-5 0,-1 -1,-2 -1,-3l-6 7z"/>
    <path class="fil40" d="M68 144c-3,0 -4,2 -4,5 0,1 1,2 2,3l6 -7c-1,-1 -2,-1 -3,-1z"/>
    <path class="fil41" d="M67 149c0,-1 1,-2 2,-2 1,0 1,0 1,1l1 -1c-1,-1 -1,-1 -2,-1 -2,0 -3,1 -3,3 0,1 0,2 1,2l1 -1c0,0 -1,-1 -1,-1z"/>
    <path class="fil42" d="M70 148c0,0 0,1 0,1 0,1 -1,2 -2,2 0,0 -1,0 -1,0l-1 1c1,0 1,1 2,1 2,0 3,-1 3,-3 0,-1 0,-1 -1,-2l-1 1z"/>
    <path class="fil39" d="M133 139c-5,0 -10,5 -9,10 0,3 1,5 3,7l13 -14c-2,-2 -4,-3 -7,-3z"/>
    <path class="fil40" d="M140 142l-13 14c2,2 4,3 7,3 5,0 10,-5 9,-10 0,-3 -1,-5 -3,-7z"/>
    <path class="fil39" d="M130 152c1,1 2,1 3,1 3,0 4,-2 4,-5 0,-1 -1,-2 -1,-3l-6 7z"/>
    <path class="fil40" d="M133 144c-3,0 -4,2 -4,5 0,1 1,2 2,3l6 -7c-1,-1 -2,-1 -3,-1z"/>
    <path class="fil41" d="M132 149c0,-1 1,-2 2,-2 1,0 1,0 1,1l1 -1c-1,-1 -1,-1 -2,-1 -2,0 -3,1 -3,3 0,1 0,2 1,2l1 -1c0,0 -1,-1 -1,-1z"/>
    <path class="fil42" d="M135 148c0,0 0,1 0,1 0,1 -1,2 -2,2 0,0 -1,0 -1,0l-1 1c1,0 1,1 2,1 2,0 3,-1 3,-3 0,-1 0,-1 -1,-2l-1 1z"/>
   </g>
   <g>
    <polygon class="fil35" points="100,47 90,76 103,81 114,52 "/>
    <polygon class="fil36" points="129,57 114,52 103,81 119,87 "/>
    <polygon class="fil37" points="104,55 100,53 102,48 106,49 "/>
    <polygon class="fil37" points="121,61 118,60 120,54 123,55 "/>
    <polygon class="fil38" points="102,73 104,73 103,68 99,72 101,72 99,76 96,75 97,71 99,71 98,67 94,70 96,70 95,74 94,74 93,75 101,78 101,77 100,76 "/>
    <polygon class="fil43" points="119,82 134,41 141,44 140,48 137,47 123,84 "/>
    <polygon class="fil40" points="116,88 115,90 86,79 86,77 "/>
    <polygon class="fil43" points="87,75 117,86 116,88 86,77 "/>
    <path class="fil43" d="M122 81c4,1 7,6 5,10 -1,2 -2,4 -4,5l-8 -15c2,-1 4,-1 6,-1z"/>
    <path class="fil40" d="M115 82l8 15c-2,1 -4,1 -6,0 -4,-1 -7,-6 -5,-10 1,-2 2,-4 4,-5z"/>
    <path class="fil39" d="M121 92c-1,0 -2,1 -3,0 -2,-1 -3,-3 -2,-5 0,-1 1,-2 2,-2l4 7z"/>
    <path class="fil40" d="M121 85c2,1 3,3 2,5 0,1 -1,2 -2,2l-4 -7c1,0 2,-1 3,0z"/>
    <path class="fil41" d="M121 89c0,-1 0,-2 -1,-2 0,0 -1,0 -1,0l0 -1c1,0 1,0 2,0 1,0 2,2 2,3 0,1 -1,1 -1,1l0 -1c0,0 1,0 1,-1z"/>
    <path class="fil42" d="M119 87c0,0 -1,0 -1,1 0,1 0,2 1,2 0,0 1,0 1,0l0 1c-1,0 -1,0 -2,0 -1,0 -2,-2 -2,-3 0,-1 1,-1 1,-1l0 1z"/>
    <polygon class="fil44" points="139,42 157,48 156,52 138,45 "/>
    <polygon class="fil45" points="156,52 155,55 137,48 138,45 "/>
    <path class="fil46 str0" d="M154 84c0,0 -1,0 -1,0"/>
   </g>
   <g>
    <polygon class="fil47" points="85,102 87,102 87,107 88,107 88,99 "/>
    <polygon class="fil47" points="89,102 91,102 88,99 88,99 88,107 89,107 "/>
   </g>
   <g>
    <polygon class="fil47" points="91,103 93,103 93,99 94,99 94,107 "/>
    <polygon class="fil47" points="95,103 97,103 94,107 94,107 94,99 95,99 "/>
   </g>
  </g>
 </g>
</svg>
