<?xml version="1.0" encoding="UTF-8"?>
<!DOCTYPE svg PUBLIC "-//W3C//DTD SVG 1.1//EN" "http://www.w3.org/Graphics/SVG/1.1/DTD/svg11.dtd">
<!-- Creator: CorelDRAW X6 -->
<svg xmlns="http://www.w3.org/2000/svg" xml:space="preserve" width="400px" height="200px" version="1.1" style="shape-rendering:geometricPrecision; text-rendering:geometricPrecision; image-rendering:optimizeQuality; fill-rule:evenodd; clip-rule:evenodd"
viewBox="0 0 400 200"
 xmlns:xlink="http://www.w3.org/1999/xlink">
 <defs>
  <style type="text/css">
   <![CDATA[
    .fil2 {fill:#FFC300;fill-rule:nonzero;fill-opacity:0.7}
    .fil1 {fill:#8bcaff;fill-rule:nonzero;fill-opacity:0.5}
    .fil0 {fill:#347990;fill-rule:nonzero;fill-opacity:0.9}
   ]]>
  </style>
 </defs>
     <g id="Layer_x0020_1">
   <g id="_924904896">
   <g>
    <path class="fil0" d="M134 143c1,-3 -1,-7 -5,-7 -1,0 -3,1 -4,2 -1,-2 -3,-4 -6,-4 -1,0 -1,0 -2,0 0,-1 0,-2 -1,-3 0,0 -1,-1 -1,-1 0,0 0,0 -1,-1 -1,-1 -3,-2 -4,-2 -1,0 -2,0 -3,1 0,0 -1,1 -1,1 0,0 0,0 0,0 -1,1 -1,1 -1,2 -1,-1 -3,-2 -5,-2 -1,0 -3,0 -4,1 -1,-2 -3,-4 -5,-4 -4,0 -6,4 -6,7 0,0 0,0 0,0 -5,0 -7,4 -6,8l55 0z"/>
    <path class="fil0" d="M259 119c0,-2 -1,-5 -3,-6l0 0c-1,-1 -2,-1 -3,-1 -2,0 -3,1 -5,2 0,0 -1,1 -1,1 -1,-2 -3,-4 -6,-4 -1,0 -2,0 -3,1 0,-3 -2,-5 -5,-5 -4,0 -6,3 -5,6 -1,0 -1,0 -2,0 -1,0 -2,0 -3,1 -1,1 -2,1 -2,2 0,1 -1,2 -1,3l39 0z"/>
    <g>
     <path class="fil1" d="M376 73c0,-1 0,-1 0,-2 0,-1 0,-2 0,-2 0,-1 0,-1 -1,-2 -1,-1 -1,-2 -2,-2 -1,-1 -2,-1 -3,-1 -1,0 -2,0 -3,1 0,0 0,0 0,0 0,0 0,0 0,0 0,0 0,-1 0,-1 -1,-2 -2,-3 -3,-4 -2,-1 -3,-1 -5,-1 -2,1 -4,3 -5,5 0,1 0,2 0,3 0,0 0,0 0,0 -1,0 -3,0 -4,1 -1,1 -2,1 -2,2 0,0 0,0 0,0 0,0 0,0 0,0 -1,1 -1,3 -1,4l30 0z"/>
    </g>
    <path class="fil1" d="M109 83c1,-3 -1,-7 -5,-7 -1,0 -3,1 -4,2 -1,-2 -3,-4 -6,-4 -1,0 -1,0 -2,0 0,-1 0,-2 -1,-3 0,0 -1,-1 -1,-1 0,0 0,0 -1,-1 -1,-1 -3,-2 -4,-2 -1,0 -2,0 -3,1 0,0 -1,1 -1,1 0,0 0,0 0,0 -1,1 -1,1 -1,2 -1,-1 -3,-2 -5,-2 -1,0 -3,0 -4,1 -1,-2 -3,-4 -5,-4 -4,0 -6,4 -6,7 0,0 0,0 0,0 -5,0 -7,4 -6,8l55 0z"/>
    <path class="fil1" d="M21 74c2,-3 1,-8 -3,-8 -1,0 -2,0 -3,1 0,-2 -2,-4 -5,-4 -3,0 -5,3 -4,5 -1,0 -1,0 -2,0 -2,0 -4,2 -4,4 0,1 0,1 1,2l20 0z"/>
    <path class="fil1" d="M157 93c0,-2 -2,-4 -5,-4 -1,0 -1,0 -1,0 0,-2 -1,-4 -4,-4 -1,0 -2,0 -2,0 -1,-2 -2,-3 -4,-3 -1,0 -1,0 -2,0 -2,0 -3,1 -4,2 -1,1 -1,3 -1,4 0,0 0,0 0,0 -1,0 -3,0 -4,1 -1,1 -2,2 -2,4 0,0 0,0 0,0l30 0z"/>
    <path class="fil1" d="M299 79c0,-2 -2,-4 -5,-4 -1,0 -1,0 -1,0 0,-2 -1,-4 -4,-4 -1,0 -2,0 -2,0 -1,-2 -2,-3 -4,-3 -1,0 -1,0 -2,0 -2,0 -3,1 -4,2 -1,1 -1,3 -1,4 0,0 0,0 0,0 -1,0 -3,0 -4,1 -1,1 -2,2 -2,4 0,0 0,0 0,0l30 0z"/>
    <path class="fil1" d="M167 82c-1,-5 1,-11 7,-11 1,0 3,0 4,1 1,-3 3,-6 8,-6 5,0 8,4 7,9 1,0 2,-1 3,-1 4,0 7,3 7,7 0,0 0,1 0,1l-36 0z"/>
    <path class="fil0" d="M344 122c1,-4 -2,-8 -6,-8 -1,0 -2,0 -3,1 -1,-3 -3,-5 -7,-5 -4,0 -6,4 -6,7 -1,0 -1,0 -2,0 -3,0 -6,3 -6,6l30 0z"/>
    <path class="fil1" d="M378 82l22 0c0,0 0,-1 0,-1 0,-1 -1,-1 -1,-2 -1,-1 -2,-1 -3,-1 0,-2 -1,-4 -4,-4 0,0 -1,0 -1,0 0,0 0,-1 -1,-1 -2,-2 -5,-3 -7,-2 -2,1 -3,5 -3,7 0,0 0,0 0,0 -2,0 -3,2 -3,3z"/>
   </g>
   <path class="fil2" d="M388 62c0,3 -2,5 -5,5 -3,0 -5,-2 -5,-5 0,-3 2,-5 5,-5 3,0 5,2 5,5z"/>
  </g>
 </g>
 <g id="Layer_x0020_2">
  <metadata id="CorelCorpID_0Corel-Layer"/>
  <g id="_927996912">
   <polygon class="fil0" points="135,123 135,123 135,123 126,105 132,105 131,105 132,105 122,90 125,90 127,90 117,78 117,78 117,78 117,78 116,78 107,90 112,90 102,105 108,105 99,123 114,123 113,140 117,140 121,140 121,140 119,123 "/>
   <polygon class="fil0" points="88,119 88,119 88,119 77,97 84,97 84,97 84,97 72,78 76,78 78,78 66,64 66,63 66,63 66,63 65,64 53,78 60,78 48,97 55,97 44,119 63,119 61,140 66,140 70,140 70,140 69,119 "/>
   <polygon class="fil0" points="400,119 400,119 400,119 389,97 396,97 396,97 396,97 384,78 388,78 391,78 379,64 378,63 378,63 378,63 377,64 365,78 372,78 360,97 367,97 356,119 375,119 373,140 378,140 382,140 382,140 381,119 "/>
   <polygon class="fil0" points="254,119 254,119 254,119 243,97 250,97 250,97 250,97 238,78 242,78 244,78 232,64 232,63 232,63 232,63 231,64 219,78 226,78 214,97 221,97 210,119 229,119 227,140 232,140 236,140 236,140 235,119 "/>
   <polygon class="fil0" points="321,127 321,127 297,60 273,127 293,127 292,139 296,139 296,140 300,140 300,139 300,139 299,128 321,128 "/>
   <polygon class="fil0" points="48,127 48,127 24,60 0,127 21,127 20,139 24,139 24,140 28,140 27,139 28,139 27,128 48,128 "/>
   <path class="fil0" d="M172 103c0,-4 -1,-9 -4,-16 -5,-8 -10,-14 -10,-14 0,0 0,0 0,0 0,0 0,0 0,0 0,0 0,0 0,0l0 0c-1,1 -5,7 -10,14 -11,16 -1,26 8,28l-1 19 3 0 3 0 0 0 0 0 -2 -19c1,0 2,0 3,-1 5,-2 9,-6 10,-12z"/>
   <path class="fil0" d="M347 103c0,-4 -1,-9 -4,-16 -5,-8 -10,-14 -10,-14 0,0 0,0 0,0 0,0 0,0 0,0 0,0 0,0 0,0l0 0c-1,1 -5,7 -10,14 -11,16 -1,26 8,28l-1 19 3 0 3 0 0 0 0 0 -2 -19c1,0 2,0 3,-1 5,-2 9,-6 10,-12z"/>
  </g>
 </g>
</svg>
