<?xml version="1.0" encoding="UTF-8"?>
<!DOCTYPE svg PUBLIC "-//W3C//DTD SVG 1.1//EN" "http://www.w3.org/Graphics/SVG/1.1/DTD/svg11.dtd">
<!-- Creator: CorelDRAW X6 -->
<svg xmlns="http://www.w3.org/2000/svg" xml:space="preserve" width="200px" height="200px" version="1.1" style="shape-rendering:geometricPrecision; text-rendering:geometricPrecision; image-rendering:optimizeQuality; fill-rule:evenodd; clip-rule:evenodd"
viewBox="0 0 200 200"
 xmlns:xlink="http://www.w3.org/1999/xlink">
 <defs>
  <style type="text/css">
   <![CDATA[
    .str0 {stroke:#1D3649;stroke-width:0.500033}
    .fil33 {fill:#1D3649}
    .fil27 {fill:#E7E7E7}
    .fil29 {fill:#1A2A3A;fill-rule:nonzero}
    .fil26 {fill:#430D22;fill-rule:nonzero}
    .fil24 {fill:#4A0E25;fill-rule:nonzero}
    .fil22 {fill:#501028;fill-rule:nonzero}
    .fil20 {fill:#57112C;fill-rule:nonzero}
    .fil18 {fill:#5E122F;fill-rule:nonzero}
    .fil16 {fill:#641332;fill-rule:nonzero}
    .fil14 {fill:#6B1536;fill-rule:nonzero}
    .fil12 {fill:#711639;fill-rule:nonzero}
    .fil10 {fill:#78173C;fill-rule:nonzero}
    .fil8 {fill:#7F193F;fill-rule:nonzero}
    .fil32 {fill:#BE8C52;fill-rule:nonzero}
    .fil31 {fill:#D49F67;fill-rule:nonzero}
    .fil30 {fill:#3FAB3C;fill-rule:nonzero}
    .fil28 {fill:url(#id2)}
    .fil25 {fill:url(#id3)}
    .fil23 {fill:url(#id4)}
    .fil21 {fill:url(#id5)}
    .fil19 {fill:url(#id6)}
    .fil17 {fill:url(#id7)}
    .fil15 {fill:url(#id8)}
    .fil13 {fill:url(#id9)}
    .fil11 {fill:url(#id10)}
    .fil9 {fill:url(#id11)}
    .fil7 {fill:url(#id12)}
    .fil6 {fill:url(#id13)}
    .fil5 {fill:url(#id14)}
    .fil4 {fill:url(#id15)}
    .fil3 {fill:url(#id16)}
    .fil2 {fill:url(#id17)}
    .fil1 {fill:url(#id18)}
    .fil0 {fill:url(#id19)}
   ]]>
  </style>
       <clipPath id="id0" style="clip-rule:nonzero">
        <path d="M94 102c0,1 0,2 -1,3 -1,1 -2,1 -2,2 0,0 0,1 -1,1 -1,1 -2,3 -2,4 0,1 1,3 1,4 0,0 0,0 0,0 -2,-1 -4,-2 -6,-3 -1,-2 -1,-3 -1,-5 0,-2 1,-4 -1,-6 0,0 -1,-1 -1,-2 0,-2 0,-3 1,-4 0,-1 -3,-2 -3,-4 -1,-2 -1,-2 -1,-4 0,-2 -3,-3 -5,-4 -1,-1 -2,-2 -2,-3 0,-2 0,-5 0,-7 0,-1 0,-2 0,-2 4,-10 13,-17 24,-19 0,0 0,0 0,0 0,1 0,2 0,3 1,2 1,3 -1,5 0,0 -1,1 -1,1 -1,1 -2,1 -3,1 -1,0 -2,0 -3,1 0,0 -1,0 -1,0 0,1 0,1 0,2 0,1 0,2 0,3 -1,1 -2,1 -3,1 -1,1 -1,2 1,3 0,0 1,0 1,1 0,0 0,0 0,0 1,0 2,0 2,-1 1,-1 2,-2 4,-2 3,0 3,3 2,6 -1,2 -1,5 0,7 1,2 2,3 2,5 0,2 -4,3 -6,2 -1,0 -6,-3 -6,0 0,1 -1,2 -1,3 0,0 0,0 0,1 0,1 2,1 2,1 1,0 2,0 2,0 0,0 1,0 1,0 0,0 1,1 1,1 2,1 3,1 3,3 0,0 1,1 1,1 1,1 2,2 1,4z"/>
       </clipPath>
       <clipPath id="id1" style="clip-rule:nonzero">
        <path d="M124 99c0,0 0,0 0,0 0,0 -1,0 -1,0 -1,-1 -2,-2 -3,-2 -1,0 0,1 0,2 0,1 0,2 -1,3 -1,1 -2,1 -3,0 0,0 -1,-1 -1,-1 -1,2 -1,8 -2,10 -1,2 -1,3 -3,3 -1,0 -3,-5 -3,-6 0,-1 0,-2 1,-3 1,-3 -2,-3 -4,-4 -2,-1 -3,-7 0,-9 2,-1 3,0 6,0 2,1 5,1 6,0 1,0 2,-1 3,-2 1,-1 1,-3 1,-4 0,0 0,0 0,0 0,0 0,0 -1,0 -1,1 -1,2 -2,2 0,0 -1,0 -1,0 0,0 0,0 0,0 0,1 0,2 -1,3 -1,0 -1,-4 -2,-2 0,0 0,0 0,0 -1,1 -2,3 -3,2 -1,0 -3,-1 -3,-2 -1,-1 0,-2 0,-2 0,0 1,0 1,0 2,-2 2,-3 1,-2 0,0 0,0 0,0 -3,0 -3,-4 -2,-6 0,-1 1,-1 2,-1 1,0 1,1 2,2 4,3 6,-4 6,-6 0,0 0,0 0,0 0,-1 -1,-3 -1,0 0,1 0,2 -1,3 -2,2 -4,0 -5,-2 0,-2 1,-3 1,-5 1,-2 0,-4 1,-6 0,-1 2,-2 3,-3 2,-1 4,-3 5,-5 9,5 16,15 16,27 -1,7 -3,14 -9,16z"/>
       </clipPath>
  <linearGradient id="id2" gradientUnits="userSpaceOnUse" x1="30.6531" y1="200.412" x2="166.287" y2="0.799088">
   <stop offset="0" style="stop-color:white"/>
   <stop offset="0.65098" style="stop-color:#EFEFEF"/>
   <stop offset="1" style="stop-color:#DEDEDE"/>
  </linearGradient>
  <radialGradient id="id3" gradientUnits="objectBoundingBox" cx="150%" cy="-49.9997%" r="50%" fx="150%" fy="-49.9997%">
   <stop offset="0" style="stop-color:#535354"/>
   <stop offset="0.458824" style="stop-color:#4D4D4E"/>
   <stop offset="1" style="stop-color:#484849"/>
  </radialGradient>
  <radialGradient id="id4" gradientUnits="objectBoundingBox" cx="150%" cy="-49.9997%" r="50.0003%" fx="150%" fy="-49.9997%">
   <stop offset="0" style="stop-color:#5B5B5C"/>
   <stop offset="0.458824" style="stop-color:#555556"/>
   <stop offset="1" style="stop-color:#4F4F50"/>
  </radialGradient>
  <radialGradient id="id5" gradientUnits="objectBoundingBox" cx="150%" cy="-49.9997%" r="50.0003%" fx="150%" fy="-49.9997%">
   <stop offset="0" style="stop-color:#636364"/>
   <stop offset="0.458824" style="stop-color:#5C5C5D"/>
   <stop offset="1" style="stop-color:#565657"/>
  </radialGradient>
  <radialGradient id="id6" gradientUnits="objectBoundingBox" cx="150%" cy="-50%" r="50.0003%" fx="150%" fy="-50%">
   <stop offset="0" style="stop-color:#6C6C6C"/>
   <stop offset="0.458824" style="stop-color:#656565"/>
   <stop offset="1" style="stop-color:#5E5E5E"/>
  </radialGradient>
  <radialGradient id="id7" gradientUnits="objectBoundingBox" cx="150%" cy="-49.9997%" r="50.0003%" fx="150%" fy="-49.9997%">
   <stop offset="0" style="stop-color:#747475"/>
   <stop offset="0.458824" style="stop-color:#6C6C6D"/>
   <stop offset="1" style="stop-color:#656566"/>
  </radialGradient>
  <radialGradient id="id8" gradientUnits="objectBoundingBox" cx="150%" cy="-49.9997%" r="50.0002%" fx="150%" fy="-49.9997%">
   <stop offset="0" style="stop-color:#7C7C7D"/>
   <stop offset="0.458824" style="stop-color:#747475"/>
   <stop offset="1" style="stop-color:#6C6C6D"/>
  </radialGradient>
  <radialGradient id="id9" gradientUnits="objectBoundingBox" cx="150%" cy="-50%" r="50%" fx="150%" fy="-50%">
   <stop offset="0" style="stop-color:#848485"/>
   <stop offset="0.458824" style="stop-color:#7B7B7C"/>
   <stop offset="1" style="stop-color:#737374"/>
  </radialGradient>
  <radialGradient id="id10" gradientUnits="objectBoundingBox" cx="150%" cy="-50%" r="50%" fx="150%" fy="-50%">
   <stop offset="0" style="stop-color:#8C8C8D"/>
   <stop offset="0.458824" style="stop-color:#838384"/>
   <stop offset="1" style="stop-color:#7A7A7B"/>
  </radialGradient>
  <radialGradient id="id11" gradientUnits="objectBoundingBox" cx="150%" cy="-49.9997%" r="50.0002%" fx="150%" fy="-49.9997%">
   <stop offset="0" style="stop-color:#959595"/>
   <stop offset="0.458824" style="stop-color:#8B8B8B"/>
   <stop offset="1" style="stop-color:#828282"/>
  </radialGradient>
  <radialGradient id="id12" gradientUnits="objectBoundingBox" cx="150%" cy="-50%" r="50%" fx="150%" fy="-50%">
   <stop offset="0" style="stop-color:#9D9D9D"/>
   <stop offset="0.458824" style="stop-color:#939393"/>
   <stop offset="1" style="stop-color:#898989"/>
  </radialGradient>
  <radialGradient id="id13" gradientUnits="objectBoundingBox" cx="150%" cy="-49.9997%" r="50.0002%" fx="150%" fy="-49.9997%">
   <stop offset="0" style="stop-color:#A5A5A5"/>
   <stop offset="0.458824" style="stop-color:#9A9A9A"/>
   <stop offset="1" style="stop-color:#909090"/>
  </radialGradient>
  <radialGradient id="id14" gradientUnits="objectBoundingBox" cx="150%" cy="-49.9997%" r="50%" fx="150%" fy="-49.9997%">
   <stop offset="0" style="stop-color:#ADADAE"/>
   <stop offset="0.458824" style="stop-color:#A2A2A2"/>
   <stop offset="1" style="stop-color:#979797"/>
  </radialGradient>
  <radialGradient id="id15" gradientUnits="objectBoundingBox" cx="150%" cy="-50%" r="50.0002%" fx="150%" fy="-50%">
   <stop offset="0" style="stop-color:#B5B5B6"/>
   <stop offset="0.458824" style="stop-color:#A9A9AA"/>
   <stop offset="1" style="stop-color:#9D9D9E"/>
  </radialGradient>
  <radialGradient id="id16" gradientUnits="objectBoundingBox" cx="150%" cy="-49.9998%" r="50.0002%" fx="150%" fy="-49.9998%">
   <stop offset="0" style="stop-color:#BDBDBE"/>
   <stop offset="0.458824" style="stop-color:#B0B0B1"/>
   <stop offset="1" style="stop-color:#A4A4A5"/>
  </radialGradient>
  <radialGradient id="id17" gradientUnits="objectBoundingBox" cx="150%" cy="-50%" r="50%" fx="150%" fy="-50%">
   <stop offset="0" style="stop-color:#C6C6C6"/>
   <stop offset="0.458824" style="stop-color:#B8B8B8"/>
   <stop offset="1" style="stop-color:#ABABAB"/>
  </radialGradient>
  <radialGradient id="id18" gradientUnits="objectBoundingBox" cx="150%" cy="-49.9998%" r="50%" fx="150%" fy="-49.9998%">
   <stop offset="0" style="stop-color:#CECECE"/>
   <stop offset="0.458824" style="stop-color:silver"/>
   <stop offset="1" style="stop-color:#B2B2B2"/>
  </radialGradient>
  <radialGradient id="id19" gradientUnits="objectBoundingBox" cx="150%" cy="-49.9998%" r="50%" fx="150%" fy="-49.9998%">
   <stop offset="0" style="stop-color:#D6D6D6"/>
   <stop offset="0.458824" style="stop-color:#C7C7C7"/>
   <stop offset="1" style="stop-color:#B9B9B9"/>
  </radialGradient>
 </defs>
 <g id="Layer_x0020_1">
  <metadata id="CorelCorpID_0Corel-Layer"/>
  <g id="_1083121280">
   <g>
    <path class="fil0" d="M183 127c0,0 -1,-1 -1,-1l2 -65c0,-2 -1,-4 -3,-5l-81 -47c-1,0 -2,-1 -3,-1 -1,0 -2,0 -3,1l-45 27c-1,0 -1,0 -2,0l46 -28c1,0 2,-1 3,-1 1,0 2,0 3,1l82 48c1,1 3,3 3,5l-2 66z"/>
    <path class="fil1" d="M182 126c0,0 -1,-1 -1,-1l2 -63c0,-2 -1,-4 -3,-5l-80 -47c-1,0 -2,-1 -3,-1 -1,0 -2,0 -3,1l-44 27c-1,0 -1,0 -2,0l45 -27c1,0 2,-1 3,-1 1,0 2,0 3,1l81 47c1,1 3,3 3,5l-2 65z"/>
    <path class="fil2" d="M181 125c0,0 -1,-1 -1,-1l3 -62c0,-2 -1,-4 -3,-5l-79 -46c-1,0 -2,-1 -3,-1 -1,0 -2,0 -3,1l-42 27c-1,0 -1,0 -2,0l44 -27c1,0 2,-1 3,-1 1,0 2,0 3,1l80 47c1,1 3,3 3,5l-2 63z"/>
    <path class="fil3" d="M181 124c0,0 -1,-1 -1,-1l3 -61c0,-2 -1,-4 -3,-4l-78 -46c-1,0 -2,-1 -3,-1 -1,0 -2,0 -3,1l-41 26c-1,0 -1,0 -2,0l42 -27c1,0 2,-1 3,-1 1,0 2,0 3,1l79 46c1,1 3,3 3,5l-3 62z"/>
    <path class="fil4" d="M180 123c0,0 -1,-1 -1,-1l3 -60c0,-2 -1,-4 -3,-4l-77 -45c-1,0 -2,-1 -3,-1 -1,0 -2,0 -3,1l-40 26c0,0 -1,0 -1,0l41 -26c1,0 2,-1 3,-1 1,0 2,0 3,1l78 46c1,1 3,3 3,4l-3 61z"/>
    <path class="fil5" d="M179 121c0,0 -1,-1 -1,-1l4 -58c0,-2 -1,-4 -3,-4l-77 -45c-1,0 -2,-1 -3,-1 -1,0 -2,0 -3,1l-39 26c0,0 -1,0 -1,0l40 -26c1,0 2,-1 3,-1 1,0 2,0 3,1l77 45c1,1 3,3 3,4l-3 60z"/>
    <path class="fil6" d="M178 120c0,0 -1,-1 -1,-1l4 -57c0,-2 -1,-4 -3,-4l-76 -44c-1,0 -2,-1 -3,-1 -1,0 -2,0 -3,1l-38 26c0,0 -1,0 -1,0l39 -26c1,0 2,-1 3,-1 1,0 2,0 3,1l77 45c1,1 3,3 3,4l-4 58z"/>
    <path class="fil7" d="M178 119c0,0 -1,-1 -1,-1l4 -56c0,-2 -1,-4 -2,-4l-75 -44c-1,0 -2,-1 -2,-1 -1,0 -2,0 -2,1l-37 25c0,0 -1,0 -1,0l38 -26c1,0 2,-1 3,-1 1,0 2,0 3,1l76 44c1,1 3,3 3,4l-4 57z"/>
    <path class="fil8" d="M102 194c-1,0 -3,-1 -4,-1l-80 -45c-1,0 -1,-2 -1,-4 0,-7 9,-79 9,-79 0,0 0,-2 0,-2 0,-1 1,-3 2,-4l32 -21c0,0 1,0 1,0l-31 21c-1,1 -2,2 -2,3 0,0 0,2 0,2 0,0 -8,69 -9,77 0,2 0,3 1,4l78 44c1,0 3,1 4,1 0,0 0,0 0,0 0,0 0,0 0,0 1,0 70,-44 70,-44 1,-1 2,-3 2,-4l2 -26c0,0 1,1 1,1l-2 26c0,2 -1,4 -3,4 0,0 -70,45 -71,45 0,0 0,0 0,0 0,0 0,0 0,0z"/>
    <path class="fil9" d="M177 118c0,0 -1,-1 -1,-1l5 -55c0,-2 -1,-3 -2,-4l-74 -43c-1,0 -2,-1 -2,-1 -1,0 -2,0 -2,1l-36 25c0,0 -1,0 -1,0l37 -25c1,0 2,-1 2,-1 1,0 2,0 2,1l75 44c1,1 2,3 2,4l-4 56z"/>
    <path class="fil10" d="M102 192c-1,0 -3,-1 -4,-1l-78 -44c-1,0 -1,-2 -1,-4 0,-8 9,-77 9,-77 0,0 0,-1 0,-2 0,-1 1,-3 2,-3l31 -21c0,0 1,0 1,0l-31 21c-1,1 -2,2 -2,3 0,0 0,1 0,2 0,0 -8,66 -8,75 0,2 0,3 1,4l77 43c0,0 3,1 4,1 0,0 0,0 0,0 0,0 0,0 0,0 2,0 68,-42 68,-42 1,-1 2,-3 2,-4l2 -25c0,0 1,1 1,1l-2 26c0,2 -1,4 -2,4 0,0 -68,44 -70,44 0,0 0,0 0,0 0,0 0,0 0,0z"/>
    <path class="fil11" d="M176 117c0,0 -1,-1 -1,-1l5 -54c0,-2 -1,-3 -2,-4l-73 -43c-1,0 -2,-1 -2,-1 -1,0 -2,0 -2,1l-35 25c0,0 -1,0 -1,0l36 -25c1,0 2,-1 2,-1 1,0 2,0 2,1l74 43c1,1 2,3 2,4l-5 55z"/>
    <path class="fil12" d="M103 189c-1,0 -3,-1 -4,-1l-77 -43c-1,0 -1,-2 -1,-4 1,-9 8,-75 8,-75 0,0 0,-1 0,-2 0,-1 1,-3 2,-3l31 -21c0,0 1,0 1,0l-30 21c-1,1 -2,2 -2,3 0,0 0,1 0,2 0,0 -8,63 -8,73 0,2 0,3 1,4l75 43c0,0 3,1 4,1 0,0 0,0 0,0 0,0 0,0 0,0 2,0 67,-41 67,-41 1,-1 2,-3 2,-4l2 -25c0,0 1,1 1,1l-2 25c0,2 -1,3 -2,4 0,0 -67,42 -68,42 0,0 0,0 0,0 0,0 0,0 0,0z"/>
    <path class="fil13" d="M175 116c0,0 -1,-1 -1,-1l5 -53c0,-2 -1,-3 -2,-4l-73 -42c-1,0 -2,-1 -2,-1 -1,0 -2,0 -2,1l-34 25c0,0 -1,0 -1,0l35 -25c1,0 2,-1 2,-1 1,0 2,0 2,1l73 43c1,1 2,3 2,4l-5 54z"/>
    <path class="fil14" d="M103 186c-1,0 -3,-1 -4,-1l-75 -43c-1,0 -1,-2 -1,-4 1,-9 8,-73 8,-73 0,0 0,-1 0,-2 0,-1 1,-3 2,-3l30 -21c0,0 1,0 1,0l-29 21c-1,1 -2,2 -2,3 0,0 0,1 0,2 0,0 -8,61 -8,70 0,2 0,3 1,4l74 42c0,0 3,1 4,1 0,0 0,0 0,0 0,0 0,0 0,0 2,0 66,-40 66,-40 1,-1 2,-3 2,-4l2 -25c0,0 1,1 1,1l-2 25c0,2 -1,3 -2,4 0,0 -65,41 -67,41 0,0 0,0 0,0 0,0 0,0 0,0z"/>
    <path class="fil15" d="M174 115c0,0 -1,-1 -1,-1l6 -51c0,-2 -1,-3 -2,-4l-72 -42c-1,0 -2,-1 -2,-1 -1,0 -2,0 -2,1l-33 24c0,0 -1,0 -1,0l34 -25c1,0 2,-1 2,-1 1,0 2,0 2,1l73 42c1,1 2,3 2,4l-5 53z"/>
    <path class="fil16" d="M104 184c-1,0 -3,-1 -4,-1l-74 -42c0,0 -1,-2 -1,-4 1,-10 8,-70 8,-70 0,0 0,-1 0,-2 0,-1 1,-3 2,-3l29 -21c0,0 1,0 1,0l-29 21c-1,1 -2,2 -2,3 0,0 0,1 0,2 0,0 -7,58 -8,68 0,2 0,3 1,4l73 41c0,0 3,2 4,2 0,0 0,0 0,0 0,0 0,0 0,0 2,0 64,-39 64,-39 1,-1 2,-3 2,-4l3 -24c0,0 1,1 1,1l-2 25c0,2 -1,3 -2,4 0,0 -64,40 -66,40 0,0 0,0 0,0 0,0 0,0 0,0z"/>
    <path class="fil17" d="M174 114c0,0 -1,-1 -1,-1l6 -50c0,-1 -1,-3 -2,-4l-71 -41c-1,0 -2,-1 -2,-1 -1,0 -2,0 -2,1l-33 24c0,0 -1,0 -1,0l33 -24c1,0 2,-1 2,-1 1,0 2,0 2,1l72 42c1,1 2,3 2,4l-6 51z"/>
    <path class="fil18" d="M104 181c-1,0 -3,-1 -4,-2l-73 -41c0,0 -1,-2 -1,-4 1,-11 8,-68 8,-68 0,0 0,-1 0,-2 0,-1 1,-2 2,-3l29 -21c0,0 1,0 1,0l-28 21c-1,1 -2,2 -2,3 0,0 0,1 0,2 0,0 -7,55 -8,66 0,2 0,3 0,4l71 40c0,0 3,2 4,2 0,0 0,0 0,0 0,0 0,0 0,0 2,0 63,-38 63,-38 1,-1 2,-3 2,-4l3 -24c0,0 1,1 1,1l-3 24c0,2 -1,3 -2,4 0,0 -62,39 -64,39 0,0 0,0 0,0 0,0 0,0 0,0z"/>
    <path class="fil19" d="M173 113c0,0 -1,-1 -1,-1l6 -49c0,-1 -1,-3 -2,-4l-70 -41c-1,0 -1,-1 -2,-1 -1,0 -2,0 -2,1l-32 24c0,0 -1,0 -1,0l33 -24c1,0 2,-1 2,-1 1,0 2,0 2,1l71 41c1,1 2,3 2,4l-6 50z"/>
    <path class="fil20" d="M105 178c0,0 0,0 0,0 0,0 0,0 0,0 0,0 -3,-2 -4,-2l-71 -40c0,0 -1,-2 0,-4 1,-11 8,-66 8,-66 0,0 0,-1 0,-2 0,-1 1,-2 2,-3l28 -21c0,0 1,0 1,0l-28 21c-1,1 -2,2 -2,3 0,0 0,1 0,2 0,0 -7,53 -8,64 0,2 0,3 0,3l70 39 4 2c0,0 0,0 0,0 2,0 62,-37 62,-37 1,-1 2,-3 2,-4l3 -24c0,0 1,1 1,1l-3 24c0,1 -1,3 -2,4 0,0 -61,38 -63,38z"/>
    <path class="fil21" d="M172 112c0,0 -1,-1 -1,-1l7 -48c0,-1 -1,-3 -2,-4l-69 -40c-1,0 -1,-1 -2,-1 -1,0 -2,0 -2,1l-31 24c0,0 -1,0 -1,0l32 -24c1,0 1,-1 2,-1 1,0 2,0 2,1l70 41c1,1 2,3 2,4l-6 49z"/>
    <path class="fil22" d="M105 176c0,0 0,0 0,0l-4 -2 -70 -39c0,0 0,-1 0,-3 1,-12 8,-64 8,-64 0,0 0,-1 0,-2 0,-1 1,-2 2,-3l28 -21c0,0 1,0 1,0l-27 21c-1,1 -2,2 -2,3 0,0 0,1 0,1 0,0 -7,50 -8,62 0,2 0,3 0,3l68 39 3 2c0,0 0,0 0,0 2,0 60,-35 60,-35 1,-1 2,-3 2,-4l3 -23c0,0 1,1 1,1l-3 24c0,1 -1,3 -2,4 0,0 -60,37 -62,37z"/>
    <path class="fil23" d="M171 111c0,0 -1,-1 -1,-1l7 -47c0,-1 -1,-3 -2,-4l-68 -40c-1,0 -1,-1 -2,-1 -1,0 -2,0 -2,1l-30 24c0,0 -1,0 -1,0l31 -24c1,0 1,-1 2,-1 1,0 2,0 2,1l69 40c1,1 2,3 2,4l-7 48z"/>
    <path class="fil24" d="M105 173c0,0 0,0 0,0l-3 -2 -68 -39c0,0 0,-1 0,-3 1,-12 8,-62 8,-62 0,0 0,-1 0,-1 0,-1 1,-2 2,-3l27 -21c0,0 1,0 1,0l-27 21c-1,1 -2,3 -2,4 0,0 -9,63 -8,64l70 40c0,0 0,0 0,0 2,0 59,-34 59,-34 1,-1 2,-3 2,-4l3 -23c0,0 1,1 1,1l-3 23c0,1 -1,3 -2,4 0,0 -58,35 -60,35z"/>
    <path class="fil25" d="M171 110c-25,-32 -59,-55 -98,-67l30 -24c1,0 1,-1 2,-1 1,0 2,0 2,1l68 40c1,1 2,3 2,4l-7 47z"/>
    <path class="fil26" d="M106 171c0,0 0,0 0,0l-70 -40c-1,-1 8,-64 8,-64 0,-1 1,-3 2,-4l27 -21c39,12 74,36 98,67l-3 23c0,1 -1,3 -2,4 0,0 -57,34 -59,34z"/>
    <path class="fil27" d="M185 146c0,2 -1,4 -3,4l-80 46c-1,1 -4,1 -5,0l-80 -46c-1,-1 -3,-3 -3,-4l0 -92c0,-2 1,-4 3,-4l80 -46c1,-1 4,-1 5,0l80 46c1,1 3,3 3,4l0 92z"/>
    <path class="fil28" d="M182 146c0,2 -1,4 -2,4l-78 45c-1,1 -4,1 -5,0l-78 -45c-1,-1 -2,-3 -2,-4l0 -90c0,-2 1,-4 2,-4l78 -45c1,-1 4,-1 5,0l78 45c1,1 2,3 2,4l0 90z"/>
   </g>
   <g>
    <path class="fil29" d="M67 83c1,-18 17,-32 35,-31 18,1 32,17 31,35 -1,18 -17,32 -35,31 -18,-1 -32,-17 -31,-35z"/>
   </g>
   <g>
    <g>
     <g>
      <path class="fil30" d="M94 102c0,1 0,2 -1,3 -1,1 -2,1 -2,2 0,0 0,1 -1,1 -1,1 -2,3 -2,4 0,1 1,3 1,4 0,0 0,0 0,0 -2,-1 -4,-2 -6,-3 -1,-2 -1,-3 -1,-5 0,-2 1,-4 -1,-6 0,0 -1,-1 -1,-2 0,-2 0,-3 1,-4 0,-1 -3,-2 -3,-4 -1,-2 -1,-2 -1,-4 0,-2 -3,-3 -5,-4 -1,-1 -2,-2 -2,-3 0,-2 0,-5 0,-7 0,-1 0,-2 0,-2 4,-10 13,-17 24,-19 0,0 0,0 0,0 0,1 0,2 0,3 1,2 1,3 -1,5 0,0 -1,1 -1,1 -1,1 -2,1 -3,1 -1,0 -2,0 -3,1 0,0 -1,0 -1,0 0,1 0,1 0,2 0,1 0,2 0,3 -1,1 -2,1 -3,1 -1,1 -1,2 1,3 0,0 1,0 1,1 0,0 0,0 0,0 1,0 2,0 2,-1 1,-1 2,-2 4,-2 3,0 3,3 2,6 -1,2 -1,5 0,7 1,2 2,3 2,5 0,2 -4,3 -6,2 -1,0 -6,-3 -6,0 0,1 -1,2 -1,3 0,0 0,0 0,1 0,1 2,1 2,1 1,0 2,0 2,0 0,0 1,0 1,0 0,0 1,1 1,1 2,1 3,1 3,3 0,0 1,1 1,1 1,1 2,2 1,4z"/>
     </g>
     <g>
      <path class="fil30" d="M124 99c0,0 0,0 0,0 0,0 -1,0 -1,0 -1,-1 -2,-2 -3,-2 -1,0 0,1 0,2 0,1 0,2 -1,3 -1,1 -2,1 -3,0 0,0 -1,-1 -1,-1 -1,2 -1,8 -2,10 -1,2 -1,3 -3,3 -1,0 -3,-5 -3,-6 0,-1 0,-2 1,-3 1,-3 -2,-3 -4,-4 -2,-1 -3,-7 0,-9 2,-1 3,0 6,0 2,1 5,1 6,0 1,0 2,-1 3,-2 1,-1 1,-3 1,-4 0,0 0,0 0,0 0,0 0,0 -1,0 -1,1 -1,2 -2,2 0,0 -1,0 -1,0 0,0 0,0 0,0 0,1 0,2 -1,3 -1,0 -1,-4 -2,-2 0,0 0,0 0,0 -1,1 -2,3 -3,2 -1,0 -3,-1 -3,-2 -1,-1 0,-2 0,-2 0,0 1,0 1,0 2,-2 2,-3 1,-2 0,0 0,0 0,0 -3,0 -3,-4 -2,-6 0,-1 1,-1 2,-1 1,0 1,1 2,2 4,3 6,-4 6,-6 0,0 0,0 0,0 0,-1 -1,-3 -1,0 0,1 0,2 -1,3 -2,2 -4,0 -5,-2 0,-2 1,-3 1,-5 1,-2 0,-4 1,-6 0,-1 2,-2 3,-3 2,-1 4,-3 5,-5 9,5 16,15 16,27 -1,7 -3,14 -9,16z"/>
     </g>
    </g>
    <g>
     <g>
      <g style="clip-path:url(#id0)">
       <image x="70" y="53" width="25.3375" height="63.4582" xlink:href="handhole_Images\handhole_ImgID1.png"/>
      </g>
     </g>
     <g>
      <g style="clip-path:url(#id1)">
       <image x="100" y="57" width="33.4135" height="59.2079" xlink:href="handhole_Images\handhole_ImgID2.png"/>
      </g>
     </g>
    </g>
   </g>
   <polygon class="fil31" points="54,138 100,148 100,85 54,88 "/>
   <polygon class="fil32" points="100,148 146,138 146,88 100,85 "/>
   <rect class="fil33 str0" transform="matrix(1.43396 0.00191064 -0.00191064 1.43396 67.505 92.3356)" width="9.50005" height="3.12492" rx="1" ry="1"/>
   <rect class="fil33 str0" transform="matrix(1.43396 0.00191064 -0.00191064 1.43396 116.356 91.9976)" width="9.50005" height="3.12492" rx="1" ry="1"/>
  </g>
 </g>
</svg>
