<?xml version="1.0" encoding="UTF-8"?>
<!DOCTYPE svg PUBLIC "-//W3C//DTD SVG 1.1//EN" "http://www.w3.org/Graphics/SVG/1.1/DTD/svg11.dtd">
<!-- Creator: CorelDRAW X6 -->
<svg xmlns="http://www.w3.org/2000/svg" xml:space="preserve" width="300px" height="120px" version="1.1" style="shape-rendering:geometricPrecision; text-rendering:geometricPrecision; image-rendering:optimizeQuality; fill-rule:evenodd; clip-rule:evenodd"
viewBox="0 0 300 120"
 xmlns:xlink="http://www.w3.org/1999/xlink">
 <defs>
  <style type="text/css">
   <![CDATA[
    .fil3 {fill:none;fill-rule:nonzero}
    .fil1 {fill:#0D1925;fill-rule:nonzero}
    .fil2 {fill:#1D3649;fill-rule:nonzero}
    .fil0 {fill:#63A52F;fill-rule:nonzero}
   ]]>
  </style>
   <clipPath id="id0" style="clip-rule:nonzero">
    <path d="M300 1c0,0 0,-1 -1,-1l-299 0 0 120 300 0 0 -119z"/>
   </clipPath>
 </defs>
 <g id="Layer_x0020_1">
  <metadata id="CorelCorpID_0Corel-Layer"/>
  <path class="fil0" d="M300 1c0,0 0,-1 -1,-1l-299 0 0 120 300 0 0 -119z"/>
  <g style="clip-path:url(#id0)">
   <g id="_910730592">
    <path id="1" class="fil1" d="M332 -13c0,0 0,1 1,1l0 90c-6,-12 -13,-24 -21,-34 -26,-35 -65,-45 -98,-41 -33,4 -58,22 -74,41 -16,19 -22,40 -24,54 -1,8 -1,15 0,22l-116 0 0 -133 332 0z"/>
    <g>
     <g>
      <path class="fil2" d="M327 27c2,3 4,5 5,8l0 24c-4,-8 -9,-15 -14,-22 -25,-36 -65,-49 -98,-46 -34,3 -61,21 -78,41 -17,20 -24,42 -27,57 -2,12 -1,21 0,30l-1 0c-2,-12 -5,-21 -4,-37 2,-17 9,-41 27,-63 10,-13 24,-25 41,-33l104 0c16,8 32,21 44,40z"/>
     </g>
    </g>
   </g>
  </g>
  <path class="fil3" d="M300 1c0,0 0,-1 -1,-1l-299 0 0 120 300 0 0 -119z"/>
 </g>
</svg>
