<?xml version="1.0" encoding="UTF-8"?>
<!DOCTYPE svg PUBLIC "-//W3C//DTD SVG 1.1//EN" "http://www.w3.org/Graphics/SVG/1.1/DTD/svg11.dtd">
<!-- Creator: CorelDRAW X6 -->
<svg xmlns="http://www.w3.org/2000/svg" xml:space="preserve" width="300px" height="120px" version="1.1" style="shape-rendering:geometricPrecision; text-rendering:geometricPrecision; image-rendering:optimizeQuality; fill-rule:evenodd; clip-rule:evenodd"
viewBox="0 0 300 120"
 xmlns:xlink="http://www.w3.org/1999/xlink">
 <defs>
  <style type="text/css">
   <![CDATA[
    .fil0 {fill:#0D1925}
    .fil2 {fill:#1D3649;fill-rule:nonzero}
    .fil1 {fill:#63A52F;fill-rule:nonzero}
   ]]>
  </style>
 </defs>
 <g id="Layer_x0020_1">
  <metadata id="CorelCorpID_0Corel-Layer"/>
  <g id="_994266736">
   <rect class="fil0" width="300" height="120"/>
   <g>
    <path class="fil1" d="M300 0l-278 0 0 0 -22 0 0 29c16,-4 34,-7 53,-7 78,0 143,42 154,98l93 0 0 -120z"/>
    <g>
     <g>
      <path class="fil2" d="M53 11c-19,0 -36,2 -53,7l0 6c16,-4 34,-7 53,-7 81,0 147,45 155,102l1 0c-1,-62 -70,-109 -155,-109z"/>
     </g>
    </g>
   </g>
  </g>
 </g>
</svg>
