<?xml version="1.0" encoding="UTF-8"?>
<!DOCTYPE svg PUBLIC "-//W3C//DTD SVG 1.1//EN" "http://www.w3.org/Graphics/SVG/1.1/DTD/svg11.dtd">
<!-- Creator: CorelDRAW X6 -->
<svg xmlns="http://www.w3.org/2000/svg" xml:space="preserve" width="200px" height="200px" version="1.1" style="shape-rendering:geometricPrecision; text-rendering:geometricPrecision; image-rendering:optimizeQuality; fill-rule:evenodd; clip-rule:evenodd"
viewBox="0 0 200 200"
 xmlns:xlink="http://www.w3.org/1999/xlink">
 <defs>
  <style type="text/css">
   <![CDATA[
    .fil0 {fill:#63A52F}
   ]]>
  </style>
 </defs>
 <g id="Layer_x0020_1">
  <metadata id="CorelCorpID_0Corel-Layer"/>
  <g id="_932585520">
   <path class="fil0" d="M66 182c-6,0 -13,0 -19,0 -4,0 -7,-1 -11,-2 -5,-2 -8,-5 -8,-11 0,-1 0,-2 -1,-2 -7,-3 -9,-10 -13,-15 -4,-5 -7,-10 -11,-16 -3,-4 -3,-9 -2,-13 3,-9 7,-17 12,-24 3,-4 2,-5 -2,-7 0,0 -1,0 -1,0 -1,-1 -4,-1 -3,-3 0,-2 3,-2 4,-3 5,-1 10,-3 15,-4 8,-2 16,-5 24,-7 3,-1 5,0 6,3 2,8 3,16 5,24 1,5 2,11 3,16 0,0 0,1 0,1 0,2 1,4 -1,6 -2,1 -3,-1 -5,-2 -6,-4 -6,-4 -11,2 -3,4 -6,9 -9,14 -1,1 -1,2 1,2 14,0 28,0 42,0 2,0 4,0 6,0 3,0 5,1 5,4 0,12 0,23 0,35 0,3 -2,4 -5,4 -7,0 -14,0 -22,0 0,0 0,0 0,0z"/>
   <path class="fil0" d="M188 137c2,1 3,-1 5,0 1,2 -1,3 -1,5 -4,10 -8,19 -12,29 -3,8 -10,11 -17,11 -7,1 -15,2 -22,2 -2,0 -3,1 -3,3 0,1 0,3 0,4 0,1 0,3 -2,3 -2,1 -3,0 -4,-1 -2,-3 -4,-5 -6,-7 -8,-8 -16,-15 -24,-24 -3,-3 -3,-5 0,-7 6,-5 13,-11 19,-17 4,-3 8,-7 12,-10 1,-1 2,-2 3,-1 1,1 1,2 1,3 0,2 0,3 0,5 0,5 1,6 6,6 7,0 13,0 20,0 4,0 8,0 12,-1 -2,0 -5,0 -7,0 -3,0 -5,-1 -6,-4 -8,-12 -15,-25 -23,-37 -2,-3 -2,-5 1,-7 9,-5 18,-11 27,-17 4,-3 5,-3 8,2 8,12 15,24 23,35 2,3 3,7 4,11 1,5 -3,11 -8,13 -1,0 -2,0 -3,1z"/>
   <path class="fil0" d="M102 31c0,6 -4,10 -7,14 -6,10 -12,20 -18,29 -3,4 -3,4 -7,2 -10,-5 -19,-13 -29,-18 -2,-1 -2,-3 -1,-5 8,-12 15,-24 22,-36 3,-4 6,-8 11,-10 3,-1 7,-1 10,1 1,1 2,1 4,0 2,-2 5,-2 7,-2 10,-1 20,0 30,-2 5,-1 9,1 13,5 6,8 11,16 15,25 1,2 2,3 5,1 1,-1 3,-2 5,-3 3,-1 4,0 3,3 -3,8 -6,17 -8,25 -2,5 -3,10 -5,14 -1,4 -3,5 -6,3 -10,-3 -19,-7 -29,-10 -4,-1 -8,-3 -12,-5 -1,0 -2,0 -2,-1 0,-1 1,-2 2,-2 2,-1 4,-2 6,-3 2,-1 3,-3 2,-5 -3,-8 -6,-15 -11,-22z"/>
  </g>
 </g>
</svg>
