<?xml version="1.0" encoding="UTF-8"?>
<!DOCTYPE svg PUBLIC "-//W3C//DTD SVG 1.1//EN" "http://www.w3.org/Graphics/SVG/1.1/DTD/svg11.dtd">
<!-- Creator: CorelDRAW X6 -->
<svg xmlns="http://www.w3.org/2000/svg" xml:space="preserve" width="300px" height="300px" version="1.1" style="shape-rendering:geometricPrecision; text-rendering:geometricPrecision; image-rendering:optimizeQuality; fill-rule:evenodd; clip-rule:evenodd"
viewBox="0 0 300 300"
 xmlns:xlink="http://www.w3.org/1999/xlink">
 <defs>
  <style type="text/css">
   <![CDATA[
    .str0 {stroke:#1D3649;stroke-width:0.500032}
    .fil53 {fill:#1D3649}
    .fil47 {fill:#112131;fill-rule:nonzero}
    .fil33 {fill:#1A2A38;fill-rule:nonzero}
    .fil39 {fill:#1A2A3A;fill-rule:nonzero}
    .fil29 {fill:#1C3146;fill-rule:nonzero}
    .fil48 {fill:#1D3649;fill-rule:nonzero}
    .fil30 {fill:#1F3449;fill-rule:nonzero}
    .fil46 {fill:#213149;fill-rule:nonzero}
    .fil31 {fill:#21364B;fill-rule:nonzero}
    .fil32 {fill:#334252;fill-rule:nonzero}
    .fil38 {fill:#344252;fill-rule:nonzero}
    .fil49 {fill:#425B75;fill-rule:nonzero}
    .fil45 {fill:#425D77;fill-rule:nonzero}
    .fil26 {fill:#430D22;fill-rule:nonzero}
    .fil24 {fill:#4A0E25;fill-rule:nonzero}
    .fil22 {fill:#501028;fill-rule:nonzero}
    .fil20 {fill:#57112C;fill-rule:nonzero}
    .fil18 {fill:#5E122F;fill-rule:nonzero}
    .fil16 {fill:#641332;fill-rule:nonzero}
    .fil14 {fill:#6B1536;fill-rule:nonzero}
    .fil12 {fill:#711639;fill-rule:nonzero}
    .fil10 {fill:#78173C;fill-rule:nonzero}
    .fil8 {fill:#7F193F;fill-rule:nonzero}
    .fil44 {fill:#80C1F0;fill-rule:nonzero}
    .fil34 {fill:#85972D;fill-rule:nonzero}
    .fil37 {fill:#859926;fill-rule:nonzero}
    .fil43 {fill:#87BFEF;fill-rule:nonzero}
    .fil35 {fill:#9EB134;fill-rule:nonzero}
    .fil42 {fill:#AAD1EB;fill-rule:nonzero}
    .fil41 {fill:#B1D6EF;fill-rule:nonzero}
    .fil51 {fill:#BE8C52;fill-rule:nonzero}
    .fil36 {fill:#CFE16B;fill-rule:nonzero}
    .fil50 {fill:#D49F67;fill-rule:nonzero}
    .fil40 {fill:#E4F2FF;fill-rule:nonzero}
    .fil52 {fill:#916333;fill-rule:nonzero}
    .fil28 {fill:url(#id0)}
    .fil27 {fill:url(#id1)}
    .fil3 {fill:url(#id2)}
    .fil0 {fill:url(#id3)}
    .fil23 {fill:url(#id4)}
    .fil2 {fill:url(#id5)}
    .fil13 {fill:url(#id6)}
    .fil15 {fill:url(#id7)}
    .fil21 {fill:url(#id8)}
    .fil6 {fill:url(#id9)}
    .fil5 {fill:url(#id10)}
    .fil1 {fill:url(#id11)}
    .fil11 {fill:url(#id12)}
    .fil7 {fill:url(#id13)}
    .fil25 {fill:url(#id14)}
    .fil4 {fill:url(#id15)}
    .fil19 {fill:url(#id16)}
    .fil17 {fill:url(#id17)}
    .fil9 {fill:url(#id18)}
   ]]>
  </style>
  <linearGradient id="id0" gradientUnits="userSpaceOnUse" x1="50.3079" y1="301.015" x2="254.294" y2="0.806741">
   <stop offset="0" style="stop-color:white"/>
   <stop offset="0.65098" style="stop-color:#EFEFEF"/>
   <stop offset="1" style="stop-color:#DEDEDE"/>
  </linearGradient>
  <linearGradient id="id1" gradientUnits="userSpaceOnUse" xlink:href="#id0" x1="220.513" y1="-2.19118" x2="79.4867" y2="302.193">
  </linearGradient>
  <radialGradient id="id2" gradientUnits="objectBoundingBox" cx="-49.9998%" cy="-49.9998%" r="50.0002%" fx="-49.9998%" fy="-49.9998%">
   <stop offset="0" style="stop-color:#BDBDBE"/>
   <stop offset="0.458824" style="stop-color:#B0B0B1"/>
   <stop offset="1" style="stop-color:#A4A4A5"/>
  </radialGradient>
  <radialGradient id="id3" gradientUnits="objectBoundingBox" cx="-50%" cy="-49.9998%" r="50%" fx="-50%" fy="-49.9998%">
   <stop offset="0" style="stop-color:#D6D6D6"/>
   <stop offset="0.458824" style="stop-color:#C7C7C7"/>
   <stop offset="1" style="stop-color:#B9B9B9"/>
  </radialGradient>
  <radialGradient id="id4" gradientUnits="objectBoundingBox" cx="-50.0003%" cy="-49.9997%" r="50.0003%" fx="-50.0003%" fy="-49.9997%">
   <stop offset="0" style="stop-color:#5B5B5C"/>
   <stop offset="0.458824" style="stop-color:#555556"/>
   <stop offset="1" style="stop-color:#4F4F50"/>
  </radialGradient>
  <radialGradient id="id5" gradientUnits="objectBoundingBox" cx="-50%" cy="-50%" r="50%" fx="-50%" fy="-50%">
   <stop offset="0" style="stop-color:#C6C6C6"/>
   <stop offset="0.458824" style="stop-color:#B8B8B8"/>
   <stop offset="1" style="stop-color:#ABABAB"/>
  </radialGradient>
  <radialGradient id="id6" gradientUnits="objectBoundingBox" cx="-50%" cy="-50%" r="50%" fx="-50%" fy="-50%">
   <stop offset="0" style="stop-color:#848485"/>
   <stop offset="0.458824" style="stop-color:#7B7B7C"/>
   <stop offset="1" style="stop-color:#737374"/>
  </radialGradient>
  <radialGradient id="id7" gradientUnits="objectBoundingBox" cx="-49.9998%" cy="-49.9997%" r="50.0002%" fx="-49.9998%" fy="-49.9997%">
   <stop offset="0" style="stop-color:#7C7C7D"/>
   <stop offset="0.458824" style="stop-color:#747475"/>
   <stop offset="1" style="stop-color:#6C6C6D"/>
  </radialGradient>
  <radialGradient id="id8" gradientUnits="objectBoundingBox" cx="-50.0003%" cy="-49.9997%" r="50.0003%" fx="-50.0003%" fy="-49.9997%">
   <stop offset="0" style="stop-color:#636364"/>
   <stop offset="0.458824" style="stop-color:#5C5C5D"/>
   <stop offset="1" style="stop-color:#565657"/>
  </radialGradient>
  <radialGradient id="id9" gradientUnits="objectBoundingBox" cx="-49.9998%" cy="-49.9997%" r="50.0002%" fx="-49.9998%" fy="-49.9997%">
   <stop offset="0" style="stop-color:#A5A5A5"/>
   <stop offset="0.458824" style="stop-color:#9A9A9A"/>
   <stop offset="1" style="stop-color:#909090"/>
  </radialGradient>
  <radialGradient id="id10" gradientUnits="objectBoundingBox" cx="-50%" cy="-49.9997%" r="50%" fx="-50%" fy="-49.9997%">
   <stop offset="0" style="stop-color:#ADADAE"/>
   <stop offset="0.458824" style="stop-color:#A2A2A2"/>
   <stop offset="1" style="stop-color:#979797"/>
  </radialGradient>
  <radialGradient id="id11" gradientUnits="objectBoundingBox" cx="-50%" cy="-49.9998%" r="50%" fx="-50%" fy="-49.9998%">
   <stop offset="0" style="stop-color:#CECECE"/>
   <stop offset="0.458824" style="stop-color:silver"/>
   <stop offset="1" style="stop-color:#B2B2B2"/>
  </radialGradient>
  <radialGradient id="id12" gradientUnits="objectBoundingBox" cx="-50%" cy="-50%" r="50%" fx="-50%" fy="-50%">
   <stop offset="0" style="stop-color:#8C8C8D"/>
   <stop offset="0.458824" style="stop-color:#838384"/>
   <stop offset="1" style="stop-color:#7A7A7B"/>
  </radialGradient>
  <radialGradient id="id13" gradientUnits="objectBoundingBox" cx="-50%" cy="-50%" r="50%" fx="-50%" fy="-50%">
   <stop offset="0" style="stop-color:#9D9D9D"/>
   <stop offset="0.458824" style="stop-color:#939393"/>
   <stop offset="1" style="stop-color:#898989"/>
  </radialGradient>
  <radialGradient id="id14" gradientUnits="objectBoundingBox" cx="-50%" cy="-49.9997%" r="50%" fx="-50%" fy="-49.9997%">
   <stop offset="0" style="stop-color:#535354"/>
   <stop offset="0.458824" style="stop-color:#4D4D4E"/>
   <stop offset="1" style="stop-color:#484849"/>
  </radialGradient>
  <radialGradient id="id15" gradientUnits="objectBoundingBox" cx="-49.9998%" cy="-50%" r="50.0002%" fx="-49.9998%" fy="-50%">
   <stop offset="0" style="stop-color:#B5B5B6"/>
   <stop offset="0.458824" style="stop-color:#A9A9AA"/>
   <stop offset="1" style="stop-color:#9D9D9E"/>
  </radialGradient>
  <radialGradient id="id16" gradientUnits="objectBoundingBox" cx="-50.0003%" cy="-50%" r="50.0003%" fx="-50.0003%" fy="-50%">
   <stop offset="0" style="stop-color:#6C6C6C"/>
   <stop offset="0.458824" style="stop-color:#656565"/>
   <stop offset="1" style="stop-color:#5E5E5E"/>
  </radialGradient>
  <radialGradient id="id17" gradientUnits="objectBoundingBox" cx="-50.0003%" cy="-49.9997%" r="50.0003%" fx="-50.0003%" fy="-49.9997%">
   <stop offset="0" style="stop-color:#747475"/>
   <stop offset="0.458824" style="stop-color:#6C6C6D"/>
   <stop offset="1" style="stop-color:#656566"/>
  </radialGradient>
  <radialGradient id="id18" gradientUnits="objectBoundingBox" cx="-49.9998%" cy="-49.9997%" r="50.0002%" fx="-49.9998%" fy="-49.9997%">
   <stop offset="0" style="stop-color:#959595"/>
   <stop offset="0.458824" style="stop-color:#8B8B8B"/>
   <stop offset="1" style="stop-color:#828282"/>
  </radialGradient>
 </defs>
 <g id="Layer_x0020_1">
  <metadata id="CorelCorpID_0Corel-Layer"/>
  <g id="_924024224">
   <g>
    <path class="fil0" d="M25 191c0,-1 1,-1 1,-2l-3 -97c0,-3 2,-6 4,-7l121 -71c1,-1 3,-1 4,-1 1,0 3,0 4,1l67 41c1,0 2,0 2,0l-69 -42c-1,-1 -3,-1 -4,-1 -1,0 -3,0 -4,1l-123 71c-2,1 -4,4 -4,7l3 99z"/>
    <path class="fil1" d="M26 189c0,-1 1,-1 1,-2l-4 -95c0,-3 2,-6 4,-7l120 -70c1,-1 3,-1 4,-1 1,0 3,0 4,1l65 41c1,0 2,0 2,0l-67 -41c-1,-1 -3,-1 -4,-1 -1,0 -3,0 -4,1l-121 71c-2,1 -4,4 -4,7l3 97z"/>
    <path class="fil2" d="M28 187c0,-1 1,-1 1,-2l-4 -94c0,-2 2,-6 4,-7l119 -69c1,-1 2,-1 4,-1 1,0 3,0 4,1l64 40c1,0 2,0 2,0l-65 -41c-1,-1 -3,-1 -4,-1 -1,0 -3,0 -4,1l-120 70c-2,1 -4,4 -4,7l4 95z"/>
    <path class="fil3" d="M29 186c0,-1 1,-1 1,-2l-5 -92c0,-2 2,-5 4,-7l118 -69c1,-1 2,-1 4,-1 1,0 3,0 4,1l62 40c1,0 2,0 2,0l-64 -40c-1,-1 -2,-1 -4,-1 -1,0 -3,0 -4,1l-119 69c-2,1 -4,4 -4,7l4 94z"/>
    <path class="fil4" d="M30 184c0,-1 1,-1 1,-2l-5 -90c0,-2 2,-5 4,-7l117 -68c1,-1 2,-1 4,-1 1,0 3,0 4,1l61 39c1,0 1,0 2,0l-62 -40c-1,-1 -2,-1 -4,-1 -1,0 -3,0 -4,1l-118 69c-2,1 -4,4 -4,7l5 92z"/>
    <path class="fil5" d="M31 182c0,-1 1,-1 1,-2l-6 -88c0,-2 2,-5 4,-7l115 -67c1,-1 2,-1 4,-1 1,0 3,0 4,1l59 39c1,0 1,0 2,0l-61 -39c-1,-1 -2,-1 -4,-1 -1,0 -3,0 -4,1l-117 68c-2,1 -4,4 -4,7l5 90z"/>
    <path class="fil6" d="M32 180c0,-1 1,-1 1,-2l-6 -86c0,-2 2,-5 4,-7l114 -66c1,-1 2,-1 4,-1 1,0 3,0 4,1l58 39c1,0 1,0 2,0l-59 -39c-1,-1 -2,-1 -4,-1 -1,0 -3,0 -4,1l-115 67c-2,1 -4,4 -4,7l6 88z"/>
    <path class="fil7" d="M33 179c0,-1 1,-1 1,-2l-7 -84c0,-2 2,-5 4,-6l113 -66c1,-1 2,-1 4,-1 1,0 3,0 4,1l56 38c1,0 1,0 2,-1l-58 -39c-1,-1 -2,-1 -4,-1 -1,0 -3,0 -4,1l-114 66c-2,1 -4,4 -4,7l6 86z"/>
    <path class="fil8" d="M147 292c2,0 5,-1 6,-2l120 -68c1,-1 2,-3 2,-6 -1,-11 -13,-118 -13,-118 0,0 0,-2 0,-3 -1,-2 -2,-4 -4,-5l-47 -32c-1,0 -1,0 -2,1l47 32c2,1 3,3 3,5 0,0 0,2 0,3 0,0 12,103 13,115 0,3 -1,5 -2,6l-118 67c-1,0 -4,2 -6,2 0,0 0,0 0,0 0,0 0,0 0,0 -2,0 -105,-66 -105,-66 -2,-1 -4,-4 -4,-6l-3 -39c0,1 -1,1 -1,2l3 39c0,2 2,5 4,7 0,0 105,67 107,67 0,0 0,0 0,0 0,0 0,0 1,0z"/>
    <path class="fil9" d="M35 177c0,-1 1,-1 1,-2l-7 -83c0,-2 2,-5 4,-6l112 -65c1,-1 2,-1 4,-1 1,0 3,0 4,1l55 38c1,0 1,0 2,-1l-56 -38c-1,-1 -2,-1 -4,-1 -1,0 -3,0 -4,1l-113 66c-2,1 -4,4 -4,6l7 84z"/>
    <path class="fil10" d="M146 288c1,0 5,-1 6,-2l118 -67c1,-1 2,-3 2,-6 -1,-12 -13,-115 -13,-115 0,0 0,-2 0,-3 -1,-2 -2,-4 -3,-5l-47 -32c-1,0 -1,0 -2,1l46 32c2,1 3,3 3,5 0,0 0,2 0,3 0,0 12,99 13,112 0,3 0,5 -1,6l-116 65c-1,0 -5,2 -6,2 0,0 0,0 0,0 0,0 0,0 0,0 -2,0 -103,-64 -103,-64 -2,-1 -4,-4 -4,-6l-3 -38c0,1 -1,1 -1,2l3 39c0,2 2,5 4,6 0,0 102,66 105,66 0,0 0,0 0,0 0,0 0,0 0,0z"/>
    <path class="fil11" d="M36 175c0,-1 1,-1 1,-2l-7 -81c0,-2 2,-5 4,-6l110 -64c1,-1 2,-1 4,-1 1,0 3,0 4,1l53 37c1,0 1,0 2,-1l-55 -38c-1,-1 -2,-1 -4,-1 -1,0 -3,0 -4,1l-112 65c-2,1 -4,4 -4,6l7 83z"/>
    <path class="fil12" d="M146 284c1,0 5,-2 6,-2l116 -65c1,-1 2,-3 1,-6 -1,-13 -13,-112 -13,-112 0,0 0,-2 0,-3 -1,-2 -2,-4 -3,-5l-46 -32c-1,0 -1,0 -2,1l45 32c2,1 3,3 3,5 0,1 0,2 0,3 0,0 12,95 13,109 0,3 0,5 -1,6l-113 64c-1,0 -5,2 -6,2 0,0 0,0 0,0 0,0 0,0 0,0 -3,0 -101,-62 -101,-62 -2,-1 -4,-4 -4,-6l-3 -38c0,1 -1,1 -1,2l3 38c0,2 2,5 4,6 0,0 100,64 103,64 0,0 0,0 0,0 0,0 0,0 0,0z"/>
    <path class="fil13" d="M37 174c0,-1 1,-1 1,-2l-8 -79c0,-2 2,-5 4,-6l109 -64c1,-1 2,-1 4,-1 1,0 3,0 4,1l52 37c1,0 1,0 2,-1l-53 -37c-1,-1 -2,-1 -4,-1 -1,0 -3,0 -4,1l-110 64c-2,1 -4,4 -4,6l7 81z"/>
    <path class="fil14" d="M145 280c1,0 5,-2 6,-2l113 -64c1,0 1,-3 1,-6 -1,-14 -13,-109 -13,-109 0,0 0,-2 0,-3 -1,-2 -2,-4 -3,-5l-45 -32c-1,0 -1,0 -2,1l44 32c2,1 3,3 3,5 0,1 0,2 0,2 0,0 11,91 12,106 0,3 0,5 -1,5l-111 63c-1,0 -5,2 -6,2 0,0 0,0 0,0 0,0 0,0 0,0 -3,0 -99,-60 -99,-60 -2,-1 -4,-4 -4,-6l-4 -37c0,1 -1,1 -1,2l3 38c0,2 2,5 4,6 0,0 98,62 101,62 0,0 0,0 0,0 0,0 0,0 0,0z"/>
    <path class="fil15" d="M38 172c0,-1 1,-1 1,-2l-8 -77c0,-2 2,-5 4,-6l108 -63c1,-1 2,-1 4,-1 1,0 3,0 4,1l50 37c1,0 1,0 2,-1l-52 -37c-1,-1 -2,-1 -4,-1 -1,0 -3,0 -4,1l-109 64c-2,1 -4,4 -4,6l8 79z"/>
    <path class="fil16" d="M144 276c1,0 5,-2 6,-2l111 -63c1,0 1,-3 1,-5 -1,-15 -12,-106 -12,-106 0,-1 0,-2 0,-2 -1,-2 -2,-4 -3,-5l-44 -32c-1,0 -1,0 -2,1l44 32c1,1 3,3 3,4 0,1 0,2 0,2 0,0 11,87 12,103 0,3 0,5 -1,5l-109 62c0,0 -5,2 -6,2 0,0 0,0 0,0 0,0 0,0 0,0 -3,0 -97,-59 -97,-59 -2,-1 -4,-4 -4,-6l-4 -37c0,1 -1,1 -1,2l4 37c0,2 2,5 4,6 0,0 96,60 99,60 0,0 0,0 0,0 0,0 0,0 0,0z"/>
    <path class="fil17" d="M39 171c0,-1 1,-1 1,-2l-9 -76c0,-2 2,-5 4,-6l107 -62c1,-1 2,-1 4,-1 1,0 3,0 4,1l49 36c1,0 1,0 2,-1l-50 -37c-1,-1 -2,-1 -4,-1 -1,0 -3,0 -4,1l-108 63c-2,1 -4,4 -4,6l8 77z"/>
    <path class="fil18" d="M144 272c1,0 5,-2 6,-2l109 -62c1,0 1,-2 1,-5 -1,-16 -12,-103 -12,-103 0,-1 0,-2 0,-2 -1,-2 -2,-4 -3,-4l-44 -32c-1,0 -1,0 -2,1l43 32c1,1 3,3 3,4 0,1 0,2 0,2 0,0 11,83 12,100 0,3 0,5 -1,5l-107 61c0,0 -5,2 -6,2 0,0 0,0 0,0 0,0 0,0 0,0 -3,0 -95,-57 -95,-57 -2,-1 -4,-4 -4,-6l-4 -36c0,1 -1,1 -1,2l4 37c0,2 2,5 4,6 0,0 94,59 97,59 0,0 0,0 0,0 0,0 0,0 0,0z"/>
    <path class="fil19" d="M40 169c0,-1 1,-1 1,-2l-9 -74c0,-2 2,-5 4,-6l105 -61c1,-1 2,-1 4,-1 1,0 3,0 4,1l48 36c1,0 1,0 2,-1l-49 -36c-1,-1 -2,-1 -4,-1 -1,0 -3,0 -4,1l-107 62c-2,1 -4,4 -4,6l9 76z"/>
    <path class="fil20" d="M143 268c0,0 0,0 0,0 0,0 0,0 0,0 1,0 5,-2 6,-2l107 -61c1,0 1,-2 1,-5 -1,-17 -12,-100 -12,-100 0,-1 0,-2 0,-2 -1,-2 -2,-3 -3,-4l-43 -32c-1,0 -1,0 -2,1l42 32c1,1 3,2 3,4 0,1 0,2 0,2 0,0 11,79 12,97 0,3 0,5 0,5l-105 59 -5 3c0,0 0,0 0,0 -3,0 -93,-55 -93,-55 -2,-1 -4,-4 -4,-6l-4 -35c0,1 -1,1 -1,2l4 36c0,2 2,5 4,6 0,0 92,57 95,57z"/>
    <path class="fil21" d="M41 168c0,-1 1,-1 1,-2l-10 -72c0,-2 2,-5 3,-6l104 -61c1,-1 2,-1 3,-1 1,0 3,0 3,1l46 36c1,0 1,0 2,-1l-48 -36c-1,-1 -2,-1 -4,-1 -1,0 -3,0 -4,1l-105 61c-2,1 -4,4 -4,6l9 74z"/>
    <path class="fil22" d="M142 264c0,0 0,0 0,0l5 -3 105 -59c0,0 1,-2 0,-5 -1,-18 -12,-97 -12,-97 0,-1 0,-2 0,-2 -1,-2 -2,-3 -3,-4l-42 -32c-1,0 -1,0 -2,1l41 32c1,1 3,2 3,4 0,1 0,2 0,2 0,0 10,75 12,94 0,3 0,5 0,5l-103 58 -5 3c0,0 0,0 0,0 -3,0 -91,-53 -91,-53 -2,-1 -3,-4 -3,-6l-5 -35c0,0 -1,1 -1,2l4 35c0,2 2,5 4,6 0,0 90,55 93,55z"/>
    <path class="fil23" d="M43 166c0,-1 1,-1 1,-1l-10 -71c0,-2 2,-5 3,-6l103 -60c1,-1 2,-1 3,-1 1,0 2,0 3,1l45 35c1,0 1,0 2,-1l-46 -36c-1,-1 -2,-1 -3,-1 -1,0 -3,0 -3,1l-104 61c-2,1 -3,4 -3,6l10 72z"/>
    <path class="fil24" d="M142 260c0,0 0,0 0,0l5 -3 103 -58c0,0 0,-2 0,-5 -1,-19 -12,-94 -12,-94 0,-1 0,-2 0,-2 -1,-2 -2,-3 -3,-4l-41 -32c-1,0 -1,0 -2,1l40 31c2,1 3,4 3,6 0,0 13,94 12,96l-106 60c0,0 0,0 0,0 -4,0 -89,-51 -89,-51 -2,-1 -3,-4 -3,-6l-5 -34c0,0 -1,1 -1,1l5 35c0,2 2,5 3,6 0,0 87,53 91,53z"/>
    <path class="fil25" d="M44 165c37,-48 89,-83 148,-101l-45 -35c-1,-1 -2,-1 -3,-1 -1,0 -2,0 -3,1l-103 60c-2,1 -3,4 -3,6l10 71z"/>
    <path class="fil26" d="M141 256c0,0 0,0 0,0l106 -60c2,-1 -12,-96 -12,-96 0,-2 -2,-5 -3,-6l-40 -31c-59,18 -111,54 -148,101l5 34c0,2 2,5 3,6 0,0 85,51 89,51z"/>
    <path class="fil27" d="M22 219c0,2 2,5 4,7l120 69c2,1 6,1 8,0l120 -69c2,-1 4,-4 4,-7l0 -138c0,-2 -2,-5 -4,-7l-120 -69c-2,-1 -6,-1 -8,0l-120 69c-2,1 -4,4 -4,7l0 138z"/>
    <path class="fil28" d="M27 219c0,2 2,5 4,6l118 68c2,1 5,1 7,0l118 -68c2,-1 4,-4 4,-6l0 -136c0,-2 -2,-5 -4,-6l-118 -68c-2,-1 -5,-1 -7,0l-118 68c-2,1 -4,4 -4,6l0 136z"/>
   </g>
   <g>
    <g>
     <g>
      <polygon class="fil29" points="163,127 163,202 161,202 161,127 158,127 158,210 167,210 167,127 "/>
      <polygon class="fil30" points="141,214 167,214 167,208 141,208 "/>
      <path class="fil31" d="M143 191l5 1c0,0 -18,-38 -23,-47 -5,-9 -10,-9 -10,-9 0,0 -21,0 -30,0 -9,0 -9,10 -9,10l0 33 5 0 0 -32c0,-6 5,-6 5,-6 0,0 21,0 26,0 5,0 8,4 9,6 1,2 16,32 16,32l0 1 -1 0 -8 -9 -3 3 11 13 -24 0 0 6 28 0 0 0 3 0 1 0z"/>
      <g>
       <path class="fil32" d="M114 182c0,0 -2,-5 -4,-4 -2,0 -19,0 -19,0l1 4 22 0z"/>
       <path class="fil33" d="M82 163l0 28 36 0 -5 -10 -18 0c0,0 -4,0 -5,-6 -1,-6 -2,-12 -2,-12 0,0 -2,-3 -6,0z"/>
      </g>
      <g>
       <path class="fil34" d="M72 206l0 5c0,3 2,5 5,5l67 0c3,0 5,-2 5,-5l0 -5 -77 0z"/>
       <path class="fil35" d="M95 189c0,0 -4,1 -6,-4l-3 -8 -10 0c-3,0 -5,2 -5,5l0 24 77 0 -3 -16 -50 0z"/>
      </g>
      <g>
       <path class="fil36" d="M78 207l0 9 17 0c1,-2 2,-5 2,-8 0,-11 -9,-19 -19,-19 -10,0 -19,8 -19,18l19 0z"/>
       <path class="fil37" d="M78 207l0 9 13 0c1,-2 2,-5 2,-8 0,-9 -7,-16 -16,-16 -8,0 -15,7 -16,15l16 0z"/>
       <g>
        <path class="fil38" d="M78 193c-8,0 -14,6 -14,14 0,4 2,8 4,10l20 -20c-3,-3 -6,-4 -10,-4z"/>
        <path class="fil39" d="M88 198l-20 20c3,3 6,4 10,4 8,0 14,-6 14,-14 0,-4 -2,-7 -4,-10z"/>
       </g>
       <g>
        <path class="fil38" d="M73 212c1,1 3,2 5,2 4,0 7,-3 7,-7 0,-2 -1,-3 -2,-5l-10 9z"/>
        <path class="fil39" d="M78 201c-4,0 -7,3 -7,7 0,2 1,4 2,5l10 -9c-1,-1 -3,-2 -5,-2z"/>
       </g>
       <g>
        <path class="fil40" d="M75 208c0,-1 1,-3 3,-3 1,0 1,0 2,1l1 -1c-1,-1 -2,-1 -3,-1 -2,0 -4,2 -4,4 0,1 1,2 1,3l1 -1c-1,0 -1,-1 -1,-2z"/>
        <path class="fil41" d="M80 206c0,0 1,1 1,2 0,1 -1,3 -3,3 -1,0 -1,0 -2,-1l-1 1c1,1 2,1 3,1 2,0 4,-2 4,-4 0,-1 0,-2 -1,-3l-1 1z"/>
       </g>
      </g>
      <g>
       <path class="fil36" d="M141 207l0 9 -17 0c-1,-2 -2,-5 -2,-8 0,-11 9,-19 19,-19 10,0 19,8 19,18l-19 0z"/>
       <path class="fil37" d="M141 207l0 9 -13 0c-1,-2 -2,-5 -2,-8 0,-9 7,-16 16,-16 8,0 15,7 16,15l-16 0z"/>
       <g>
        <path class="fil38" d="M141 193c-8,0 -14,6 -14,14 0,4 2,8 4,10l20 -20c-3,-3 -6,-4 -10,-4z"/>
        <path class="fil39" d="M152 198l-20 20c3,3 6,4 10,4 8,0 14,-6 14,-14 0,-4 -2,-7 -4,-10z"/>
       </g>
       <g>
        <path class="fil38" d="M137 212c1,1 3,2 5,2 4,0 7,-3 7,-7 0,-2 -1,-3 -2,-5l-10 9z"/>
        <path class="fil39" d="M141 201c-4,0 -7,3 -7,7 0,2 1,4 2,5l10 -9c-1,-1 -3,-2 -5,-2z"/>
       </g>
       <g>
        <path class="fil40" d="M139 208c0,-1 1,-3 3,-3 1,0 1,0 2,1l1 -1c-1,-1 -2,-1 -3,-1 -2,0 -4,2 -4,4 0,1 1,2 1,3l1 -1c-1,0 -1,-1 -1,-2z"/>
        <path class="fil41" d="M143 206c0,0 1,1 1,2 0,1 -1,3 -3,3 -1,0 -1,0 -2,-1l-1 1c1,1 2,1 3,1 2,0 4,-2 4,-4 0,-1 0,-2 -1,-3l-1 1z"/>
       </g>
      </g>
      <g>
       <g>
        <polygon class="fil42" points="173,138 152,138 152,140 173,140 "/>
        <polygon class="fil43" points="152,140 152,142 173,142 173,140 "/>
       </g>
       <polygon class="fil44" points="169,142 167,143 167,145 171,142 "/>
       <polygon class="fil44" points="156,142 158,143 158,145 154,142 "/>
      </g>
      <g>
       <g>
        <polygon class="fil42" points="173,125 152,125 152,127 173,127 "/>
        <polygon class="fil43" points="152,127 152,129 173,129 173,127 "/>
       </g>
       <polygon class="fil44" points="169,129 167,131 167,132 171,129 "/>
       <polygon class="fil44" points="156,129 158,131 158,132 154,129 "/>
      </g>
      <polygon class="fil45" points="117,174 130,166 131,168 118,176 "/>
     </g>
     <path class="fil46" d="M156 147l13 0c1,0 1,1 1,1l0 5 3 0 0 6 -3 0 0 -1c0,1 -1,1 -1,1l-13 0c-1,0 -1,-1 -1,-1l0 -10c0,-1 1,-1 1,-1z"/>
     <g>
      <path class="fil46" d="M172 154c0,-1 1,-2 2,-2l40 0c1,0 2,1 2,2l0 2 -45 0 0 -2z"/>
      <path class="fil39" d="M217 156l0 2c0,1 -1,2 -2,2l-40 0c-1,0 -2,-1 -2,-2l0 -2 45 0z"/>
     </g>
    </g>
    <g>
     <g>
      <polygon class="fil47" points="173,145 243,145 243,143 173,143 "/>
      <polygon class="fil47" points="173,152 243,152 243,150 173,150 "/>
      <polygon class="fil48" points="234,147 243,147 243,145 234,145 "/>
      <polygon class="fil49" points="234,150 244,150 244,147 234,147 "/>
      <polygon class="fil48" points="204,147 212,147 212,145 204,145 "/>
      <polygon class="fil49" points="203,150 213,150 213,147 203,147 "/>
      <polygon class="fil48" points="172,147 181,147 181,145 172,145 "/>
      <polygon class="fil49" points="172,150 182,150 182,147 172,147 "/>
     </g>
     <g>
      <g>
       <g>
        <g>
         <polygon class="fil50" points="243,123 243,144 231,144 231,123 "/>
         <polygon class="fil51" points="219,123 231,123 231,144 219,144 "/>
        </g>
        <polygon class="fil52" points="238,127 241,127 241,123 238,123 "/>
        <polygon class="fil52" points="221,127 224,127 224,123 221,123 "/>
        <polygon class="fil49" points="235,138 234,138 236,135 237,138 236,138 236,141 239,141 239,138 238,138 239,135 241,138 240,138 240,141 241,141 241,142 234,142 234,141 235,141 "/>
       </g>
       <rect class="fil53 str0" transform="matrix(-0.384118 0.000511806 0.000511806 0.384118 232.78 124.163)" width="9.50004" height="3.12492" rx="4" ry="4"/>
      </g>
      <g>
       <g>
        <g>
         <polygon class="fil50" points="219,123 219,144 208,144 208,123 "/>
         <polygon class="fil51" points="196,123 208,123 208,144 196,144 "/>
        </g>
        <polygon class="fil52" points="215,127 217,127 217,123 215,123 "/>
        <polygon class="fil52" points="198,127 201,127 201,123 198,123 "/>
        <polygon class="fil49" points="212,138 211,138 212,135 214,138 213,138 213,141 216,141 216,138 214,138 216,135 218,138 217,138 217,141 217,141 217,142 211,142 211,141 212,141 "/>
       </g>
       <rect class="fil53 str0" transform="matrix(-0.384118 0.000511806 0.000511806 0.384118 209.512 124.163)" width="9.50004" height="3.12492" rx="4" ry="4"/>
      </g>
      <g>
       <g>
        <g>
         <polygon class="fil50" points="196,123 196,144 185,144 185,123 "/>
         <polygon class="fil51" points="173,123 185,123 185,144 173,144 "/>
        </g>
        <polygon class="fil52" points="191,127 194,127 194,123 191,123 "/>
        <polygon class="fil52" points="175,127 177,127 177,123 175,123 "/>
        <polygon class="fil49" points="189,138 187,138 189,135 191,138 190,138 190,141 193,141 193,138 191,138 193,135 195,138 193,138 193,141 194,141 194,142 188,142 188,141 189,141 "/>
       </g>
       <rect class="fil53 str0" transform="matrix(-0.384118 0.000511806 0.000511806 0.384118 186.386 124.163)" width="9.50004" height="3.12492" rx="4" ry="4"/>
      </g>
     </g>
     <g>
      <g>
       <g>
        <g>
         <polygon class="fil50" points="243,102 243,123 231,123 231,102 "/>
         <polygon class="fil51" points="219,102 231,102 231,123 219,123 "/>
        </g>
        <polygon class="fil52" points="238,106 241,106 241,102 238,102 "/>
        <polygon class="fil52" points="221,106 224,106 224,102 221,102 "/>
        <polygon class="fil49" points="235,117 234,117 236,114 237,117 236,117 236,120 239,120 239,117 238,117 239,114 241,117 240,117 240,120 241,120 241,121 234,121 234,120 235,120 "/>
       </g>
       <rect class="fil53 str0" transform="matrix(-0.384118 0.000511806 0.000511806 0.384118 232.78 103.395)" width="9.50004" height="3.12492" rx="4" ry="4"/>
      </g>
      <g>
       <g>
        <g>
         <polygon class="fil50" points="219,102 219,123 208,123 208,102 "/>
         <polygon class="fil51" points="196,102 208,102 208,123 196,123 "/>
        </g>
        <polygon class="fil52" points="215,106 217,106 217,102 215,102 "/>
        <polygon class="fil52" points="198,106 201,106 201,102 198,102 "/>
        <polygon class="fil49" points="212,117 211,117 212,114 214,117 213,117 213,120 216,120 216,117 214,117 216,114 218,117 217,117 217,120 217,120 217,121 211,121 211,120 212,120 "/>
       </g>
       <rect class="fil53 str0" transform="matrix(-0.384118 0.000511806 0.000511806 0.384118 209.512 103.395)" width="9.50004" height="3.12492" rx="4" ry="4"/>
      </g>
      <g>
       <g>
        <g>
         <polygon class="fil50" points="196,102 196,123 185,123 185,102 "/>
         <polygon class="fil51" points="173,102 185,102 185,123 173,123 "/>
        </g>
        <polygon class="fil52" points="191,106 194,106 194,102 191,102 "/>
        <polygon class="fil52" points="175,106 177,106 177,102 175,102 "/>
        <polygon class="fil49" points="189,117 187,117 189,114 191,117 190,117 190,120 193,120 193,117 191,117 193,114 195,117 193,117 193,120 194,120 194,121 188,121 188,120 189,120 "/>
       </g>
       <rect class="fil53 str0" transform="matrix(-0.384118 0.000511806 0.000511806 0.384118 186.386 103.395)" width="9.50004" height="3.12492" rx="4" ry="4"/>
      </g>
     </g>
     <g>
      <g>
       <g>
        <g>
         <polygon class="fil50" points="243,81 243,102 231,102 231,81 "/>
         <polygon class="fil51" points="219,81 231,81 231,102 219,102 "/>
        </g>
        <polygon class="fil52" points="238,86 241,86 241,81 238,81 "/>
        <polygon class="fil52" points="221,86 224,86 224,81 221,81 "/>
        <polygon class="fil49" points="235,97 234,97 236,94 237,97 236,97 236,100 239,100 239,97 238,97 239,94 241,97 240,97 240,100 241,100 241,101 234,101 234,100 235,100 "/>
       </g>
       <rect class="fil53 str0" transform="matrix(-0.384118 0.000511806 0.000511806 0.384118 232.78 82.7188)" width="9.50004" height="3.12492" rx="4" ry="4"/>
      </g>
      <g>
       <g>
        <g>
         <polygon class="fil50" points="219,81 219,102 208,102 208,81 "/>
         <polygon class="fil51" points="196,81 208,81 208,102 196,102 "/>
        </g>
        <polygon class="fil52" points="215,86 217,86 217,81 215,81 "/>
        <polygon class="fil52" points="198,86 201,86 201,81 198,81 "/>
        <polygon class="fil49" points="212,97 211,97 212,94 214,97 213,97 213,100 216,100 216,97 214,97 216,94 218,97 217,97 217,100 217,100 217,101 211,101 211,100 212,100 "/>
       </g>
       <rect class="fil53 str0" transform="matrix(-0.384118 0.000511806 0.000511806 0.384118 209.512 82.7188)" width="9.50004" height="3.12492" rx="4" ry="4"/>
      </g>
      <g>
       <g>
        <g>
         <polygon class="fil50" points="196,81 196,102 185,102 185,81 "/>
         <polygon class="fil51" points="173,81 185,81 185,102 173,102 "/>
        </g>
        <polygon class="fil52" points="191,86 194,86 194,81 191,81 "/>
        <polygon class="fil52" points="175,86 177,86 177,81 175,81 "/>
        <polygon class="fil49" points="189,97 187,97 189,94 191,97 190,97 190,100 193,100 193,97 191,97 193,94 195,97 193,97 193,100 194,100 194,101 188,101 188,100 189,100 "/>
       </g>
       <rect class="fil53 str0" transform="matrix(-0.384118 0.000511806 0.000511806 0.384118 186.386 82.7188)" width="9.50004" height="3.12492" rx="4" ry="4"/>
      </g>
     </g>
    </g>
   </g>
  </g>
 </g>
</svg>
