<?xml version="1.0" encoding="UTF-8"?>
<!DOCTYPE svg PUBLIC "-//W3C//DTD SVG 1.1//EN" "http://www.w3.org/Graphics/SVG/1.1/DTD/svg11.dtd">
<!-- Creator: CorelDRAW X6 -->
<svg xmlns="http://www.w3.org/2000/svg" xml:space="preserve" width="200px" height="200px" version="1.1" style="shape-rendering:geometricPrecision; text-rendering:geometricPrecision; image-rendering:optimizeQuality; fill-rule:evenodd; clip-rule:evenodd"
viewBox="0 0 200 200"
 xmlns:xlink="http://www.w3.org/1999/xlink">
 <defs>
  <style type="text/css">
   <![CDATA[
    .str2 {stroke:#1D3649;stroke-width:0.500033}
    .str0 {stroke:#213444;stroke-width:0.500033}
    .str1 {stroke:#A6B83C;stroke-width:0.500033}
    .fil32 {fill:none;fill-rule:nonzero}
    .fil43 {fill:#1D3649}
    .fil27 {fill:#E7E7E7}
    .fil30 {fill:#172636;fill-rule:nonzero}
    .fil33 {fill:#1E3047;fill-rule:nonzero}
    .fil37 {fill:#26385B;fill-rule:nonzero}
    .fil38 {fill:#293C51;fill-rule:nonzero}
    .fil31 {fill:#344453;fill-rule:nonzero}
    .fil29 {fill:#415E79;fill-rule:nonzero}
    .fil42 {fill:#425B75;fill-rule:nonzero}
    .fil26 {fill:#430D22;fill-rule:nonzero}
    .fil36 {fill:#44567D;fill-rule:nonzero}
    .fil24 {fill:#4A0E25;fill-rule:nonzero}
    .fil22 {fill:#501028;fill-rule:nonzero}
    .fil20 {fill:#57112C;fill-rule:nonzero}
    .fil18 {fill:#5E122F;fill-rule:nonzero}
    .fil16 {fill:#641332;fill-rule:nonzero}
    .fil14 {fill:#6B1536;fill-rule:nonzero}
    .fil12 {fill:#711639;fill-rule:nonzero}
    .fil10 {fill:#78173C;fill-rule:nonzero}
    .fil8 {fill:#7F193F;fill-rule:nonzero}
    .fil35 {fill:#9FB136;fill-rule:nonzero}
    .fil40 {fill:#BE8C52;fill-rule:nonzero}
    .fil34 {fill:#C1D354;fill-rule:nonzero}
    .fil39 {fill:#D49F67;fill-rule:nonzero}
    .fil41 {fill:#916333;fill-rule:nonzero}
    .fil28 {fill:url(#id0)}
    .fil25 {fill:url(#id1)}
    .fil23 {fill:url(#id2)}
    .fil21 {fill:url(#id3)}
    .fil19 {fill:url(#id4)}
    .fil17 {fill:url(#id5)}
    .fil15 {fill:url(#id6)}
    .fil13 {fill:url(#id7)}
    .fil11 {fill:url(#id8)}
    .fil9 {fill:url(#id9)}
    .fil7 {fill:url(#id10)}
    .fil6 {fill:url(#id11)}
    .fil5 {fill:url(#id12)}
    .fil4 {fill:url(#id13)}
    .fil3 {fill:url(#id14)}
    .fil2 {fill:url(#id15)}
    .fil1 {fill:url(#id16)}
    .fil0 {fill:url(#id17)}
   ]]>
  </style>
  <linearGradient id="id0" gradientUnits="userSpaceOnUse" x1="30.6531" y1="200.412" x2="166.287" y2="0.799088">
   <stop offset="0" style="stop-color:white"/>
   <stop offset="0.65098" style="stop-color:#EFEFEF"/>
   <stop offset="1" style="stop-color:#DEDEDE"/>
  </linearGradient>
  <radialGradient id="id1" gradientUnits="objectBoundingBox" cx="150%" cy="-49.9997%" r="50%" fx="150%" fy="-49.9997%">
   <stop offset="0" style="stop-color:#535354"/>
   <stop offset="0.458824" style="stop-color:#4D4D4E"/>
   <stop offset="1" style="stop-color:#484849"/>
  </radialGradient>
  <radialGradient id="id2" gradientUnits="objectBoundingBox" cx="150%" cy="-49.9997%" r="50.0003%" fx="150%" fy="-49.9997%">
   <stop offset="0" style="stop-color:#5B5B5C"/>
   <stop offset="0.458824" style="stop-color:#555556"/>
   <stop offset="1" style="stop-color:#4F4F50"/>
  </radialGradient>
  <radialGradient id="id3" gradientUnits="objectBoundingBox" cx="150%" cy="-49.9997%" r="50.0003%" fx="150%" fy="-49.9997%">
   <stop offset="0" style="stop-color:#636364"/>
   <stop offset="0.458824" style="stop-color:#5C5C5D"/>
   <stop offset="1" style="stop-color:#565657"/>
  </radialGradient>
  <radialGradient id="id4" gradientUnits="objectBoundingBox" cx="150%" cy="-50%" r="50.0003%" fx="150%" fy="-50%">
   <stop offset="0" style="stop-color:#6C6C6C"/>
   <stop offset="0.458824" style="stop-color:#656565"/>
   <stop offset="1" style="stop-color:#5E5E5E"/>
  </radialGradient>
  <radialGradient id="id5" gradientUnits="objectBoundingBox" cx="150%" cy="-49.9997%" r="50.0003%" fx="150%" fy="-49.9997%">
   <stop offset="0" style="stop-color:#747475"/>
   <stop offset="0.458824" style="stop-color:#6C6C6D"/>
   <stop offset="1" style="stop-color:#656566"/>
  </radialGradient>
  <radialGradient id="id6" gradientUnits="objectBoundingBox" cx="150%" cy="-49.9997%" r="50.0002%" fx="150%" fy="-49.9997%">
   <stop offset="0" style="stop-color:#7C7C7D"/>
   <stop offset="0.458824" style="stop-color:#747475"/>
   <stop offset="1" style="stop-color:#6C6C6D"/>
  </radialGradient>
  <radialGradient id="id7" gradientUnits="objectBoundingBox" cx="150%" cy="-50%" r="50%" fx="150%" fy="-50%">
   <stop offset="0" style="stop-color:#848485"/>
   <stop offset="0.458824" style="stop-color:#7B7B7C"/>
   <stop offset="1" style="stop-color:#737374"/>
  </radialGradient>
  <radialGradient id="id8" gradientUnits="objectBoundingBox" cx="150%" cy="-50%" r="50%" fx="150%" fy="-50%">
   <stop offset="0" style="stop-color:#8C8C8D"/>
   <stop offset="0.458824" style="stop-color:#838384"/>
   <stop offset="1" style="stop-color:#7A7A7B"/>
  </radialGradient>
  <radialGradient id="id9" gradientUnits="objectBoundingBox" cx="150%" cy="-49.9997%" r="50.0002%" fx="150%" fy="-49.9997%">
   <stop offset="0" style="stop-color:#959595"/>
   <stop offset="0.458824" style="stop-color:#8B8B8B"/>
   <stop offset="1" style="stop-color:#828282"/>
  </radialGradient>
  <radialGradient id="id10" gradientUnits="objectBoundingBox" cx="150%" cy="-50%" r="50%" fx="150%" fy="-50%">
   <stop offset="0" style="stop-color:#9D9D9D"/>
   <stop offset="0.458824" style="stop-color:#939393"/>
   <stop offset="1" style="stop-color:#898989"/>
  </radialGradient>
  <radialGradient id="id11" gradientUnits="objectBoundingBox" cx="150%" cy="-49.9997%" r="50.0002%" fx="150%" fy="-49.9997%">
   <stop offset="0" style="stop-color:#A5A5A5"/>
   <stop offset="0.458824" style="stop-color:#9A9A9A"/>
   <stop offset="1" style="stop-color:#909090"/>
  </radialGradient>
  <radialGradient id="id12" gradientUnits="objectBoundingBox" cx="150%" cy="-49.9997%" r="50%" fx="150%" fy="-49.9997%">
   <stop offset="0" style="stop-color:#ADADAE"/>
   <stop offset="0.458824" style="stop-color:#A2A2A2"/>
   <stop offset="1" style="stop-color:#979797"/>
  </radialGradient>
  <radialGradient id="id13" gradientUnits="objectBoundingBox" cx="150%" cy="-50%" r="50.0002%" fx="150%" fy="-50%">
   <stop offset="0" style="stop-color:#B5B5B6"/>
   <stop offset="0.458824" style="stop-color:#A9A9AA"/>
   <stop offset="1" style="stop-color:#9D9D9E"/>
  </radialGradient>
  <radialGradient id="id14" gradientUnits="objectBoundingBox" cx="150%" cy="-49.9998%" r="50.0002%" fx="150%" fy="-49.9998%">
   <stop offset="0" style="stop-color:#BDBDBE"/>
   <stop offset="0.458824" style="stop-color:#B0B0B1"/>
   <stop offset="1" style="stop-color:#A4A4A5"/>
  </radialGradient>
  <radialGradient id="id15" gradientUnits="objectBoundingBox" cx="150%" cy="-50%" r="50%" fx="150%" fy="-50%">
   <stop offset="0" style="stop-color:#C6C6C6"/>
   <stop offset="0.458824" style="stop-color:#B8B8B8"/>
   <stop offset="1" style="stop-color:#ABABAB"/>
  </radialGradient>
  <radialGradient id="id16" gradientUnits="objectBoundingBox" cx="150%" cy="-49.9998%" r="50%" fx="150%" fy="-49.9998%">
   <stop offset="0" style="stop-color:#CECECE"/>
   <stop offset="0.458824" style="stop-color:silver"/>
   <stop offset="1" style="stop-color:#B2B2B2"/>
  </radialGradient>
  <radialGradient id="id17" gradientUnits="objectBoundingBox" cx="150%" cy="-49.9998%" r="50%" fx="150%" fy="-49.9998%">
   <stop offset="0" style="stop-color:#D6D6D6"/>
   <stop offset="0.458824" style="stop-color:#C7C7C7"/>
   <stop offset="1" style="stop-color:#B9B9B9"/>
  </radialGradient>
 </defs>
 <g id="Layer_x0020_1">
  <metadata id="CorelCorpID_0Corel-Layer"/>
  <g id="_1143745552">
   <path class="fil0" d="M183 127c0,0 -1,-1 -1,-1l2 -65c0,-2 -1,-4 -3,-5l-81 -47c-1,0 -2,-1 -3,-1 -1,0 -2,0 -3,1l-45 27c-1,0 -1,0 -2,0l46 -28c1,0 2,-1 3,-1 1,0 2,0 3,1l82 48c1,1 3,3 3,5l-2 66z"/>
   <path class="fil1" d="M182 126c0,0 -1,-1 -1,-1l2 -63c0,-2 -1,-4 -3,-5l-80 -47c-1,0 -2,-1 -3,-1 -1,0 -2,0 -3,1l-44 27c-1,0 -1,0 -2,0l45 -27c1,0 2,-1 3,-1 1,0 2,0 3,1l81 47c1,1 3,3 3,5l-2 65z"/>
   <path class="fil2" d="M181 125c0,0 -1,-1 -1,-1l3 -62c0,-2 -1,-4 -3,-5l-79 -46c-1,0 -2,-1 -3,-1 -1,0 -2,0 -3,1l-42 27c-1,0 -1,0 -2,0l44 -27c1,0 2,-1 3,-1 1,0 2,0 3,1l80 47c1,1 3,3 3,5l-2 63z"/>
   <path class="fil3" d="M181 124c0,0 -1,-1 -1,-1l3 -61c0,-2 -1,-4 -3,-4l-78 -46c-1,0 -2,-1 -3,-1 -1,0 -2,0 -3,1l-41 26c-1,0 -1,0 -2,0l42 -27c1,0 2,-1 3,-1 1,0 2,0 3,1l79 46c1,1 3,3 3,5l-3 62z"/>
   <path class="fil4" d="M180 123c0,0 -1,-1 -1,-1l3 -60c0,-2 -1,-4 -3,-4l-77 -45c-1,0 -2,-1 -3,-1 -1,0 -2,0 -3,1l-40 26c0,0 -1,0 -1,0l41 -26c1,0 2,-1 3,-1 1,0 2,0 3,1l78 46c1,1 3,3 3,4l-3 61z"/>
   <path class="fil5" d="M179 121c0,0 -1,-1 -1,-1l4 -58c0,-2 -1,-4 -3,-4l-77 -45c-1,0 -2,-1 -3,-1 -1,0 -2,0 -3,1l-39 26c0,0 -1,0 -1,0l40 -26c1,0 2,-1 3,-1 1,0 2,0 3,1l77 45c1,1 3,3 3,4l-3 60z"/>
   <path class="fil6" d="M178 120c0,0 -1,-1 -1,-1l4 -57c0,-2 -1,-4 -3,-4l-76 -44c-1,0 -2,-1 -3,-1 -1,0 -2,0 -3,1l-38 26c0,0 -1,0 -1,0l39 -26c1,0 2,-1 3,-1 1,0 2,0 3,1l77 45c1,1 3,3 3,4l-4 58z"/>
   <path class="fil7" d="M178 119c0,0 -1,-1 -1,-1l4 -56c0,-2 -1,-4 -2,-4l-75 -44c-1,0 -2,-1 -2,-1 -1,0 -2,0 -2,1l-37 25c0,0 -1,0 -1,0l38 -26c1,0 2,-1 3,-1 1,0 2,0 3,1l76 44c1,1 3,3 3,4l-4 57z"/>
   <path class="fil8" d="M102 194c-1,0 -3,-1 -4,-1l-80 -45c-1,0 -1,-2 -1,-4 0,-7 9,-79 9,-79 0,0 0,-2 0,-2 0,-1 1,-3 2,-4l32 -21c0,0 1,0 1,0l-31 21c-1,1 -2,2 -2,3 0,0 0,2 0,2 0,0 -8,69 -9,77 0,2 0,3 1,4l78 44c1,0 3,1 4,1 0,0 0,0 0,0 0,0 0,0 0,0 1,0 70,-44 70,-44 1,-1 2,-3 2,-4l2 -26c0,0 1,1 1,1l-2 26c0,2 -1,4 -3,4 0,0 -70,45 -71,45 0,0 0,0 0,0 0,0 0,0 0,0z"/>
   <path class="fil9" d="M177 118c0,0 -1,-1 -1,-1l5 -55c0,-2 -1,-3 -2,-4l-74 -43c-1,0 -2,-1 -2,-1 -1,0 -2,0 -2,1l-36 25c0,0 -1,0 -1,0l37 -25c1,0 2,-1 2,-1 1,0 2,0 2,1l75 44c1,1 2,3 2,4l-4 56z"/>
   <path class="fil10" d="M102 192c-1,0 -3,-1 -4,-1l-78 -44c-1,0 -1,-2 -1,-4 0,-8 9,-77 9,-77 0,0 0,-1 0,-2 0,-1 1,-3 2,-3l31 -21c0,0 1,0 1,0l-31 21c-1,1 -2,2 -2,3 0,0 0,1 0,2 0,0 -8,66 -8,75 0,2 0,3 1,4l77 43c0,0 3,1 4,1 0,0 0,0 0,0 0,0 0,0 0,0 2,0 68,-42 68,-42 1,-1 2,-3 2,-4l2 -25c0,0 1,1 1,1l-2 26c0,2 -1,4 -2,4 0,0 -68,44 -70,44 0,0 0,0 0,0 0,0 0,0 0,0z"/>
   <path class="fil11" d="M176 117c0,0 -1,-1 -1,-1l5 -54c0,-2 -1,-3 -2,-4l-73 -43c-1,0 -2,-1 -2,-1 -1,0 -2,0 -2,1l-35 25c0,0 -1,0 -1,0l36 -25c1,0 2,-1 2,-1 1,0 2,0 2,1l74 43c1,1 2,3 2,4l-5 55z"/>
   <path class="fil12" d="M103 189c-1,0 -3,-1 -4,-1l-77 -43c-1,0 -1,-2 -1,-4 1,-9 8,-75 8,-75 0,0 0,-1 0,-2 0,-1 1,-3 2,-3l31 -21c0,0 1,0 1,0l-30 21c-1,1 -2,2 -2,3 0,0 0,1 0,2 0,0 -8,63 -8,73 0,2 0,3 1,4l75 43c0,0 3,1 4,1 0,0 0,0 0,0 0,0 0,0 0,0 2,0 67,-41 67,-41 1,-1 2,-3 2,-4l2 -25c0,0 1,1 1,1l-2 25c0,2 -1,3 -2,4 0,0 -67,42 -68,42 0,0 0,0 0,0 0,0 0,0 0,0z"/>
   <path class="fil13" d="M175 116c0,0 -1,-1 -1,-1l5 -53c0,-2 -1,-3 -2,-4l-73 -42c-1,0 -2,-1 -2,-1 -1,0 -2,0 -2,1l-34 25c0,0 -1,0 -1,0l35 -25c1,0 2,-1 2,-1 1,0 2,0 2,1l73 43c1,1 2,3 2,4l-5 54z"/>
   <path class="fil14" d="M103 186c-1,0 -3,-1 -4,-1l-75 -43c-1,0 -1,-2 -1,-4 1,-9 8,-73 8,-73 0,0 0,-1 0,-2 0,-1 1,-3 2,-3l30 -21c0,0 1,0 1,0l-29 21c-1,1 -2,2 -2,3 0,0 0,1 0,2 0,0 -8,61 -8,70 0,2 0,3 1,4l74 42c0,0 3,1 4,1 0,0 0,0 0,0 0,0 0,0 0,0 2,0 66,-40 66,-40 1,-1 2,-3 2,-4l2 -25c0,0 1,1 1,1l-2 25c0,2 -1,3 -2,4 0,0 -65,41 -67,41 0,0 0,0 0,0 0,0 0,0 0,0z"/>
   <path class="fil15" d="M174 115c0,0 -1,-1 -1,-1l6 -51c0,-2 -1,-3 -2,-4l-72 -42c-1,0 -2,-1 -2,-1 -1,0 -2,0 -2,1l-33 24c0,0 -1,0 -1,0l34 -25c1,0 2,-1 2,-1 1,0 2,0 2,1l73 42c1,1 2,3 2,4l-5 53z"/>
   <path class="fil16" d="M104 184c-1,0 -3,-1 -4,-1l-74 -42c0,0 -1,-2 -1,-4 1,-10 8,-70 8,-70 0,0 0,-1 0,-2 0,-1 1,-3 2,-3l29 -21c0,0 1,0 1,0l-29 21c-1,1 -2,2 -2,3 0,0 0,1 0,2 0,0 -7,58 -8,68 0,2 0,3 1,4l73 41c0,0 3,2 4,2 0,0 0,0 0,0 0,0 0,0 0,0 2,0 64,-39 64,-39 1,-1 2,-3 2,-4l3 -24c0,0 1,1 1,1l-2 25c0,2 -1,3 -2,4 0,0 -64,40 -66,40 0,0 0,0 0,0 0,0 0,0 0,0z"/>
   <path class="fil17" d="M174 114c0,0 -1,-1 -1,-1l6 -50c0,-1 -1,-3 -2,-4l-71 -41c-1,0 -2,-1 -2,-1 -1,0 -2,0 -2,1l-33 24c0,0 -1,0 -1,0l33 -24c1,0 2,-1 2,-1 1,0 2,0 2,1l72 42c1,1 2,3 2,4l-6 51z"/>
   <path class="fil18" d="M104 181c-1,0 -3,-1 -4,-2l-73 -41c0,0 -1,-2 -1,-4 1,-11 8,-68 8,-68 0,0 0,-1 0,-2 0,-1 1,-2 2,-3l29 -21c0,0 1,0 1,0l-28 21c-1,1 -2,2 -2,3 0,0 0,1 0,2 0,0 -7,55 -8,66 0,2 0,3 0,4l71 40c0,0 3,2 4,2 0,0 0,0 0,0 0,0 0,0 0,0 2,0 63,-38 63,-38 1,-1 2,-3 2,-4l3 -24c0,0 1,1 1,1l-3 24c0,2 -1,3 -2,4 0,0 -62,39 -64,39 0,0 0,0 0,0 0,0 0,0 0,0z"/>
   <path class="fil19" d="M173 113c0,0 -1,-1 -1,-1l6 -49c0,-1 -1,-3 -2,-4l-70 -41c-1,0 -1,-1 -2,-1 -1,0 -2,0 -2,1l-32 24c0,0 -1,0 -1,0l33 -24c1,0 2,-1 2,-1 1,0 2,0 2,1l71 41c1,1 2,3 2,4l-6 50z"/>
   <path class="fil20" d="M105 178c0,0 0,0 0,0 0,0 0,0 0,0 0,0 -3,-2 -4,-2l-71 -40c0,0 -1,-2 0,-4 1,-11 8,-66 8,-66 0,0 0,-1 0,-2 0,-1 1,-2 2,-3l28 -21c0,0 1,0 1,0l-28 21c-1,1 -2,2 -2,3 0,0 0,1 0,2 0,0 -7,53 -8,64 0,2 0,3 0,3l70 39 4 2c0,0 0,0 0,0 2,0 62,-37 62,-37 1,-1 2,-3 2,-4l3 -24c0,0 1,1 1,1l-3 24c0,1 -1,3 -2,4 0,0 -61,38 -63,38z"/>
   <path class="fil21" d="M172 112c0,0 -1,-1 -1,-1l7 -48c0,-1 -1,-3 -2,-4l-69 -40c-1,0 -1,-1 -2,-1 -1,0 -2,0 -2,1l-31 24c0,0 -1,0 -1,0l32 -24c1,0 1,-1 2,-1 1,0 2,0 2,1l70 41c1,1 2,3 2,4l-6 49z"/>
   <path class="fil22" d="M105 176c0,0 0,0 0,0l-4 -2 -70 -39c0,0 0,-1 0,-3 1,-12 8,-64 8,-64 0,0 0,-1 0,-2 0,-1 1,-2 2,-3l28 -21c0,0 1,0 1,0l-27 21c-1,1 -2,2 -2,3 0,0 0,1 0,1 0,0 -7,50 -8,62 0,2 0,3 0,3l68 39 3 2c0,0 0,0 0,0 2,0 60,-35 60,-35 1,-1 2,-3 2,-4l3 -23c0,0 1,1 1,1l-3 24c0,1 -1,3 -2,4 0,0 -60,37 -62,37z"/>
   <path class="fil23" d="M171 111c0,0 -1,-1 -1,-1l7 -47c0,-1 -1,-3 -2,-4l-68 -40c-1,0 -1,-1 -2,-1 -1,0 -2,0 -2,1l-30 24c0,0 -1,0 -1,0l31 -24c1,0 1,-1 2,-1 1,0 2,0 2,1l69 40c1,1 2,3 2,4l-7 48z"/>
   <path class="fil24" d="M105 173c0,0 0,0 0,0l-3 -2 -68 -39c0,0 0,-1 0,-3 1,-12 8,-62 8,-62 0,0 0,-1 0,-1 0,-1 1,-2 2,-3l27 -21c0,0 1,0 1,0l-27 21c-1,1 -2,3 -2,4 0,0 -9,63 -8,64l70 40c0,0 0,0 0,0 2,0 59,-34 59,-34 1,-1 2,-3 2,-4l3 -23c0,0 1,1 1,1l-3 23c0,1 -1,3 -2,4 0,0 -58,35 -60,35z"/>
   <path class="fil25" d="M171 110c-25,-32 -59,-55 -98,-67l30 -24c1,0 1,-1 2,-1 1,0 2,0 2,1l68 40c1,1 2,3 2,4l-7 47z"/>
   <path class="fil26" d="M106 171c0,0 0,0 0,0l-70 -40c-1,-1 8,-64 8,-64 0,-1 1,-3 2,-4l27 -21c39,12 74,36 98,67l-3 23c0,1 -1,3 -2,4 0,0 -57,34 -59,34z"/>
   <path class="fil27" d="M185 146c0,2 -1,4 -3,4l-80 46c-1,1 -4,1 -5,0l-80 -46c-1,-1 -3,-3 -3,-4l0 -92c0,-2 1,-4 3,-4l80 -46c1,-1 4,-1 5,0l80 46c1,1 3,3 3,4l0 92z"/>
   <path class="fil28" d="M182 146c0,2 -1,4 -2,4l-78 45c-1,1 -4,1 -5,0l-78 -45c-1,-1 -2,-3 -2,-4l0 -90c0,-2 1,-4 2,-4l78 -45c1,-1 4,-1 5,0l78 45c1,1 2,3 2,4l0 90z"/>
  </g>
  <g id="_1144951600">
   <polygon class="fil29" points="153,96 47,96 47,148 153,148 "/>
   <polygon class="fil30" points="152,142 152,145 48,145 48,142 "/>
   <polygon class="fil31" points="146,144 146,141 54,141 54,144 "/>
   <polyline class="fil32 str0" points="53,92 101,66 149,92 "/>
   <path class="fil33" d="M53 93c0,0 0,0 0,0 0,0 0,0 0,0 0,0 0,0 0,0 0,0 0,0 0,0zm-2 3l2 0 0 -4 -2 0 0 4zm0 -4l0 4"/>
   <path class="fil33" d="M147 93c0,0 0,0 0,0 0,0 0,0 0,0 0,0 0,0 0,0 0,0 0,0 0,0zm0 3l2 0 0 -4 -2 0 0 4zm0 -4l0 4"/>
   <polygon class="fil34" points="107,61 93,61 93,52 107,52 "/>
   <polygon class="fil32 str1" points="94,53 106,53 106,60 94,60 "/>
   <polygon class="fil35" points="94,53 103,60 106,60 106,53 "/>
   <path class="fil36" d="M97 56c0,1 -1,1 -1,1 -1,0 -1,-1 -1,-1 0,-1 1,-1 1,-1 1,0 1,1 1,1z"/>
   <path class="fil37" d="M96 57c0,0 -1,0 -1,-1 0,0 0,-1 1,-1 0,0 1,0 1,1 0,0 0,1 -1,1z"/>
   <path class="fil36" d="M105 56c0,1 -1,1 -1,1 -1,0 -1,-1 -1,-1 0,-1 1,-1 1,-1 1,0 1,1 1,1z"/>
   <path class="fil37" d="M104 57c0,0 -1,0 -1,-1 0,0 0,-1 1,-1 0,0 1,0 1,1 0,0 0,1 -1,1z"/>
   <path class="fil38" d="M101 67c-1,0 -2,-1 -2,-2 0,-1 1,-2 2,-2l0 -2 1 0 0 -1 -4 0 0 1 2 0 0 1c-1,0 -2,1 -2,3 0,2 1,3 3,3 1,0 3,-1 3,-2 0,1 -1,1 -2,1z"/>
   <g>
    <g>
     <g>
      <g>
       <g>
        <g>
         <polygon class="fil39" points="50,128 50,143 59,143 59,128 "/>
         <polygon class="fil40" points="67,128 59,128 59,143 67,143 "/>
        </g>
        <polygon class="fil41" points="54,131 52,131 52,128 54,128 "/>
        <polygon class="fil41" points="66,131 64,131 64,128 66,128 "/>
        <polygon class="fil42" points="56,139 57,139 55,137 54,139 55,139 55,141 53,141 53,139 54,139 53,137 52,139 53,139 53,141 52,141 52,142 56,142 56,141 56,141 "/>
       </g>
       <rect class="fil43 str2" transform="matrix(0.272714 0.00036337 -0.00036337 0.272714 57.4933 129.124)" width="9.50005" height="3.12492" rx="6" ry="6"/>
      </g>
      <g>
       <g>
        <g>
         <polygon class="fil39" points="67,128 67,143 75,143 75,128 "/>
         <polygon class="fil40" points="84,128 75,128 75,143 84,143 "/>
        </g>
        <polygon class="fil41" points="70,131 69,131 69,128 70,128 "/>
        <polygon class="fil41" points="82,131 80,131 80,128 82,128 "/>
        <polygon class="fil42" points="72,139 73,139 72,137 71,139 72,139 72,141 70,141 70,139 71,139 69,137 68,139 69,139 69,141 68,141 68,142 73,142 73,141 72,141 "/>
       </g>
       <rect class="fil43 str2" transform="matrix(0.272714 0.00036337 -0.00036337 0.272714 74.0128 129.124)" width="9.50005" height="3.12492" rx="6" ry="6"/>
      </g>
      <g>
       <g>
        <g>
         <polygon class="fil39" points="83,128 83,143 92,143 92,128 "/>
         <polygon class="fil40" points="100,128 92,128 92,143 100,143 "/>
        </g>
        <polygon class="fil41" points="87,131 85,131 85,128 87,128 "/>
        <polygon class="fil41" points="99,131 97,131 97,128 99,128 "/>
        <polygon class="fil42" points="89,139 90,139 88,137 87,139 88,139 88,141 86,141 86,139 87,139 86,137 84,139 85,139 85,141 85,141 85,142 89,142 89,141 89,141 "/>
       </g>
       <rect class="fil43 str2" transform="matrix(0.272714 0.00036337 -0.00036337 0.272714 90.4316 129.124)" width="9.50005" height="3.12492" rx="6" ry="6"/>
      </g>
     </g>
     <g>
      <g>
       <g>
        <g>
         <polygon class="fil39" points="100,128 100,143 108,143 108,128 "/>
         <polygon class="fil40" points="117,128 108,128 108,143 117,143 "/>
        </g>
        <polygon class="fil41" points="103,131 102,131 102,128 103,128 "/>
        <polygon class="fil41" points="115,131 113,131 113,128 115,128 "/>
        <polygon class="fil42" points="105,139 106,139 105,137 104,139 105,139 105,141 103,141 103,139 104,139 102,137 101,139 102,139 102,141 102,141 102,142 106,142 106,141 105,141 "/>
       </g>
       <rect class="fil43 str2" transform="matrix(0.272714 0.00036337 -0.00036337 0.272714 107.033 129.124)" width="9.50005" height="3.12492" rx="6" ry="6"/>
      </g>
      <g>
       <g>
        <g>
         <polygon class="fil39" points="116,128 116,143 125,143 125,128 "/>
         <polygon class="fil40" points="133,128 125,128 125,143 133,143 "/>
        </g>
        <polygon class="fil41" points="120,131 118,131 118,128 120,128 "/>
        <polygon class="fil41" points="132,131 130,131 130,128 132,128 "/>
        <polygon class="fil42" points="122,139 123,139 122,137 120,139 121,139 121,141 119,141 119,139 120,139 119,137 118,139 119,139 119,141 118,141 118,142 122,142 122,141 122,141 "/>
       </g>
       <rect class="fil43 str2" transform="matrix(0.272714 0.00036337 -0.00036337 0.272714 123.552 129.124)" width="9.50005" height="3.12492" rx="6" ry="6"/>
      </g>
      <g>
       <g>
        <g>
         <polygon class="fil39" points="133,128 133,143 141,143 141,128 "/>
         <polygon class="fil40" points="150,128 141,128 141,143 150,143 "/>
        </g>
        <polygon class="fil41" points="136,131 134,131 134,128 136,128 "/>
        <polygon class="fil41" points="148,131 146,131 146,128 148,128 "/>
        <polygon class="fil42" points="138,139 139,139 138,137 137,139 138,139 138,141 136,141 136,139 137,139 135,137 134,139 135,139 135,141 134,141 134,142 139,142 139,141 138,141 "/>
       </g>
       <rect class="fil43 str2" transform="matrix(0.272714 0.00036337 -0.00036337 0.272714 139.971 129.124)" width="9.50005" height="3.12492" rx="6" ry="6"/>
      </g>
     </g>
    </g>
    <g>
     <g>
      <g>
       <g>
        <g>
         <polygon class="fil39" points="50,113 50,128 59,128 59,113 "/>
         <polygon class="fil40" points="67,113 59,113 59,128 67,128 "/>
        </g>
        <polygon class="fil41" points="54,116 52,116 52,113 54,113 "/>
        <polygon class="fil41" points="66,116 64,116 64,113 66,113 "/>
        <polygon class="fil42" points="56,124 57,124 55,122 54,124 55,124 55,126 53,126 53,124 54,124 53,122 52,124 53,124 53,126 52,126 52,127 56,127 56,126 56,126 "/>
       </g>
       <rect class="fil43 str2" transform="matrix(0.272714 0.00036337 -0.00036337 0.272714 57.4933 114.336)" width="9.50005" height="3.12492" rx="6" ry="6"/>
      </g>
      <g>
       <g>
        <g>
         <polygon class="fil39" points="67,113 67,128 75,128 75,113 "/>
         <polygon class="fil40" points="84,113 75,113 75,128 84,128 "/>
        </g>
        <polygon class="fil41" points="70,116 69,116 69,113 70,113 "/>
        <polygon class="fil41" points="82,116 80,116 80,113 82,113 "/>
        <polygon class="fil42" points="72,124 73,124 72,122 71,124 72,124 72,126 70,126 70,124 71,124 69,122 68,124 69,124 69,126 68,126 68,127 73,127 73,126 72,126 "/>
       </g>
       <rect class="fil43 str2" transform="matrix(0.272714 0.00036337 -0.00036337 0.272714 74.0128 114.336)" width="9.50005" height="3.12492" rx="6" ry="6"/>
      </g>
      <g>
       <g>
        <g>
         <polygon class="fil39" points="83,113 83,128 92,128 92,113 "/>
         <polygon class="fil40" points="100,113 92,113 92,128 100,128 "/>
        </g>
        <polygon class="fil41" points="87,116 85,116 85,113 87,113 "/>
        <polygon class="fil41" points="99,116 97,116 97,113 99,113 "/>
        <polygon class="fil42" points="89,124 90,124 88,122 87,124 88,124 88,126 86,126 86,124 87,124 86,122 84,124 85,124 85,126 85,126 85,127 89,127 89,126 89,126 "/>
       </g>
       <rect class="fil43 str2" transform="matrix(0.272714 0.00036337 -0.00036337 0.272714 90.4316 114.336)" width="9.50005" height="3.12492" rx="6" ry="6"/>
      </g>
     </g>
     <g>
      <g>
       <g>
        <g>
         <polygon class="fil39" points="100,113 100,128 108,128 108,113 "/>
         <polygon class="fil40" points="117,113 108,113 108,128 117,128 "/>
        </g>
        <polygon class="fil41" points="103,116 102,116 102,113 103,113 "/>
        <polygon class="fil41" points="115,116 113,116 113,113 115,113 "/>
        <polygon class="fil42" points="105,124 106,124 105,122 104,124 105,124 105,126 103,126 103,124 104,124 102,122 101,124 102,124 102,126 102,126 102,127 106,127 106,126 105,126 "/>
       </g>
       <rect class="fil43 str2" transform="matrix(0.272714 0.00036337 -0.00036337 0.272714 107.033 114.336)" width="9.50005" height="3.12492" rx="6" ry="6"/>
      </g>
      <g>
       <g>
        <g>
         <polygon class="fil39" points="116,113 116,128 125,128 125,113 "/>
         <polygon class="fil40" points="133,113 125,113 125,128 133,128 "/>
        </g>
        <polygon class="fil41" points="120,116 118,116 118,113 120,113 "/>
        <polygon class="fil41" points="132,116 130,116 130,113 132,113 "/>
        <polygon class="fil42" points="122,124 123,124 122,122 120,124 121,124 121,126 119,126 119,124 120,124 119,122 118,124 119,124 119,126 118,126 118,127 122,127 122,126 122,126 "/>
       </g>
       <rect class="fil43 str2" transform="matrix(0.272714 0.00036337 -0.00036337 0.272714 123.552 114.336)" width="9.50005" height="3.12492" rx="6" ry="6"/>
      </g>
      <g>
       <g>
        <g>
         <polygon class="fil39" points="133,113 133,128 141,128 141,113 "/>
         <polygon class="fil40" points="150,113 141,113 141,128 150,128 "/>
        </g>
        <polygon class="fil41" points="136,116 134,116 134,113 136,113 "/>
        <polygon class="fil41" points="148,116 146,116 146,113 148,113 "/>
        <polygon class="fil42" points="138,124 139,124 138,122 137,124 138,124 138,126 136,126 136,124 137,124 135,122 134,124 135,124 135,126 134,126 134,127 139,127 139,126 138,126 "/>
       </g>
       <rect class="fil43 str2" transform="matrix(0.272714 0.00036337 -0.00036337 0.272714 139.971 114.336)" width="9.50005" height="3.12492" rx="6" ry="6"/>
      </g>
     </g>
    </g>
    <g>
     <g>
      <g>
       <g>
        <g>
         <polygon class="fil39" points="50,99 50,113 59,113 59,99 "/>
         <polygon class="fil40" points="67,99 59,99 59,113 67,113 "/>
        </g>
        <polygon class="fil41" points="54,102 52,102 52,99 54,99 "/>
        <polygon class="fil41" points="66,102 64,102 64,99 66,99 "/>
        <polygon class="fil42" points="56,110 57,110 55,107 54,110 55,110 55,112 53,112 53,110 54,110 53,107 52,110 53,110 53,112 52,112 52,112 56,112 56,112 56,112 "/>
       </g>
       <rect class="fil43 str2" transform="matrix(0.272714 0.00036337 -0.00036337 0.272714 57.4933 99.5833)" width="9.50005" height="3.12492" rx="6" ry="6"/>
      </g>
      <g>
       <g>
        <g>
         <polygon class="fil39" points="67,99 67,113 75,113 75,99 "/>
         <polygon class="fil40" points="84,99 75,99 75,113 84,113 "/>
        </g>
        <polygon class="fil41" points="70,102 69,102 69,99 70,99 "/>
        <polygon class="fil41" points="82,102 80,102 80,99 82,99 "/>
        <polygon class="fil42" points="72,110 73,110 72,107 71,110 72,110 72,112 70,112 70,110 71,110 69,107 68,110 69,110 69,112 68,112 68,112 73,112 73,112 72,112 "/>
       </g>
       <rect class="fil43 str2" transform="matrix(0.272714 0.00036337 -0.00036337 0.272714 74.0128 99.5833)" width="9.50005" height="3.12492" rx="6" ry="6"/>
      </g>
      <g>
       <g>
        <g>
         <polygon class="fil39" points="83,99 83,113 92,113 92,99 "/>
         <polygon class="fil40" points="100,99 92,99 92,113 100,113 "/>
        </g>
        <polygon class="fil41" points="87,102 85,102 85,99 87,99 "/>
        <polygon class="fil41" points="99,102 97,102 97,99 99,99 "/>
        <polygon class="fil42" points="89,110 90,110 88,107 87,110 88,110 88,112 86,112 86,110 87,110 86,107 84,110 85,110 85,112 85,112 85,112 89,112 89,112 89,112 "/>
       </g>
       <rect class="fil43 str2" transform="matrix(0.272714 0.00036337 -0.00036337 0.272714 90.4316 99.5833)" width="9.50005" height="3.12492" rx="6" ry="6"/>
      </g>
     </g>
     <g>
      <g>
       <g>
        <g>
         <polygon class="fil39" points="100,99 100,113 108,113 108,99 "/>
         <polygon class="fil40" points="117,99 108,99 108,113 117,113 "/>
        </g>
        <polygon class="fil41" points="103,102 102,102 102,99 103,99 "/>
        <polygon class="fil41" points="115,102 113,102 113,99 115,99 "/>
        <polygon class="fil42" points="105,110 106,110 105,107 104,110 105,110 105,112 103,112 103,110 104,110 102,107 101,110 102,110 102,112 102,112 102,112 106,112 106,112 105,112 "/>
       </g>
       <rect class="fil43 str2" transform="matrix(0.272714 0.00036337 -0.00036337 0.272714 107.033 99.5833)" width="9.50005" height="3.12492" rx="6" ry="6"/>
      </g>
      <g>
       <g>
        <g>
         <polygon class="fil39" points="116,99 116,113 125,113 125,99 "/>
         <polygon class="fil40" points="133,99 125,99 125,113 133,113 "/>
        </g>
        <polygon class="fil41" points="120,102 118,102 118,99 120,99 "/>
        <polygon class="fil41" points="132,102 130,102 130,99 132,99 "/>
        <polygon class="fil42" points="122,110 123,110 122,107 120,110 121,110 121,112 119,112 119,110 120,110 119,107 118,110 119,110 119,112 118,112 118,112 122,112 122,112 122,112 "/>
       </g>
       <rect class="fil43 str2" transform="matrix(0.272714 0.00036337 -0.00036337 0.272714 123.552 99.5833)" width="9.50005" height="3.12492" rx="6" ry="6"/>
      </g>
      <g>
       <g>
        <g>
         <polygon class="fil39" points="133,99 133,113 141,113 141,99 "/>
         <polygon class="fil40" points="150,99 141,99 141,113 150,113 "/>
        </g>
        <polygon class="fil41" points="136,102 134,102 134,99 136,99 "/>
        <polygon class="fil41" points="148,102 146,102 146,99 148,99 "/>
        <polygon class="fil42" points="138,110 139,110 138,107 137,110 138,110 138,112 136,112 136,110 137,110 135,107 134,110 135,110 135,112 134,112 134,112 139,112 139,112 138,112 "/>
       </g>
       <rect class="fil43 str2" transform="matrix(0.272714 0.00036337 -0.00036337 0.272714 139.971 99.5833)" width="9.50005" height="3.12492" rx="6" ry="6"/>
      </g>
     </g>
    </g>
   </g>
  </g>
 </g>
</svg>
