<?xml version="1.0" encoding="UTF-8"?>
<!DOCTYPE svg PUBLIC "-//W3C//DTD SVG 1.1//EN" "http://www.w3.org/Graphics/SVG/1.1/DTD/svg11.dtd">
<!-- Creator: CorelDRAW X6 -->
<svg xmlns="http://www.w3.org/2000/svg" xml:space="preserve" width="400px" height="200px" version="1.1" style="shape-rendering:geometricPrecision; text-rendering:geometricPrecision; image-rendering:optimizeQuality; fill-rule:evenodd; clip-rule:evenodd"
viewBox="0 0 400 200"
 xmlns:xlink="http://www.w3.org/1999/xlink">
 <defs>
  <style type="text/css">
   <![CDATA[
    .fil0 {fill:#EBECEC;fill-rule:nonzero}
    .fil3 {fill:#427B00;fill-rule:nonzero}
    .fil9 {fill:#446269;fill-rule:nonzero}
    .fil7 {fill:#59A300;fill-rule:nonzero}
    .fil8 {fill:#609C00;fill-rule:nonzero}
    .fil4 {fill:#72BD00;fill-rule:nonzero}
    .fil5 {fill:#C46D26;fill-rule:nonzero}
    .fil1 {fill:#FFC300;fill-rule:nonzero}
    .fil6 {fill:white;fill-rule:nonzero;fill-opacity:0.200000}
    .fil2 {fill:#347990;fill-rule:nonzero;fill-opacity:0.301961}
   ]]>
  </style>
 </defs>
 <g id="Layer_x0020_1">
  <metadata id="CorelCorpID_0Corel-Layer"/>
  <g id="_271409584">
   <g>
    <path class="fil0" d="M138 101c1,-3 -1,-7 -5,-7 -1,0 -3,1 -4,2 -1,-2 -3,-4 -6,-4 -1,0 -1,0 -2,0 0,-1 0,-2 -1,-2 0,0 0,-1 -1,-1 0,0 0,0 0,-1 -1,-1 -3,-2 -4,-2 -1,0 -2,0 -3,1 0,0 -1,1 -1,1 0,0 0,0 0,0 -1,1 -1,1 -1,2 -1,-1 -3,-2 -4,-2 -1,0 -2,0 -3,1 -1,-2 -2,-3 -5,-3 -4,0 -6,4 -5,7 0,0 0,0 0,0 -4,0 -6,4 -5,7l51 0z"/>
    <path class="fil0" d="M256 78c0,-2 -1,-4 -3,-5l0 0c-1,-1 -2,-1 -3,-1 -2,0 -3,1 -4,2 0,0 -1,1 -1,1 -1,-2 -3,-4 -5,-4 -1,0 -2,0 -3,1 0,-2 -2,-5 -5,-5 -4,0 -5,3 -5,6 -1,0 -1,0 -2,0 -1,0 -2,0 -3,1 -1,0 -2,1 -2,2 0,1 -1,2 -1,2l37 0z"/>
    <g>
     <path class="fil0" d="M365 35c0,-1 0,-1 0,-2 0,-1 0,-1 0,-2 0,-1 0,-1 -1,-2 -1,-1 -1,-1 -2,-2 -1,-1 -2,-1 -3,-1 -1,0 -2,0 -3,1 0,0 0,0 0,0 0,0 0,0 0,0 0,0 0,-1 0,-1 0,-1 -1,-3 -3,-4 -1,-1 -3,-1 -5,-1 -2,1 -4,2 -4,5 0,1 0,2 0,2 0,0 0,0 0,0 -1,0 -3,0 -4,1 -1,1 -2,1 -2,2 0,0 0,0 0,0 0,0 0,0 0,0 -1,1 -1,3 -1,4l28 0z"/>
    </g>
    <path class="fil0" d="M115 44c1,-3 -1,-7 -5,-7 -1,0 -3,1 -4,2 -1,-2 -3,-4 -6,-4 -1,0 -1,0 -2,0 0,-1 0,-2 -1,-2 0,0 0,-1 -1,-1 0,0 0,0 0,-1 -1,-1 -3,-2 -4,-2 -1,0 -2,0 -3,1 0,0 -1,1 -1,1 0,0 0,0 0,0 -1,1 -1,1 -1,2 -1,-1 -3,-2 -4,-2 -1,0 -2,0 -3,1 -1,-2 -2,-3 -5,-3 -4,0 -6,4 -5,7 0,0 0,0 0,0 -4,0 -6,4 -5,7l51 0z"/>
    <path class="fil0" d="M32 35c2,-2 1,-7 -3,-7 -1,0 -2,0 -2,0 0,-2 -2,-3 -5,-3 -3,0 -4,2 -4,5 0,0 -1,0 -2,0 -2,0 -4,2 -4,4 0,1 0,1 1,2l19 0z"/>
    <path class="fil0" d="M160 53c0,-2 -2,-4 -5,-4 0,0 -1,0 -1,0 0,-2 -1,-4 -4,-4 -1,0 -2,0 -2,0 -1,-2 -2,-3 -4,-3 -1,0 -1,0 -2,0 -1,0 -3,1 -3,2 -1,1 -1,3 -1,4 0,0 0,0 0,0 -1,0 -3,0 -4,1 -1,1 -2,2 -2,3 0,0 0,0 0,0l28 0z"/>
    <path class="fil0" d="M293 40c0,-2 -2,-4 -5,-4 0,0 -1,0 -1,0 0,-2 -1,-4 -4,-4 -1,0 -2,0 -2,0 -1,-2 -2,-3 -4,-3 -1,0 -1,0 -2,0 -1,0 -3,1 -3,2 -1,1 -1,3 -1,4 0,0 0,0 0,0 -1,0 -3,0 -4,1 -1,1 -2,2 -2,3 0,0 0,0 0,0l28 0z"/>
    <path class="fil0" d="M169 43c-1,-4 1,-10 7,-10 1,0 3,0 4,1 1,-3 3,-6 8,-6 4,0 7,4 7,8 1,0 2,-1 3,-1 4,0 7,3 7,7 0,0 0,0 0,1l-34 0z"/>
    <path class="fil0" d="M335 80c1,-3 -1,-7 -6,-7 -1,0 -2,0 -3,1 -1,-3 -3,-5 -6,-5 -4,0 -6,3 -6,7 -1,0 -1,0 -2,0 -3,0 -5,2 -6,5l29 0z"/>
    <path class="fil0" d="M367 43l21 0c0,0 0,-1 0,-1 0,-1 -1,-1 -1,-2 -1,-1 -2,-1 -2,-1 0,-2 -1,-4 -4,-4 0,0 0,0 -1,0 0,0 0,-1 -1,-1 -2,-2 -4,-3 -7,-2 -2,1 -3,4 -3,7 0,0 0,0 0,0 -2,0 -3,2 -3,3z"/>
   </g>
   <path class="fil1" d="M377 24c0,3 -2,5 -5,5 -3,0 -5,-2 -5,-5 0,-3 2,-5 5,-5 3,0 5,2 5,5z"/>
  </g>
  <g id="_271408208">
   <polygon class="fil2" points="135,123 135,123 135,123 126,105 132,105 131,105 132,105 122,90 125,90 127,90 117,78 117,78 117,78 117,78 116,78 107,90 112,90 102,105 108,105 99,123 114,123 113,140 117,140 121,140 121,140 119,123 "/>
   <polygon class="fil2" points="88,119 88,119 88,119 77,97 84,97 84,97 84,97 72,78 76,78 78,78 66,64 66,63 66,63 66,63 65,64 53,78 60,78 48,97 55,97 44,119 63,119 61,140 66,140 70,140 70,140 69,119 "/>
   <polygon class="fil2" points="400,119 400,119 400,119 389,97 396,97 396,97 396,97 384,78 388,78 391,78 379,64 378,63 378,63 378,63 377,64 365,78 372,78 360,97 367,97 356,119 375,119 373,140 378,140 382,140 382,140 381,119 "/>
   <polygon class="fil2" points="254,119 254,119 254,119 243,97 250,97 250,97 250,97 238,78 242,78 244,78 232,64 232,63 232,63 232,63 231,64 219,78 226,78 214,97 221,97 210,119 229,119 227,140 232,140 236,140 236,140 235,119 "/>
   <polygon class="fil2" points="321,127 321,127 297,60 273,127 293,127 292,139 296,139 296,140 300,140 300,139 300,139 299,128 321,128 "/>
   <polygon class="fil2" points="48,127 48,127 24,60 0,127 21,127 20,139 24,139 24,140 28,140 27,139 28,139 27,128 48,128 "/>
   <path class="fil2" d="M172 103c0,-4 -1,-9 -4,-16 -5,-8 -10,-14 -10,-14 0,0 0,0 0,0 0,0 0,0 0,0 0,0 0,0 0,0l0 0c-1,1 -5,7 -10,14 -11,16 -1,26 8,28l-1 19 3 0 3 0 0 0 0 0 -2 -19c1,0 2,0 3,-1 5,-2 9,-6 10,-12z"/>
   <path class="fil2" d="M347 103c0,-4 -1,-9 -4,-16 -5,-8 -10,-14 -10,-14 0,0 0,0 0,0 0,0 0,0 0,0 0,0 0,0 0,0l0 0c-1,1 -5,7 -10,14 -11,16 -1,26 8,28l-1 19 3 0 3 0 0 0 0 0 -2 -19c1,0 2,0 3,-1 5,-2 9,-6 10,-12z"/>
  </g>
  <g id="_272705856">
   <g>
    <g>
     <path class="fil3" d="M179 134c0,0 0,0 0,0 0,0 0,0 0,-1 0,-1 0,-2 1,-3 0,-1 1,-2 2,-3 0,-1 1,-1 1,-2 0,-1 1,-1 1,-2 0,-1 1,-1 2,-2 1,0 1,-1 2,-1 0,0 1,0 1,-1 0,0 1,0 1,0 1,0 1,0 2,-1 0,0 1,0 1,0 0,0 1,0 1,0 1,0 1,0 1,0 0,0 0,0 -1,0 0,0 -1,0 -1,0 0,0 -1,0 -1,1 0,0 -1,1 -1,1 0,0 0,0 -1,1 0,0 0,0 -1,1 0,0 -1,1 -1,1 0,1 -1,1 -1,2 -1,2 -2,5 -2,7 0,1 0,2 0,2 0,0 0,0 0,1 0,0 0,0 0,0 0,0 0,0 0,0l-5 0z"/>
    </g>
    <g>
     <path class="fil3" d="M180 135c0,0 0,0 0,0 0,0 0,0 0,0 0,0 0,0 0,-1 0,-1 0,-1 0,-2 0,-2 -1,-4 -2,-7 0,-1 -1,-1 -1,-2 0,-1 -1,-1 -1,-1 0,0 0,0 -1,-1 0,0 0,0 -1,-1 0,0 -1,-1 -1,-1 0,0 -1,0 -1,-1 0,0 -1,0 -1,0 -1,0 -1,0 -1,0 0,0 0,0 1,0 0,0 1,0 1,0 0,0 1,0 1,0 0,0 1,0 2,1 0,0 1,0 1,0 0,0 1,0 1,1 1,0 1,1 2,1 1,0 1,1 2,2 0,1 1,1 1,2 0,1 1,1 1,2 1,1 1,2 2,3 0,1 1,2 1,3 0,0 0,1 0,1 0,0 0,0 0,0l-5 0z"/>
    </g>
    <g>
     <path class="fil3" d="M179 134c0,0 0,0 0,0 0,0 0,0 0,0 0,0 0,0 0,0 0,0 0,0 0,0 0,0 0,-1 0,-1 0,0 0,-1 1,-1 0,0 1,-1 1,-1 0,0 1,-1 1,-1 0,0 0,0 1,-1 0,0 0,0 1,0 0,0 0,0 1,0l1 0c1,0 1,0 2,-1 1,0 1,0 2,0 1,0 1,0 1,0 0,0 1,0 1,0 0,0 0,0 1,0 0,0 0,0 1,0 0,0 1,0 1,0 0,0 1,0 1,0 0,0 0,0 -1,0 0,0 0,0 -1,0 0,0 0,0 0,0 0,0 0,0 -1,0 0,0 -1,0 -1,0 0,0 -1,0 -1,1 0,0 -1,0 -1,1 0,0 -1,1 -1,1l0 0c0,0 0,0 0,0 0,0 0,0 0,1 0,0 0,0 0,1 0,0 0,1 -1,1 0,0 0,1 0,1 0,0 0,1 0,1 0,0 0,0 0,1 0,0 0,0 0,0 0,0 0,0 0,0 0,0 0,0 0,0 0,0 0,0 0,0l-5 -1z"/>
    </g>
    <g>
     <path class="fil3" d="M179 135c0,0 0,0 0,0 0,0 0,0 0,0 0,0 0,0 0,0 0,0 0,0 0,0 0,0 0,0 0,-1 0,0 0,-1 0,-1 0,0 0,-1 0,-1 0,0 0,-1 -1,-1 0,0 0,0 0,-1 0,0 0,0 0,-1 0,0 0,0 0,0l0 0c0,0 -1,-1 -1,-1 0,0 -1,-1 -1,-1 0,0 -1,0 -1,-1 0,0 -1,0 -1,0 0,0 0,0 -1,0 0,0 0,0 0,0 0,0 -1,0 -1,0 0,0 -1,0 -1,0 0,0 0,0 1,0 0,0 1,0 1,0 0,0 0,0 1,0 0,0 0,0 1,0 0,0 1,0 1,0 0,0 1,0 1,0 1,0 1,0 2,0 1,0 1,0 2,1l1 0c0,0 1,0 1,0 0,0 0,0 1,0 0,0 0,0 1,1 0,0 1,1 1,1 0,0 1,1 1,1 0,0 0,1 1,1 0,0 0,1 0,1 0,0 0,0 0,0 0,0 0,0 0,0 0,0 0,0 0,0 0,0 0,0 0,0l-5 1z"/>
    </g>
    <g>
     <path class="fil3" d="M179 132c0,0 0,0 0,0 0,0 0,0 0,-1 0,0 0,-1 0,-2 0,-2 0,-4 1,-6 0,-1 1,-2 1,-3 0,-1 1,-2 1,-2 0,0 0,-1 1,-1 0,0 0,0 1,-1 0,0 0,0 0,0 0,0 0,0 0,0 0,0 0,0 0,0 0,0 0,0 0,0 0,0 0,0 0,1 0,0 0,1 0,1 0,1 0,2 0,2 0,1 0,2 0,3 0,2 1,4 1,5 0,1 0,1 0,2 0,0 0,0 0,0 0,0 0,0 0,0l-5 1z"/>
    </g>
   </g>
   <g>
    <g>
     <path class="fil3" d="M11 134c0,0 0,0 0,0 0,0 0,0 0,-1 0,-1 0,-2 1,-3 0,-1 1,-2 2,-3 0,-1 1,-1 1,-2 0,-1 1,-1 1,-2 0,-1 1,-1 2,-2 1,0 1,-1 2,-1 0,0 1,0 1,-1 0,0 1,0 1,0 1,0 1,0 2,-1 0,0 1,0 1,0 0,0 1,0 1,0 1,0 1,0 1,0 0,0 0,0 -1,0 0,0 -1,0 -1,0 0,0 -1,0 -1,1 0,0 -1,1 -1,1 0,0 0,0 -1,1 0,0 0,0 -1,1 0,0 -1,1 -1,1 0,1 -1,1 -1,2 -1,2 -2,5 -2,7 0,1 0,2 0,2 0,0 0,0 0,1 0,0 0,0 0,0 0,0 0,0 0,0l-5 0z"/>
    </g>
    <g>
     <path class="fil3" d="M13 135c0,0 0,0 0,0 0,0 0,0 0,0 0,0 0,0 0,-1 0,-1 0,-1 0,-2 0,-2 -1,-4 -2,-7 0,-1 -1,-1 -1,-2 0,-1 -1,-1 -1,-1 0,0 0,0 -1,-1 0,0 0,0 -1,-1 0,0 -1,-1 -1,-1 0,0 -1,0 -1,-1 0,0 -1,0 -1,0 -1,0 -1,0 -1,0 0,0 0,0 1,0 0,0 1,0 1,0 0,0 1,0 1,0 0,0 1,0 2,1 0,0 1,0 1,0 0,0 1,0 1,1 1,0 1,1 2,1 1,0 1,1 2,2 0,1 1,1 1,2 0,1 1,1 1,2 1,1 1,2 2,3 0,1 1,2 1,3 0,0 0,1 0,1 0,0 0,0 0,0l-5 0z"/>
    </g>
    <g>
     <path class="fil3" d="M12 134c0,0 0,0 0,0 0,0 0,0 0,0 0,0 0,0 0,0 0,0 0,0 0,0 0,0 0,-1 0,-1 0,0 0,-1 1,-1 0,0 1,-1 1,-1 0,0 1,-1 1,-1 0,0 0,0 1,-1 0,0 0,0 1,0 0,0 0,0 1,0l1 0c1,0 1,0 2,-1 1,0 1,0 2,0 1,0 1,0 1,0 0,0 1,0 1,0 0,0 0,0 1,0 0,0 0,0 1,0 0,0 1,0 1,0 0,0 1,0 1,0 0,0 0,0 -1,0 0,0 0,0 -1,0 0,0 0,0 0,0 0,0 0,0 -1,0 0,0 -1,0 -1,0 0,0 -1,0 -1,1 0,0 -1,0 -1,1 0,0 -1,1 -1,1l0 0c0,0 0,0 0,0 0,0 0,0 0,1 0,0 0,0 0,1 0,0 0,1 -1,1 0,0 0,1 0,1 0,0 0,1 0,1 0,0 0,0 0,1 0,0 0,0 0,0 0,0 0,0 0,0 0,0 0,0 0,0 0,0 0,0 0,0l-5 -1z"/>
    </g>
    <g>
     <path class="fil3" d="M11 135c0,0 0,0 0,0 0,0 0,0 0,0 0,0 0,0 0,0 0,0 0,0 0,0 0,0 0,0 0,-1 0,0 0,-1 0,-1 0,0 0,-1 0,-1 0,0 0,-1 -1,-1 0,0 0,0 0,-1 0,0 0,0 0,-1 0,0 0,0 0,0l0 0c0,0 -1,-1 -1,-1 0,0 -1,-1 -1,-1 0,0 -1,0 -1,-1 0,0 -1,0 -1,0 0,0 0,0 -1,0 0,0 0,0 0,0 0,0 -1,0 -1,0 0,0 -1,0 -1,0 0,0 0,0 1,0 0,0 1,0 1,0 0,0 0,0 1,0 0,0 0,0 1,0 0,0 1,0 1,0 0,0 1,0 1,0 1,0 1,0 2,0 1,0 1,0 2,1l1 0c0,0 1,0 1,0 0,0 0,0 1,0 0,0 0,0 1,1 0,0 1,1 1,1 0,0 1,1 1,1 0,0 0,1 1,1 0,0 0,1 0,1 0,0 0,0 0,0 0,0 0,0 0,0 0,0 0,0 0,0 0,0 0,0 0,0l-5 1z"/>
    </g>
    <g>
     <path class="fil3" d="M12 132c0,0 0,0 0,0 0,0 0,0 0,-1 0,0 0,-1 0,-2 0,-2 0,-4 1,-6 0,-1 1,-2 1,-3 0,-1 1,-2 1,-2 0,0 0,-1 1,-1 0,0 0,0 1,-1 0,0 0,0 0,0 0,0 0,0 0,0 0,0 0,0 0,0 0,0 0,0 0,0 0,0 0,0 0,1 0,0 0,1 0,1 0,1 0,2 0,2 0,1 0,2 0,3 0,2 1,4 1,5 0,1 0,1 0,2 0,0 0,0 0,0 0,0 0,0 0,0l-5 1z"/>
    </g>
   </g>
   <g>
    <g>
     <path class="fil3" d="M290 138c0,0 0,0 0,0 0,0 0,0 0,-1 0,-1 0,-2 1,-3 0,-1 1,-2 2,-3 0,-1 1,-1 1,-2 0,-1 1,-1 1,-2 0,-1 1,-1 2,-2 1,0 1,-1 2,-1 0,0 1,0 1,-1 0,0 1,0 1,0 1,0 1,0 2,-1 0,0 1,0 1,0 0,0 1,0 1,0 1,0 1,0 1,0 0,0 0,0 -1,0 0,0 -1,0 -1,0 0,0 -1,0 -1,1 0,0 -1,1 -1,1 0,0 0,0 -1,1 0,0 0,0 -1,1 0,0 -1,1 -1,1 0,1 -1,1 -1,2 -1,2 -2,5 -2,7 0,1 0,2 0,2 0,0 0,0 0,1 0,0 0,0 0,0 0,0 0,0 0,0l-5 0z"/>
    </g>
    <g>
     <path class="fil3" d="M291 138c0,0 0,0 0,0 0,0 0,0 0,0 0,0 0,0 0,-1 0,-1 0,-1 0,-2 0,-2 -1,-4 -2,-7 0,-1 -1,-1 -1,-2 0,-1 -1,-1 -1,-1 0,0 0,0 -1,-1 0,0 0,0 -1,-1 0,0 -1,-1 -1,-1 0,0 -1,0 -1,-1 0,0 -1,0 -1,0 -1,0 -1,0 -1,0 0,0 0,0 1,0 0,0 1,0 1,0 0,0 1,0 1,0 0,0 1,0 2,1 0,0 1,0 1,0 0,0 1,0 1,1 1,0 1,1 2,1 1,0 1,1 2,2 0,1 1,1 1,2 0,1 1,1 1,2 1,1 1,2 2,3 0,1 1,2 1,3 0,0 0,1 0,1 0,0 0,0 0,0l-5 0z"/>
    </g>
    <g>
     <path class="fil3" d="M291 138c0,0 0,0 0,0 0,0 0,0 0,0 0,0 0,0 0,0 0,0 0,0 0,0 0,0 0,-1 0,-1 0,0 0,-1 1,-1 0,0 1,-1 1,-1 0,0 1,-1 1,-1 0,0 0,0 1,-1 0,0 0,0 1,0 0,0 0,0 1,0l1 0c1,0 1,0 2,-1 1,0 1,0 2,0 1,0 1,0 1,0 0,0 1,0 1,0 0,0 0,0 1,0 0,0 0,0 1,0 0,0 1,0 1,0 0,0 1,0 1,0 0,0 0,0 -1,0 0,0 0,0 -1,0 0,0 0,0 0,0 0,0 0,0 -1,0 0,0 -1,0 -1,0 0,0 -1,0 -1,1 0,0 -1,0 -1,1 0,0 -1,1 -1,1l0 0c0,0 0,0 0,0 0,0 0,0 0,1 0,0 0,0 0,1 0,0 0,1 -1,1 0,0 0,1 0,1 0,0 0,1 0,1 0,0 0,0 0,1 0,0 0,0 0,0 0,0 0,0 0,0 0,0 0,0 0,0 0,0 0,0 0,0l-5 -1z"/>
    </g>
    <g>
     <path class="fil3" d="M290 139c0,0 0,0 0,0 0,0 0,0 0,0 0,0 0,0 0,0 0,0 0,0 0,0 0,0 0,0 0,-1 0,0 0,-1 0,-1 0,0 0,-1 0,-1 0,0 0,-1 -1,-1 0,0 0,0 0,-1 0,0 0,0 0,-1 0,0 0,0 0,0l0 0c0,0 -1,-1 -1,-1 0,0 -1,-1 -1,-1 0,0 -1,0 -1,-1 0,0 -1,0 -1,0 0,0 0,0 -1,0 0,0 0,0 0,0 0,0 -1,0 -1,0 0,0 -1,0 -1,0 0,0 0,0 1,0 0,0 1,0 1,0 0,0 0,0 1,0 0,0 0,0 1,0 0,0 1,0 1,0 0,0 1,0 1,0 1,0 1,0 2,0 1,0 1,0 2,1l1 0c0,0 1,0 1,0 0,0 0,0 1,0 0,0 0,0 1,1 0,0 1,1 1,1 0,0 1,1 1,1 0,0 0,1 1,1 0,0 0,1 0,1 0,0 0,0 0,0 0,0 0,0 0,0 0,0 0,0 0,0 0,0 0,0 0,0l-5 1z"/>
    </g>
    <g>
     <path class="fil3" d="M290 136c0,0 0,0 0,0 0,0 0,0 0,-1 0,0 0,-1 0,-2 0,-2 0,-4 1,-6 0,-1 1,-2 1,-3 0,-1 1,-2 1,-2 0,0 0,-1 1,-1 0,0 0,0 1,-1 0,0 0,0 0,0 0,0 0,0 0,0 0,0 0,0 0,0 0,0 0,0 0,0 0,0 0,0 0,1 0,0 0,1 0,1 0,1 0,2 0,2 0,1 0,2 0,3 0,2 1,4 1,5 0,1 0,1 0,2 0,0 0,0 0,0 0,0 0,0 0,0l-5 1z"/>
    </g>
   </g>
   <g>
    <g>
     <path class="fil3" d="M246 136c0,0 0,0 0,0 0,0 0,0 0,-1 0,-1 0,-2 1,-3 0,-1 1,-2 2,-3 0,-1 1,-1 1,-2 0,-1 1,-1 1,-2 0,-1 1,-1 2,-2 1,0 1,-1 2,-1 0,0 1,0 1,-1 0,0 1,0 1,0 1,0 1,0 2,-1 0,0 1,0 1,0 0,0 1,0 1,0 1,0 1,0 1,0 0,0 0,0 -1,0 0,0 -1,0 -1,0 0,0 -1,0 -1,1 0,0 -1,1 -1,1 0,0 0,0 -1,1 0,0 0,0 -1,1 0,0 -1,1 -1,1 0,1 -1,1 -1,2 -1,2 -2,5 -2,7 0,1 0,2 0,2 0,0 0,0 0,1 0,0 0,0 0,0 0,0 0,0 0,0l-5 0z"/>
    </g>
    <g>
     <path class="fil3" d="M247 137c0,0 0,0 0,0 0,0 0,0 0,0 0,0 0,0 0,-1 0,-1 0,-1 0,-2 0,-2 -1,-4 -2,-7 0,-1 -1,-1 -1,-2 0,-1 -1,-1 -1,-1 0,0 0,0 -1,-1 0,0 0,0 -1,-1 0,0 -1,-1 -1,-1 0,0 -1,0 -1,-1 0,0 -1,0 -1,0 -1,0 -1,0 -1,0 0,0 0,0 1,0 0,0 1,0 1,0 0,0 1,0 1,0 0,0 1,0 2,1 0,0 1,0 1,0 0,0 1,0 1,1 1,0 1,1 2,1 1,0 1,1 2,2 0,1 1,1 1,2 0,1 1,1 1,2 1,1 1,2 2,3 0,1 1,2 1,3 0,0 0,1 0,1 0,0 0,0 0,0l-5 0z"/>
    </g>
    <g>
     <path class="fil3" d="M246 136c0,0 0,0 0,0 0,0 0,0 0,0 0,0 0,0 0,0 0,0 0,0 0,0 0,0 0,-1 0,-1 0,0 0,-1 1,-1 0,0 1,-1 1,-1 0,0 1,-1 1,-1 0,0 0,0 1,-1 0,0 0,0 1,0 0,0 0,0 1,0l1 0c1,0 1,0 2,-1 1,0 1,0 2,0 1,0 1,0 1,0 0,0 1,0 1,0 0,0 0,0 1,0 0,0 0,0 1,0 0,0 1,0 1,0 0,0 1,0 1,0 0,0 0,0 -1,0 0,0 0,0 -1,0 0,0 0,0 0,0 0,0 0,0 -1,0 0,0 -1,0 -1,0 0,0 -1,0 -1,1 0,0 -1,0 -1,1 0,0 -1,1 -1,1l0 0c0,0 0,0 0,0 0,0 0,0 0,1 0,0 0,0 0,1 0,0 0,1 -1,1 0,0 0,1 0,1 0,0 0,1 0,1 0,0 0,0 0,1 0,0 0,0 0,0 0,0 0,0 0,0 0,0 0,0 0,0 0,0 0,0 0,0l-5 -1z"/>
    </g>
    <g>
     <path class="fil3" d="M246 137c0,0 0,0 0,0 0,0 0,0 0,0 0,0 0,0 0,0 0,0 0,0 0,0 0,0 0,0 0,-1 0,0 0,-1 0,-1 0,0 0,-1 0,-1 0,0 0,-1 -1,-1 0,0 0,0 0,-1 0,0 0,0 0,-1 0,0 0,0 0,0l0 0c0,0 -1,-1 -1,-1 0,0 -1,-1 -1,-1 0,0 -1,0 -1,-1 0,0 -1,0 -1,0 0,0 0,0 -1,0 0,0 0,0 0,0 0,0 -1,0 -1,0 0,0 -1,0 -1,0 0,0 0,0 1,0 0,0 1,0 1,0 0,0 0,0 1,0 0,0 0,0 1,0 0,0 1,0 1,0 0,0 1,0 1,0 1,0 1,0 2,0 1,0 1,0 2,1l1 0c0,0 1,0 1,0 0,0 0,0 1,0 0,0 0,0 1,1 0,0 1,1 1,1 0,0 1,1 1,1 0,0 0,1 1,1 0,0 0,1 0,1 0,0 0,0 0,0 0,0 0,0 0,0 0,0 0,0 0,0 0,0 0,0 0,0l-5 1z"/>
    </g>
    <g>
     <path class="fil3" d="M246 134c0,0 0,0 0,0 0,0 0,0 0,-1 0,0 0,-1 0,-2 0,-2 0,-4 1,-6 0,-1 1,-2 1,-3 0,-1 1,-2 1,-2 0,0 0,-1 1,-1 0,0 0,0 1,-1 0,0 0,0 0,0 0,0 0,0 0,0 0,0 0,0 0,0 0,0 0,0 0,0 0,0 0,0 0,1 0,0 0,1 0,1 0,1 0,2 0,2 0,1 0,2 0,3 0,2 1,4 1,5 0,1 0,1 0,2 0,0 0,0 0,0 0,0 0,0 0,0l-5 1z"/>
    </g>
   </g>
   <g>
    <g>
     <path class="fil3" d="M381 134c0,0 0,0 0,0 0,0 0,0 0,-1 0,-1 0,-2 1,-3 0,-1 1,-2 2,-3 0,-1 1,-1 1,-2 0,-1 1,-1 1,-2 0,-1 1,-1 2,-2 1,0 1,-1 2,-1 0,0 1,0 1,-1 0,0 1,0 1,0 1,0 1,0 2,-1 0,0 1,0 1,0 0,0 1,0 1,0 1,0 1,0 1,0 0,0 0,0 -1,0 0,0 -1,0 -1,0 0,0 -1,0 -1,1 0,0 -1,1 -1,1 0,0 0,0 -1,1 0,0 0,0 -1,1 0,0 -1,1 -1,1 0,1 -1,1 -1,2 -1,2 -2,5 -2,7 0,1 0,2 0,2 0,0 0,0 0,1 0,0 0,0 0,0 0,0 0,0 0,0l-5 0z"/>
    </g>
    <g>
     <path class="fil3" d="M382 135c0,0 0,0 0,0 0,0 0,0 0,0 0,0 0,0 0,-1 0,-1 0,-1 0,-2 0,-2 -1,-4 -2,-7 0,-1 -1,-1 -1,-2 0,-1 -1,-1 -1,-1 0,0 0,0 -1,-1 0,0 0,0 -1,-1 0,0 -1,-1 -1,-1 0,0 -1,0 -1,-1 0,0 -1,0 -1,0 -1,0 -1,0 -1,0 0,0 0,0 1,0 0,0 1,0 1,0 0,0 1,0 1,0 0,0 1,0 2,1 0,0 1,0 1,0 0,0 1,0 1,1 1,0 1,1 2,1 1,0 1,1 2,2 0,1 1,1 1,2 0,1 1,1 1,2 1,1 1,2 2,3 0,1 1,2 1,3 0,0 0,1 0,1 0,0 0,0 0,0l-5 0z"/>
    </g>
    <g>
     <path class="fil3" d="M381 134c0,0 0,0 0,0 0,0 0,0 0,0 0,0 0,0 0,0 0,0 0,0 0,0 0,0 0,-1 0,-1 0,0 0,-1 1,-1 0,0 1,-1 1,-1 0,0 1,-1 1,-1 0,0 0,0 1,-1 0,0 0,0 1,0 0,0 0,0 1,0l1 0c1,0 1,0 2,-1 1,0 1,0 2,0 1,0 1,0 1,0 0,0 1,0 1,0 0,0 0,0 1,0 0,0 0,0 1,0 0,0 1,0 1,0 0,0 1,0 1,0 0,0 0,0 -1,0 0,0 0,0 -1,0 0,0 0,0 0,0 0,0 0,0 -1,0 0,0 -1,0 -1,0 0,0 -1,0 -1,1 0,0 -1,0 -1,1 0,0 -1,1 -1,1l0 0c0,0 0,0 0,0 0,0 0,0 0,1 0,0 0,0 0,1 0,0 0,1 -1,1 0,0 0,1 0,1 0,0 0,1 0,1 0,0 0,0 0,1 0,0 0,0 0,0 0,0 0,0 0,0 0,0 0,0 0,0 0,0 0,0 0,0l-5 -1z"/>
    </g>
    <g>
     <path class="fil3" d="M381 135c0,0 0,0 0,0 0,0 0,0 0,0 0,0 0,0 0,0 0,0 0,0 0,0 0,0 0,0 0,-1 0,0 0,-1 0,-1 0,0 0,-1 0,-1 0,0 0,-1 -1,-1 0,0 0,0 0,-1 0,0 0,0 0,-1 0,0 0,0 0,0l0 0c0,0 -1,-1 -1,-1 0,0 -1,-1 -1,-1 0,0 -1,0 -1,-1 0,0 -1,0 -1,0 0,0 0,0 -1,0 0,0 0,0 0,0 0,0 -1,0 -1,0 0,0 -1,0 -1,0 0,0 0,0 1,0 0,0 1,0 1,0 0,0 0,0 1,0 0,0 0,0 1,0 0,0 1,0 1,0 0,0 1,0 1,0 1,0 1,0 2,0 1,0 1,0 2,1l1 0c0,0 1,0 1,0 0,0 0,0 1,0 0,0 0,0 1,1 0,0 1,1 1,1 0,0 1,1 1,1 0,0 0,1 1,1 0,0 0,1 0,1 0,0 0,0 0,0 0,0 0,0 0,0 0,0 0,0 0,0 0,0 0,0 0,0l-5 1z"/>
    </g>
    <g>
     <path class="fil3" d="M381 132c0,0 0,0 0,0 0,0 0,0 0,-1 0,0 0,-1 0,-2 0,-2 0,-4 1,-6 0,-1 1,-2 1,-3 0,-1 1,-2 1,-2 0,0 0,-1 1,-1 0,0 0,0 1,-1 0,0 0,0 0,0 0,0 0,0 0,0 0,0 0,0 0,0 0,0 0,0 0,0 0,0 0,0 0,1 0,0 0,1 0,1 0,1 0,2 0,2 0,1 0,2 0,3 0,2 1,4 1,5 0,1 0,1 0,2 0,0 0,0 0,0 0,0 0,0 0,0l-5 1z"/>
    </g>
   </g>
   <g>
    <g>
     <polygon class="fil4" points="320,79 303,126 319,126 320,126 337,126 "/>
     <polygon class="fil5" points="329,115 321,117 320,102 318,122 311,120 317,125 317,135 322,135 321,120 "/>
    </g>
    <polygon class="fil6" points="337,127 320,80 319,81 319,135 322,135 322,127 "/>
   </g>
   <g>
    <path class="fil4" d="M116 136l40 0c0,0 0,-1 0,-1 0,-1 0,-1 -1,-2 -1,-1 -2,-2 -3,-3 0,0 0,0 0,0 -1,-1 -2,-1 -4,-1 0,0 -1,0 -1,0 0,0 0,0 0,-1 0,-4 -3,-7 -7,-7 -1,0 -3,0 -4,1 -1,-1 -2,-3 -4,-3 -3,0 -4,2 -5,4 -1,0 -1,0 -2,0 -3,0 -5,2 -5,5 0,0 0,1 0,1 0,0 0,0 0,0 -3,0 -6,2 -6,5z"/>
    <path class="fil6" d="M136 136l20 0c0,0 0,-1 0,-1 0,-1 0,-1 -1,-2 -1,-1 -2,-2 -3,-3 0,0 0,0 0,0 -1,-1 -2,-1 -4,-1 0,0 -1,0 -1,0 0,0 0,0 0,-1 0,-4 -3,-7 -7,-7 -1,0 -3,0 -4,1 0,-1 -1,-1 -1,-1l0 14z"/>
   </g>
   <g>
    <path class="fil4" d="M258 138l40 0c0,0 0,-1 0,-1 0,-1 0,-1 -1,-2 -1,-1 -2,-2 -3,-3 0,0 0,0 0,0 -1,-1 -2,-1 -4,-1 0,0 -1,0 -1,0 0,0 0,0 0,-1 0,-4 -3,-7 -7,-7 -1,0 -3,0 -4,1 -1,-1 -2,-3 -4,-3 -3,0 -4,2 -5,4 -1,0 -1,0 -2,0 -3,0 -5,2 -5,5 0,0 0,1 0,1 0,0 0,0 0,0 -3,0 -6,2 -6,5z"/>
    <path class="fil6" d="M278 138l20 0c0,0 0,-1 0,-1 0,-1 0,-1 -1,-2 -1,-1 -2,-2 -3,-3 0,0 0,0 0,0 -1,-1 -2,-1 -4,-1 0,0 -1,0 -1,0 0,0 0,0 0,-1 0,-4 -3,-7 -7,-7 -1,0 -3,0 -4,1 0,-1 -1,-1 -1,-1l0 14z"/>
   </g>
   <g>
    <g>
     <path class="fil4" d="M176 98c-4,-6 -8,-11 -8,-11 0,0 -4,5 -8,11 -9,14 1,22 7,23l0 0c0,0 0,0 0,0 0,0 0,0 0,0l0 0c6,-1 16,-8 7,-23z"/>
     <polygon class="fil5" points="174,110 169,113 168,106 167,113 162,110 167,116 166,136 171,136 169,116 "/>
    </g>
    <path class="fil6" d="M176 98c-4,-6 -8,-11 -8,-11 0,0 0,0 0,0l0 49 3 0 -2 -15c6,-1 15,-8 7,-23z"/>
   </g>
   <g>
    <g>
     <path class="fil4" d="M224 105c-1,-4 -5,-8 -10,-8 -5,0 -9,3 -10,8 -3,2 -6,5 -6,9 0,6 5,10 10,10 2,0 4,-1 5,-2 2,1 3,2 5,2 6,0 10,-5 10,-10 0,-4 -2,-7 -6,-9z"/>
     <polygon class="fil5" points="220,117 215,120 214,113 213,120 208,117 213,123 212,133 216,133 215,123 "/>
    </g>
    <path class="fil6" d="M224 105c-1,-4 -5,-8 -10,-8l0 35 2 0 -1 -9c1,1 3,1 4,1 6,0 10,-5 10,-10 0,-4 -2,-7 -6,-9z"/>
   </g>
   <g>
    <g>
     <path class="fil4" d="M180 96c0,-10 5,-19 10,-19 6,0 10,8 10,19 0,10 -5,19 -10,19 -6,0 -10,-8 -10,-19z"/>
     <polygon class="fil5" points="190,98 189,135 192,135 "/>
    </g>
    <path class="fil6" d="M200 96c0,-10 -5,-19 -10,-19 0,0 0,0 0,0l0 57 2 0 0 -20c5,-1 9,-9 9,-19z"/>
   </g>
   <g>
    <g>
     <polygon class="fil4" points="375,61 354,117 374,117 375,117 395,117 "/>
     <polygon class="fil4" points="375,62 354,108 374,108 375,108 395,108 "/>
     <polygon class="fil5" points="372,136 378,136 377,115 386,107 376,110 375,100 373,110 364,107 373,115 "/>
    </g>
    <polygon class="fil6" points="378,136 377,117 395,117 392,108 395,108 377,67 375,63 375,136 "/>
   </g>
   <g>
    <polygon class="fil4" points="122,118 113,101 119,101 109,86 114,86 105,74 104,73 104,74 94,86 99,86 90,101 96,101 87,118 104,118 104,117 104,118 "/>
    <polygon class="fil5" points="101,136 108,136 107,118 112,112 106,115 104,107 103,115 97,112 102,118 "/>
    <polygon class="fil6" points="108,136 107,118 122,118 113,101 119,101 109,86 115,86 105,74 105,73 104,136 "/>
   </g>
   <g>
    <g>
     <polygon class="fil4" points="63,81 45,129 62,129 63,129 81,129 "/>
     <polygon class="fil4" points="63,81 46,120 62,120 63,120 80,120 "/>
     <polygon class="fil4" points="63,82 47,112 62,112 63,112 78,112 "/>
     <polygon class="fil4" points="63,81 50,102 62,102 63,102 76,102 "/>
     <polygon class="fil5" points="72,123 65,125 64,120 69,116 64,118 64,113 67,110 64,112 63,100 62,112 58,110 62,113 61,118 56,116 61,120 61,125 54,123 61,128 60,137 66,137 65,128 "/>
    </g>
    <polygon class="fil6" points="81,128 78,121 80,121 76,112 78,112 73,102 76,102 64,83 63,81 63,81 63,137 66,137 65,128 "/>
   </g>
   <g>
    <g>
     <polygon class="fil5" points="40,118 31,121 30,115 37,110 30,112 30,106 34,102 29,104 28,89 27,104 22,102 27,106 27,112 20,110 26,115 26,121 17,118 26,125 25,137 32,137 31,125 "/>
     <polygon class="fil7" points="28,64 5,125 28,125 29,125 52,125 "/>
     <polygon class="fil4" points="28,65 6,115 28,115 29,115 50,115 "/>
     <polygon class="fil7" points="28,66 9,105 28,105 29,105 48,105 "/>
     <polygon class="fil4" points="28,65 12,92 28,92 29,92 45,92 "/>
    </g>
    <polygon class="fil6" points="52,126 48,115 50,115 46,105 48,105 42,92 45,92 29,67 28,64 28,66 28,137 32,137 31,126 "/>
   </g>
   <g>
    <polygon class="fil4" points="369,126 358,105 365,105 354,87 360,87 348,73 348,72 347,73 336,87 342,87 330,105 337,105 326,126 348,126 348,124 348,126 "/>
    <polygon class="fil5" points="356,118 350,123 348,113 348,112 348,113 348,112 348,113 345,123 339,118 345,126 343,137 348,137 352,137 351,126 "/>
    <polygon class="fil6" points="369,126 358,105 365,105 354,87 360,87 348,73 348,73 348,137 352,137 351,126 "/>
   </g>
   <g>
    <g>
     <path class="fil4" d="M247 93c0,11 -5,20 -11,20 -6,0 -11,-9 -11,-20 0,-11 5,-20 11,-20 6,0 11,9 11,20z"/>
     <polygon class="fil5" points="236,97 234,137 238,137 "/>
    </g>
    <path class="fil6" d="M247 93c0,-11 -5,-20 -11,-20l0 63 2 0 -2 -23c6,-1 10,-9 10,-20z"/>
   </g>
   <g>
    <g>
     <path class="fil8" d="M9 129c0,1 -1,2 -1,3 0,0 -1,0 -1,0 0,1 0,2 1,3 0,0 0,0 0,0 0,0 0,0 0,0 0,0 0,0 0,1 0,0 1,0 1,0 0,-1 0,-1 -1,-2 0,-1 0,-3 1,-4 0,0 0,0 0,0z"/>
     <path class="fil8" d="M11 129c-1,2 -2,4 -2,6 0,1 1,1 1,0 0,-2 0,-4 1,-5 0,0 0,-1 0,0z"/>
     <path class="fil8" d="M13 130c0,0 -1,0 -1,0 0,1 0,1 0,2 0,0 0,0 0,0 0,1 0,1 0,2 0,0 0,0 0,0 0,0 0,1 0,1 0,0 1,0 1,0 0,-2 0,-4 0,-5z"/>
     <path class="fil8" d="M18 134c0,-1 0,-2 0,-4 0,-1 -1,-1 -1,0 0,0 0,0 0,0 0,0 0,0 0,0 0,-1 0,-1 0,-2 0,0 -1,-1 -1,0 0,1 0,2 0,4 0,0 0,0 0,0 0,1 0,1 0,2 0,0 0,0 0,0 0,1 1,1 1,0 0,0 0,0 0,0 0,0 0,0 0,0 0,0 0,0 1,0 0,0 1,0 1,0z"/>
     <path class="fil8" d="M21 130c0,0 -1,0 -1,0 0,1 0,2 0,4 0,0 1,0 1,0 0,-1 0,-2 0,-4z"/>
     <path class="fil8" d="M23 130c0,0 0,0 0,0 0,-1 -1,0 -1,0 0,1 0,2 0,3 0,0 0,0 0,0 0,0 0,0 0,1 0,0 1,0 1,0 0,-1 0,-3 0,-4 0,-1 -1,-1 -1,0z"/>
     <path class="fil8" d="M26 130c0,0 0,1 0,1 0,0 0,0 0,0 0,0 0,1 0,1 0,0 0,0 0,0 0,1 0,2 0,3 0,0 1,0 1,0 0,-2 0,-4 1,-6 0,-1 -1,-1 -1,0z"/>
     <path class="fil8" d="M20 131c0,0 0,0 0,-1 0,0 -1,0 0,0 0,0 0,0 0,1 0,0 0,0 0,0 0,1 0,3 0,4 0,0 1,0 1,0 0,-1 0,-1 0,-2 0,0 0,0 0,0 0,0 0,-1 0,-1 0,0 0,-1 0,-1 0,0 0,-1 0,-1z"/>
     <path class="fil8" d="M5 135c0,-1 0,-2 0,-4 0,-1 -1,-1 -1,0 0,0 0,0 0,0 0,0 0,0 0,0 0,-1 0,-1 0,-2 0,0 -1,-1 -1,0 0,1 0,2 0,4 0,0 0,0 0,0 0,1 0,1 0,2 0,0 0,0 0,0 0,1 1,1 1,0 0,0 0,0 0,0 0,0 0,0 0,0 0,0 0,0 1,0 0,0 1,0 1,0z"/>
     <path class="fil8" d="M9 132c0,0 -1,0 -1,0 0,1 0,2 0,4 0,0 1,0 1,0 0,-1 0,-2 0,-4z"/>
     <path class="fil8" d="M11 131c0,0 0,0 0,0 0,-1 -1,0 -1,0 0,1 0,2 0,3 0,0 0,0 0,0 0,0 0,0 0,1 0,0 1,0 1,0 0,-1 0,-3 0,-4 0,-1 -1,-1 -1,0z"/>
     <path class="fil8" d="M7 132c0,0 0,0 0,-1 0,0 -1,0 0,0 0,0 0,0 0,1 0,0 0,0 0,0 0,1 0,3 0,4 0,0 1,0 1,0 0,-1 0,-1 0,-2 0,0 0,0 0,0 0,0 0,-1 0,-1 0,0 0,-1 0,-1 0,0 0,-1 0,-1z"/>
     <path class="fil8" d="M7 134c0,-1 -1,-2 -1,-3 0,0 -1,0 0,0 0,1 1,2 1,3 0,0 0,0 0,0z"/>
     <path class="fil8" d="M11 131c0,1 0,2 0,3 0,1 1,0 1,0 0,-1 0,-2 0,-3 0,-1 -1,-1 -1,0z"/>
     <path class="fil8" d="M29 132c0,-1 0,-2 0,-3 0,-1 -1,-1 -1,0 0,0 0,1 0,1 0,0 0,0 0,0 0,1 0,3 0,4 0,1 1,0 1,-1 0,-1 0,-1 0,-2 0,0 0,0 0,0z"/>
     <path class="fil8" d="M31 131c0,0 -1,0 -1,0 0,1 0,2 0,3 0,0 1,0 1,0 0,-1 0,-2 0,-3z"/>
     <path class="fil8" d="M15 130c0,0 -1,0 -1,0 0,1 0,2 0,3 0,0 1,0 1,0 0,-1 0,-2 0,-3z"/>
     <path class="fil8" d="M34 136c0,-1 -1,-3 -1,-4 0,0 0,0 0,0 0,0 0,-1 0,-1 0,-1 -1,-1 -1,0 0,1 0,1 0,1 0,0 0,0 0,0 0,0 0,1 0,1 0,0 0,0 0,0 0,1 0,1 -1,2 0,0 0,0 0,0 0,-1 0,-1 0,-2 0,1 0,2 1,3 0,1 1,0 1,0z"/>
     <path class="fil8" d="M36 134c0,0 -1,0 -1,0 0,1 0,2 0,3 0,1 1,1 1,0 0,-1 0,-2 0,-3z"/>
     <path class="fil8" d="M36 131c0,1 0,3 0,4 0,1 1,1 1,0 0,-1 0,-3 0,-4 0,-1 -1,-1 -1,0z"/>
     <path class="fil8" d="M38 131c0,0 0,1 0,1 0,0 0,0 0,0 0,0 0,0 0,0 0,0 0,1 0,1 0,2 0,3 1,5 0,0 1,0 1,0 0,-2 0,-4 0,-6 0,-1 -1,-1 -1,-1z"/>
     <path class="fil8" d="M34 130c0,1 0,2 0,4 0,1 1,1 1,0 0,-1 0,-2 0,-4 0,-1 -1,-1 -1,0z"/>
     <path class="fil8" d="M40 131c-1,1 -1,3 0,4 0,0 1,0 1,0 0,-1 0,-2 0,-4 0,-1 -1,-1 -1,-1z"/>
     <path class="fil8" d="M42 133c0,1 0,2 0,3 0,1 1,1 1,0 0,-1 0,-2 0,-3 0,-1 -1,-1 -1,0z"/>
    </g>
    <g>
     <path class="fil8" d="M48 129c0,1 -1,2 -1,3 0,0 -1,0 -1,0 0,1 0,2 1,3 0,0 0,0 0,0 0,0 0,0 0,0 0,0 0,0 0,1 0,0 1,0 1,0 0,-1 0,-1 -1,-2 0,-1 0,-3 1,-4 0,0 0,0 0,0z"/>
     <path class="fil8" d="M51 129c-1,2 -2,4 -2,6 0,1 1,1 1,0 0,-2 0,-4 1,-5 0,0 0,-1 0,0z"/>
     <path class="fil8" d="M53 130c0,0 -1,0 -1,0 0,1 0,1 0,2 0,0 0,0 0,0 0,1 0,1 0,2 0,0 0,0 0,0 0,0 0,1 0,1 0,0 1,0 1,0 0,-2 0,-4 0,-5z"/>
     <path class="fil8" d="M57 134c0,-1 0,-2 0,-4 0,-1 -1,-1 -1,0 0,0 0,0 0,0 0,0 0,0 0,0 0,-1 0,-1 0,-2 0,0 -1,-1 -1,0 0,1 0,2 0,4 0,0 0,0 0,0 0,1 0,1 0,2 0,0 0,0 0,0 0,1 1,1 1,0 0,0 0,0 0,0 0,0 0,0 0,0 0,0 0,0 1,0 0,0 1,0 1,0z"/>
     <path class="fil8" d="M60 130c0,0 -1,0 -1,0 0,1 0,2 0,4 0,0 1,0 1,0 0,-1 0,-2 0,-4z"/>
     <path class="fil8" d="M63 130c0,0 0,0 0,0 0,-1 -1,0 -1,0 0,1 0,2 0,3 0,0 0,0 0,0 0,0 0,0 0,1 0,0 1,0 1,0 0,-1 0,-3 0,-4 0,-1 -1,-1 -1,0z"/>
     <path class="fil8" d="M65 130c0,0 0,1 0,1 0,0 0,0 0,0 0,0 0,1 0,1 0,0 0,0 0,0 0,1 0,2 0,3 0,0 1,0 1,0 0,-2 0,-4 1,-6 0,-1 -1,-1 -1,0z"/>
     <path class="fil8" d="M59 131c0,0 0,0 0,-1 0,0 -1,0 0,0 0,0 0,0 0,1 0,0 0,0 0,0 0,1 0,3 0,4 0,0 1,0 1,0 0,-1 0,-1 0,-2 0,0 0,0 0,0 0,0 0,-1 0,-1 0,0 0,-1 0,-1 0,0 0,-1 0,-1z"/>
     <path class="fil8" d="M47 134c0,-1 -1,-2 -1,-3 0,0 -1,0 0,0 0,1 1,2 1,3 0,0 0,0 0,0z"/>
     <path class="fil8" d="M44 134c-1,-1 -1,-3 -1,-4 0,-1 -1,-1 -1,0 -1,2 0,3 1,5 0,1 1,0 1,0z"/>
     <path class="fil8" d="M51 131c0,1 0,2 0,3 0,1 1,0 1,0 0,-1 0,-2 0,-3 0,-1 -1,-1 -1,0z"/>
     <path class="fil8" d="M69 132c0,-1 0,-2 0,-3 0,-1 -1,-1 -1,0 0,0 0,1 0,1 0,0 0,0 0,0 0,1 0,3 0,4 0,1 1,0 1,-1 0,-1 0,-1 0,-2 0,0 0,0 0,0z"/>
     <path class="fil8" d="M71 131c0,0 -1,0 -1,0 0,1 0,2 0,3 0,0 1,0 1,0 0,-1 0,-2 0,-3z"/>
     <path class="fil8" d="M73 136c0,-1 -1,-3 -1,-4 0,0 0,0 0,0 0,0 0,-1 0,-1 0,-1 -1,-1 -1,0 0,1 0,1 0,1 0,0 0,0 0,0 0,0 0,1 0,1 0,0 0,0 0,0 0,1 0,1 -1,2 0,0 0,0 0,0 0,-1 0,-1 0,-2 0,1 0,2 1,3 0,1 1,0 1,0z"/>
     <path class="fil8" d="M75 134c0,0 -1,0 -1,0 0,1 0,2 0,3 0,1 1,1 1,0 0,-1 0,-2 0,-3z"/>
     <path class="fil8" d="M76 131c0,1 0,3 0,4 0,1 1,1 1,0 0,-1 0,-3 0,-4 0,-1 -1,-1 -1,0z"/>
     <path class="fil8" d="M78 131c0,0 0,1 0,1 0,0 0,0 0,0 0,0 0,0 0,0 0,0 0,1 0,1 0,2 0,3 1,5 0,0 1,0 1,0 0,-2 0,-4 0,-6 0,-1 -1,-1 -1,-1z"/>
     <path class="fil8" d="M74 130c0,1 0,2 0,4 0,1 1,1 1,0 0,-1 0,-2 0,-4 0,-1 -1,-1 -1,0z"/>
     <path class="fil8" d="M79 131c-1,1 -1,3 0,4 0,0 1,0 1,0 0,-1 0,-2 0,-4 0,-1 -1,-1 -1,-1z"/>
     <path class="fil8" d="M82 133c0,1 0,2 0,3 0,1 1,1 1,0 0,-1 0,-2 0,-3 0,-1 -1,-1 -1,0z"/>
    </g>
    <g>
     <path class="fil8" d="M88 129c0,1 -1,2 -1,3 0,0 -1,0 -1,0 0,1 0,2 1,3 0,0 0,0 0,0 0,0 0,0 0,0 0,0 0,0 0,1 0,0 1,0 1,0 0,-1 0,-1 -1,-2 0,-1 0,-3 1,-4 0,0 0,0 0,0z"/>
     <path class="fil8" d="M90 129c-1,2 -2,4 -2,6 0,1 1,1 1,0 0,-2 0,-4 1,-5 0,0 0,-1 0,0z"/>
     <path class="fil8" d="M92 130c0,0 -1,0 -1,0 0,1 0,1 0,2 0,0 0,0 0,0 0,1 0,1 0,2 0,0 0,0 0,0 0,0 0,1 0,1 0,0 1,0 1,0 0,-2 0,-4 0,-5z"/>
     <path class="fil8" d="M97 134c0,-1 0,-2 0,-4 0,-1 -1,-1 -1,0 0,0 0,0 0,0 0,0 0,0 0,0 0,-1 0,-1 0,-2 0,0 -1,-1 -1,0 0,1 0,2 0,4 0,0 0,0 0,0 0,1 0,1 0,2 0,0 0,0 0,0 0,1 1,1 1,0 0,0 0,0 0,0 0,0 0,0 0,0 0,0 0,0 1,0 0,0 1,0 1,0z"/>
     <path class="fil8" d="M100 130c0,0 -1,0 -1,0 0,1 0,2 0,4 0,0 1,0 1,0 0,-1 0,-2 0,-4z"/>
     <path class="fil8" d="M102 130c0,0 0,0 0,0 0,-1 -1,0 -1,0 0,1 0,2 0,3 0,0 0,0 0,0 0,0 0,0 0,1 0,0 1,0 1,0 0,-1 0,-3 0,-4 0,-1 -1,-1 -1,0z"/>
     <path class="fil8" d="M105 130c0,0 0,1 0,1 0,0 0,0 0,0 0,0 0,1 0,1 0,0 0,0 0,0 0,1 0,2 0,3 0,0 1,0 1,0 0,-2 0,-4 1,-6 0,-1 -1,-1 -1,0z"/>
     <path class="fil8" d="M99 131c0,0 0,0 0,-1 0,0 -1,0 0,0 0,0 0,0 0,1 0,0 0,0 0,0 0,1 0,3 0,4 0,0 1,0 1,0 0,-1 0,-1 0,-2 0,0 0,0 0,0 0,0 0,-1 0,-1 0,0 0,-1 0,-1 0,0 0,-1 0,-1z"/>
     <path class="fil8" d="M86 134c0,-1 -1,-2 -1,-3 0,0 -1,0 0,0 0,1 1,2 1,3 0,0 0,0 0,0z"/>
     <path class="fil8" d="M83 134c-1,-1 -1,-3 -1,-4 0,-1 -1,-1 -1,0 -1,2 0,3 1,5 0,1 1,0 1,0z"/>
     <path class="fil8" d="M90 131c0,1 0,2 0,3 0,1 1,0 1,0 0,-1 0,-2 0,-3 0,-1 -1,-1 -1,0z"/>
     <path class="fil8" d="M108 132c0,-1 0,-2 0,-3 0,-1 -1,-1 -1,0 0,0 0,1 0,1 0,0 0,0 0,0 0,1 0,3 0,4 0,1 1,0 1,-1 0,-1 0,-1 0,-2 0,0 0,0 0,0z"/>
     <path class="fil8" d="M111 131c0,0 -1,0 -1,0 0,1 0,2 0,3 0,0 1,0 1,0 0,-1 0,-2 0,-3z"/>
     <path class="fil8" d="M113 136c0,-1 -1,-3 -1,-4 0,0 0,0 0,0 0,0 0,-1 0,-1 0,-1 -1,-1 -1,0 0,1 0,1 0,1 0,0 0,0 0,0 0,0 0,1 0,1 0,0 0,0 0,0 0,1 0,1 -1,2 0,0 0,0 0,0 0,-1 0,-1 0,-2 0,1 0,2 1,3 0,1 1,0 1,0z"/>
     <path class="fil8" d="M115 134c0,0 -1,0 -1,0 0,1 0,2 0,3 0,1 1,1 1,0 0,-1 0,-2 0,-3z"/>
     <path class="fil8" d="M115 131c0,1 0,3 0,4 0,1 1,1 1,0 0,-1 0,-3 0,-4 0,-1 -1,-1 -1,0z"/>
     <path class="fil8" d="M117 131c0,0 0,1 0,1 0,0 0,0 0,0 0,0 0,0 0,0 0,0 0,1 0,1 0,2 0,3 1,5 0,0 1,0 1,0 0,-2 0,-4 0,-6 0,-1 -1,-1 -1,-1z"/>
     <path class="fil8" d="M114 130c0,1 0,2 0,4 0,1 1,1 1,0 0,-1 0,-2 0,-4 0,-1 -1,-1 -1,0z"/>
     <path class="fil8" d="M119 131c-1,1 -1,3 0,4 0,0 1,0 1,0 0,-1 0,-2 0,-4 0,-1 -1,-1 -1,-1z"/>
     <path class="fil8" d="M121 133c0,1 0,2 0,3 0,1 1,1 1,0 0,-1 0,-2 0,-3 0,-1 -1,-1 -1,0z"/>
    </g>
    <g>
     <path class="fil8" d="M127 129c0,1 -1,2 -1,3 0,0 -1,0 -1,0 0,1 0,2 1,3 0,0 0,0 0,0 0,0 0,0 0,0 0,0 0,0 0,1 0,0 1,0 1,0 0,-1 0,-1 -1,-2 0,-1 0,-3 1,-4 0,0 0,0 0,0z"/>
     <path class="fil8" d="M130 129c-1,2 -2,4 -2,6 0,1 1,1 1,0 0,-2 0,-4 1,-5 0,0 0,-1 0,0z"/>
     <path class="fil8" d="M132 130c0,0 -1,0 -1,0 0,1 0,1 0,2 0,0 0,0 0,0 0,1 0,1 0,2 0,0 0,0 0,0 0,0 0,1 0,1 0,0 1,0 1,0 0,-2 0,-4 0,-5z"/>
     <path class="fil8" d="M136 134c0,-1 0,-2 0,-4 0,-1 -1,-1 -1,0 0,0 0,0 0,0 0,0 0,0 0,0 0,-1 0,-1 0,-2 0,0 -1,-1 -1,0 0,1 0,2 0,4 0,0 0,0 0,0 0,1 0,1 0,2 0,0 0,0 0,0 0,1 1,1 1,0 0,0 0,0 0,0 0,0 0,0 0,0 0,0 0,0 1,0 0,0 1,0 1,0z"/>
     <path class="fil8" d="M140 130c0,0 -1,0 -1,0 0,1 0,2 0,4 0,0 1,0 1,0 0,-1 0,-2 0,-4z"/>
     <path class="fil8" d="M142 130c0,0 0,0 0,0 0,-1 -1,0 -1,0 0,1 0,2 0,3 0,0 0,0 0,0 0,0 0,0 0,1 0,0 1,0 1,0 0,-1 0,-3 0,-4 0,-1 -1,-1 -1,0z"/>
     <path class="fil8" d="M144 130c0,0 0,1 0,1 0,0 0,0 0,0 0,0 0,1 0,1 0,0 0,0 0,0 0,1 0,2 0,3 0,0 1,0 1,0 0,-2 0,-4 1,-6 0,-1 -1,-1 -1,0z"/>
     <path class="fil8" d="M138 131c0,0 0,0 0,-1 0,0 -1,0 0,0 0,0 0,0 0,1 0,0 0,0 0,0 0,1 0,3 0,4 0,0 1,0 1,0 0,-1 0,-1 0,-2 0,0 0,0 0,0 0,0 0,-1 0,-1 0,0 0,-1 0,-1 0,0 0,-1 0,-1z"/>
     <path class="fil8" d="M126 134c0,-1 -1,-2 -1,-3 0,0 -1,0 0,0 0,1 1,2 1,3 0,0 0,0 0,0z"/>
     <path class="fil8" d="M123 134c-1,-1 -1,-3 -1,-4 0,-1 -1,-1 -1,0 -1,2 0,3 1,5 0,1 1,0 1,0z"/>
     <path class="fil8" d="M130 131c0,1 0,2 0,3 0,1 1,0 1,0 0,-1 0,-2 0,-3 0,-1 -1,-1 -1,0z"/>
     <path class="fil8" d="M148 132c0,-1 0,-2 0,-3 0,-1 -1,-1 -1,0 0,0 0,1 0,1 0,0 0,0 0,0 0,1 0,3 0,4 0,1 1,0 1,-1 0,-1 0,-1 0,-2 0,0 0,0 0,0z"/>
     <path class="fil8" d="M150 131c0,0 -1,0 -1,0 0,1 0,2 0,3 0,0 1,0 1,0 0,-1 0,-2 0,-3z"/>
     <path class="fil8" d="M152 136c0,-1 -1,-3 -1,-4 0,0 0,0 0,0 0,0 0,-1 0,-1 0,-1 -1,-1 -1,0 0,1 0,1 0,1 0,0 0,0 0,0 0,0 0,1 0,1 0,0 0,0 0,0 0,1 0,1 -1,2 0,0 0,0 0,0 0,-1 0,-1 0,-2 0,1 0,2 1,3 0,1 1,0 1,0z"/>
     <path class="fil8" d="M154 134c0,0 -1,0 -1,0 0,1 0,2 0,3 0,1 1,1 1,0 0,-1 0,-2 0,-3z"/>
     <path class="fil8" d="M155 131c0,1 0,3 0,4 0,1 1,1 1,0 0,-1 0,-3 0,-4 0,-1 -1,-1 -1,0z"/>
     <path class="fil8" d="M157 131c0,0 0,1 0,1 0,0 0,0 0,0 0,0 0,0 0,0 0,0 0,1 0,1 0,2 0,3 1,5 0,0 1,0 1,0 0,-2 0,-4 0,-6 0,-1 -1,-1 -1,-1z"/>
     <path class="fil8" d="M153 130c0,1 0,2 0,4 0,1 1,1 1,0 0,-1 0,-2 0,-4 0,-1 -1,-1 -1,0z"/>
     <path class="fil8" d="M158 131c-1,1 -1,3 0,4 0,0 1,0 1,0 0,-1 0,-2 0,-4 0,-1 -1,-1 -1,-1z"/>
     <path class="fil8" d="M161 133c0,1 0,2 0,3 0,1 1,1 1,0 0,-1 0,-2 0,-3 0,-1 -1,-1 -1,0z"/>
    </g>
    <g>
     <path class="fil8" d="M167 129c0,1 -1,2 -1,3 0,0 -1,0 -1,0 0,1 0,2 1,3 0,0 0,0 0,0 0,0 0,0 0,0 0,0 0,0 0,1 0,0 1,0 1,0 0,-1 0,-1 -1,-2 0,-1 0,-3 1,-4 0,0 0,0 0,0z"/>
     <path class="fil8" d="M169 129c-1,2 -2,4 -2,6 0,1 1,1 1,0 0,-2 0,-4 1,-5 0,0 0,-1 0,0z"/>
     <path class="fil8" d="M171 130c0,0 -1,0 -1,0 0,1 0,1 0,2 0,0 0,0 0,0 0,1 0,1 0,2 0,0 0,0 0,0 0,0 0,1 0,1 0,0 1,0 1,0 0,-2 0,-4 0,-5z"/>
     <path class="fil8" d="M176 134c0,-1 0,-2 0,-4 0,-1 -1,-1 -1,0 0,0 0,0 0,0 0,0 0,0 0,0 0,-1 0,-1 0,-2 0,0 -1,-1 -1,0 0,1 0,2 0,4 0,0 0,0 0,0 0,1 0,1 0,2 0,0 0,0 0,0 0,1 1,1 1,0 0,0 0,0 0,0 0,0 0,0 0,0 0,0 0,0 1,0 0,0 1,0 1,0z"/>
     <path class="fil8" d="M179 130c0,0 -1,0 -1,0 0,1 0,2 0,4 0,0 1,0 1,0 0,-1 0,-2 0,-4z"/>
     <path class="fil8" d="M181 130c0,0 0,0 0,0 0,-1 -1,0 -1,0 0,1 0,2 0,3 0,0 0,0 0,0 0,0 0,0 0,1 0,0 1,0 1,0 0,-1 0,-3 0,-4 0,-1 -1,-1 -1,0z"/>
     <path class="fil8" d="M184 130c0,0 0,1 0,1 0,0 0,0 0,0 0,0 0,1 0,1 0,0 0,0 0,0 0,1 0,2 0,3 0,0 1,0 1,0 0,-2 0,-4 1,-6 0,-1 -1,-1 -1,0z"/>
     <path class="fil8" d="M178 131c0,0 0,0 0,-1 0,0 -1,0 0,0 0,0 0,0 0,1 0,0 0,0 0,0 0,1 0,3 0,4 0,0 1,0 1,0 0,-1 0,-1 0,-2 0,0 0,0 0,0 0,0 0,-1 0,-1 0,0 0,-1 0,-1 0,0 0,-1 0,-1z"/>
     <path class="fil8" d="M165 134c0,-1 -1,-2 -1,-3 0,0 -1,0 0,0 0,1 1,2 1,3 0,0 0,0 0,0z"/>
     <path class="fil8" d="M162 134c-1,-1 -1,-3 -1,-4 0,-1 -1,-1 -1,0 -1,2 0,3 1,5 0,1 1,0 1,0z"/>
     <path class="fil8" d="M169 131c0,1 0,2 0,3 0,1 1,0 1,0 0,-1 0,-2 0,-3 0,-1 -1,-1 -1,0z"/>
     <path class="fil8" d="M187 132c0,-1 0,-2 0,-3 0,-1 -1,-1 -1,0 0,0 0,1 0,1 0,0 0,0 0,0 0,1 0,3 0,4 0,1 1,0 1,-1 0,-1 0,-1 0,-2 0,0 0,0 0,0z"/>
     <path class="fil8" d="M190 131c0,0 -1,0 -1,0 0,1 0,2 0,3 0,0 1,0 1,0 0,-1 0,-2 0,-3z"/>
     <path class="fil8" d="M192 136c0,-1 -1,-3 -1,-4 0,0 0,0 0,0 0,0 0,-1 0,-1 0,-1 -1,-1 -1,0 0,1 0,1 0,1 0,0 0,0 0,0 0,0 0,1 0,1 0,0 0,0 0,0 0,1 0,1 -1,2 0,0 0,0 0,0 0,-1 0,-1 0,-2 0,1 0,2 1,3 0,1 1,0 1,0z"/>
     <path class="fil8" d="M194 134c0,0 -1,0 -1,0 0,1 0,2 0,3 0,1 1,1 1,0 0,-1 0,-2 0,-3z"/>
     <path class="fil8" d="M194 131c0,1 0,3 0,4 0,1 1,1 1,0 0,-1 0,-3 0,-4 0,-1 -1,-1 -1,0z"/>
     <path class="fil8" d="M196 131c0,0 0,1 0,1 0,0 0,0 0,0 0,0 0,0 0,0 0,0 0,1 0,1 0,2 0,3 1,5 0,0 1,0 1,0 0,-2 0,-4 0,-6 0,-1 -1,-1 -1,-1z"/>
     <path class="fil8" d="M193 130c0,1 0,2 0,4 0,1 1,1 1,0 0,-1 0,-2 0,-4 0,-1 -1,-1 -1,0z"/>
     <path class="fil8" d="M198 131c-1,1 -1,3 0,4 0,0 1,0 1,0 0,-1 0,-2 0,-4 0,-1 -1,-1 -1,-1z"/>
     <path class="fil8" d="M200 133c0,1 0,2 0,3 0,1 1,1 1,0 0,-1 0,-2 0,-3 0,-1 -1,-1 -1,0z"/>
    </g>
    <g>
     <path class="fil8" d="M206 129c0,1 -1,2 -1,3 0,0 -1,0 -1,0 0,1 0,2 1,3 0,0 0,0 0,0 0,0 0,0 0,0 0,0 0,0 0,1 0,0 1,0 1,0 0,-1 0,-1 -1,-2 0,-1 0,-3 1,-4 0,0 0,0 0,0z"/>
     <path class="fil8" d="M209 129c-1,2 -2,4 -2,6 0,1 1,1 1,0 0,-2 0,-4 1,-5 0,0 0,-1 0,0z"/>
     <path class="fil8" d="M211 130c0,0 -1,0 -1,0 0,1 0,1 0,2 0,0 0,0 0,0 0,1 0,1 0,2 0,0 0,0 0,0 0,0 0,1 0,1 0,0 1,0 1,0 0,-2 0,-4 0,-5z"/>
     <path class="fil8" d="M215 134c0,-1 -1,-2 0,-4 0,-1 -1,-1 -1,0 0,0 0,0 0,0 0,0 0,0 0,0 0,-1 0,-1 0,-2 0,0 -1,-1 -1,0 0,1 0,2 0,4 0,0 0,0 0,0 0,1 0,1 0,2 0,0 0,0 0,0 0,1 1,1 1,0 0,0 0,0 0,0 0,0 0,0 0,0 0,0 0,0 1,0 0,0 1,0 1,0z"/>
     <path class="fil8" d="M219 130c0,0 -1,0 -1,0 0,1 0,2 0,4 0,0 1,0 1,0 0,-1 0,-2 0,-4z"/>
     <path class="fil8" d="M221 130c0,0 0,0 0,0 0,-1 -1,0 -1,0 0,1 0,2 0,3 0,0 0,0 0,0 0,0 0,0 0,1 0,0 1,0 1,0 0,-1 0,-3 0,-4 0,-1 -1,-1 -1,0z"/>
     <path class="fil8" d="M223 130c0,0 0,1 0,1 0,0 0,0 0,0 0,0 0,1 0,1 0,0 0,0 0,0 0,1 0,2 0,3 0,0 1,0 1,0 0,-2 0,-4 1,-6 0,-1 -1,-1 -1,0z"/>
     <path class="fil8" d="M217 131c0,0 0,0 0,-1 0,0 -1,0 0,0 0,0 0,0 0,1 0,0 0,0 0,0 0,1 0,3 0,4 0,0 1,0 1,0 0,-1 0,-1 0,-2 0,0 0,0 0,0 0,0 0,-1 0,-1 0,0 0,-1 0,-1 0,0 0,-1 0,-1z"/>
     <path class="fil8" d="M205 134c0,-1 -1,-2 -1,-3 0,0 -1,0 0,0 0,1 1,2 1,3 0,0 0,0 0,0z"/>
     <path class="fil8" d="M202 134c-1,-1 -1,-3 -1,-4 0,-1 -1,-1 -1,0 -1,2 0,3 1,5 0,1 1,0 1,0z"/>
     <path class="fil8" d="M209 131c0,1 0,2 0,3 0,1 1,0 1,0 0,-1 0,-2 0,-3 0,-1 -1,-1 -1,0z"/>
     <path class="fil8" d="M227 132c0,-1 0,-2 0,-3 0,-1 -1,-1 -1,0 0,0 0,1 0,1 0,0 0,0 0,0 0,1 0,3 0,4 0,1 1,0 1,-1 0,-1 0,-1 0,-2 0,0 0,0 0,0z"/>
     <path class="fil8" d="M229 131c0,0 -1,0 -1,0 0,1 0,2 0,3 0,0 1,0 1,0 0,-1 0,-2 0,-3z"/>
     <path class="fil8" d="M232 136c0,-1 -1,-3 -1,-4 0,0 0,0 0,0 0,0 0,-1 0,-1 0,-1 -1,-1 -1,0 0,1 0,1 0,1 0,0 0,0 0,0 0,0 0,1 0,1 0,0 0,0 0,0 0,1 0,1 -1,2 0,0 0,0 0,0 0,-1 0,-1 0,-2 0,1 0,2 1,3 0,1 1,0 1,0z"/>
     <path class="fil8" d="M233 134c0,0 -1,0 -1,0 0,1 0,2 0,3 0,1 1,1 1,0 0,-1 0,-2 0,-3z"/>
     <path class="fil8" d="M234 131c0,1 0,3 0,4 0,1 1,1 1,0 0,-1 0,-3 0,-4 0,-1 -1,-1 -1,0z"/>
     <path class="fil8" d="M236 131c0,0 0,1 0,1 0,0 0,0 0,0 0,0 0,0 0,0 0,0 0,1 0,1 0,2 0,3 1,5 0,0 1,0 1,0 0,-2 0,-4 0,-6 0,-1 -1,-1 -1,-1z"/>
     <path class="fil8" d="M232 130c0,1 0,2 0,4 0,1 1,1 1,0 0,-1 0,-2 0,-4 0,-1 -1,-1 -1,0z"/>
     <path class="fil8" d="M237 131c-1,1 -1,3 0,4 0,0 1,0 1,0 0,-1 0,-2 0,-4 0,-1 -1,-1 -1,-1z"/>
     <path class="fil8" d="M240 133c0,1 0,2 0,3 0,1 1,1 1,0 0,-1 0,-2 0,-3 0,-1 -1,-1 -1,0z"/>
    </g>
    <g>
     <path class="fil8" d="M246 129c0,1 -1,2 -1,3 0,0 -1,0 -1,0 0,1 0,2 1,3 0,0 0,0 0,0 0,0 0,0 0,0 0,0 0,0 0,1 0,0 1,0 1,0 0,-1 0,-1 -1,-2 0,-1 0,-3 1,-4 0,0 0,0 0,0z"/>
     <path class="fil8" d="M248 129c-1,2 -2,4 -2,6 0,1 1,1 1,0 0,-2 0,-4 1,-5 0,0 0,-1 0,0z"/>
     <path class="fil8" d="M250 130c0,0 -1,0 -1,0 0,1 0,1 0,2 0,0 0,0 0,0 0,1 0,1 0,2 0,0 0,0 0,0 0,0 0,1 0,1 0,0 1,0 1,0 0,-2 0,-4 0,-5z"/>
     <path class="fil8" d="M255 134c0,-1 0,-2 0,-4 0,-1 -1,-1 -1,0 0,0 0,0 0,0 0,0 0,0 0,0 0,-1 0,-1 0,-2 0,0 -1,-1 -1,0 0,1 0,2 0,4 0,0 0,0 0,0 0,1 0,1 0,2 0,0 0,0 0,0 0,1 1,1 1,0 0,0 0,0 0,0 0,0 0,0 0,0 0,0 0,0 1,0 0,0 1,0 1,0z"/>
     <path class="fil8" d="M258 130c0,0 -1,0 -1,0 0,1 0,2 0,4 0,0 1,0 1,0 0,-1 0,-2 0,-4z"/>
     <path class="fil8" d="M260 130c0,0 0,0 0,0 0,-1 -1,0 -1,0 0,1 0,2 0,3 0,0 0,0 0,0 0,0 0,0 0,1 0,0 1,0 1,0 0,-1 0,-3 0,-4 0,-1 -1,-1 -1,0z"/>
     <path class="fil8" d="M263 130c0,0 0,1 0,1 0,0 0,0 0,0 0,0 0,1 0,1 0,0 0,0 0,0 0,1 0,2 0,3 0,0 1,0 1,0 0,-2 0,-4 1,-6 0,-1 -1,-1 -1,0z"/>
     <path class="fil8" d="M257 131c0,0 0,0 0,-1 0,0 -1,0 0,0 0,0 0,0 0,1 0,0 0,0 0,0 0,1 0,3 0,4 0,0 1,0 1,0 0,-1 0,-1 0,-2 0,0 0,0 0,0 0,0 0,-1 0,-1 0,0 0,-1 0,-1 0,0 0,-1 0,-1z"/>
     <path class="fil8" d="M244 134c0,-1 -1,-2 -1,-3 0,0 -1,0 0,0 0,1 1,2 1,3 0,0 0,0 0,0z"/>
     <path class="fil8" d="M242 134c-1,-1 -1,-3 -1,-4 0,-1 -1,-1 -1,0 -1,2 0,3 1,5 0,1 1,0 1,0z"/>
     <path class="fil8" d="M248 131c0,1 0,2 0,3 0,1 1,0 1,0 0,-1 0,-2 0,-3 0,-1 -1,-1 -1,0z"/>
     <path class="fil8" d="M267 132c0,-1 0,-2 0,-3 0,-1 -1,-1 -1,0 0,0 0,1 0,1 0,0 0,0 0,0 0,1 0,3 0,4 0,1 1,0 1,-1 0,-1 0,-1 0,-2 0,0 0,0 0,0z"/>
     <path class="fil8" d="M269 131c0,0 -1,0 -1,0 0,1 0,2 0,3 0,0 1,0 1,0 0,-1 0,-2 0,-3z"/>
     <path class="fil8" d="M271 136c0,-1 -1,-3 -1,-4 0,0 0,0 0,0 0,0 0,-1 0,-1 0,-1 -1,-1 -1,0 0,1 0,1 0,1 0,0 0,0 0,0 0,0 0,1 0,1 0,0 0,0 0,0 0,1 0,1 -1,2 0,0 0,0 0,0 0,-1 0,-1 0,-2 0,1 0,2 1,3 0,1 1,0 1,0z"/>
     <path class="fil8" d="M273 134c0,0 -1,0 -1,0 0,1 0,2 0,3 0,1 1,1 1,0 0,-1 0,-2 0,-3z"/>
     <path class="fil8" d="M273 131c0,1 0,3 0,4 0,1 1,1 1,0 0,-1 0,-3 0,-4 0,-1 -1,-1 -1,0z"/>
     <path class="fil8" d="M275 131c0,0 0,1 0,1 0,0 0,0 0,0 0,0 0,0 0,0 0,0 0,1 0,1 0,2 0,3 1,5 0,0 1,0 1,0 0,-2 0,-4 0,-6 0,-1 -1,-1 -1,-1z"/>
     <path class="fil8" d="M272 130c0,1 0,2 0,4 0,1 1,1 1,0 0,-1 0,-2 0,-4 0,-1 -1,-1 -1,0z"/>
     <path class="fil8" d="M277 131c-1,1 -1,3 0,4 0,0 1,0 1,0 0,-1 0,-2 0,-4 0,-1 -1,-1 -1,-1z"/>
     <path class="fil8" d="M279 133c0,1 0,2 0,3 0,1 1,1 1,0 0,-1 0,-2 0,-3 0,-1 -1,-1 -1,0z"/>
    </g>
    <g>
     <path class="fil8" d="M286 129c0,1 -1,2 -1,3 0,0 -1,0 -1,0 0,1 0,2 1,3 0,0 0,0 0,0 0,0 0,0 0,0 0,0 0,0 0,1 0,0 1,0 1,0 0,-1 0,-1 -1,-2 0,-1 0,-3 1,-4 0,0 0,0 0,0z"/>
     <path class="fil8" d="M288 129c-1,2 -2,4 -2,6 0,1 1,1 1,0 0,-2 0,-4 1,-5 0,0 0,-1 0,0z"/>
     <path class="fil8" d="M290 130c0,0 -1,0 -1,0 0,1 0,1 0,2 0,0 0,0 0,0 0,1 0,1 0,2 0,0 0,0 0,0 0,0 0,1 0,1 0,0 1,0 1,0 0,-2 0,-4 0,-5z"/>
     <path class="fil8" d="M294 134c0,-1 0,-2 0,-4 0,-1 -1,-1 -1,0 0,0 0,0 0,0 0,0 0,0 0,0 0,-1 0,-1 0,-2 0,0 -1,-1 -1,0 0,1 0,2 0,4 0,0 0,0 0,0 0,1 0,1 0,2 0,0 0,0 0,0 0,1 1,1 1,0 0,0 0,0 0,0 0,0 0,0 0,0 0,0 0,0 1,0 0,0 1,0 1,0z"/>
     <path class="fil8" d="M298 130c0,0 -1,0 -1,0 0,1 0,2 0,4 0,0 1,0 1,0 0,-1 0,-2 0,-4z"/>
     <path class="fil8" d="M300 130c0,0 0,0 0,0 0,-1 -1,0 -1,0 0,1 0,2 0,3 0,0 0,0 0,0 0,0 0,0 0,1 0,0 1,0 1,0 0,-1 0,-3 0,-4 0,-1 -1,-1 -1,0z"/>
     <path class="fil8" d="M302 130c0,0 0,1 0,1 0,0 0,0 0,0 0,0 0,1 0,1 0,0 0,0 0,0 0,1 0,2 0,3 0,0 1,0 1,0 0,-2 0,-4 1,-6 0,-1 -1,-1 -1,0z"/>
     <path class="fil8" d="M296 131c0,0 0,0 0,-1 0,0 -1,0 0,0 0,0 0,0 0,1 0,0 0,0 0,0 0,1 0,3 0,4 0,0 1,0 1,0 0,-1 0,-1 0,-2 0,0 0,0 0,0 0,0 0,-1 0,-1 0,0 0,-1 0,-1 0,0 0,-1 0,-1z"/>
     <path class="fil8" d="M284 134c0,-1 -1,-2 -1,-3 0,0 -1,0 0,0 0,1 1,2 1,3 0,0 0,0 0,0z"/>
     <path class="fil8" d="M281 134c-1,-1 -1,-3 -1,-4 0,-1 -1,-1 -1,0 -1,2 0,3 1,5 0,1 1,0 1,0z"/>
     <path class="fil8" d="M288 131c0,1 0,2 0,3 0,1 1,0 1,0 0,-1 0,-2 0,-3 0,-1 -1,-1 -1,0z"/>
     <path class="fil8" d="M306 132c0,-1 0,-2 0,-3 0,-1 -1,-1 -1,0 0,0 0,1 0,1 0,0 0,0 0,0 0,1 0,3 0,4 0,1 1,0 1,-1 0,-1 0,-1 0,-2 0,0 0,0 0,0z"/>
     <path class="fil8" d="M308 131c0,0 -1,0 -1,0 0,1 0,2 0,3 0,0 1,0 1,0 0,-1 0,-2 0,-3z"/>
     <path class="fil8" d="M311 136c0,-1 -1,-3 -1,-4 0,0 0,0 0,0 0,0 0,-1 0,-1 0,-1 -1,-1 -1,0 0,1 0,1 0,1 0,0 0,0 0,0 0,0 0,1 0,1 0,0 0,0 0,0 0,1 0,1 -1,2 0,0 0,0 0,0 0,-1 0,-1 0,-2 0,1 0,2 1,3 0,1 1,0 1,0z"/>
     <path class="fil8" d="M312 134c0,0 -1,0 -1,0 0,1 0,2 0,3 0,1 1,1 1,0 0,-1 0,-2 0,-3z"/>
     <path class="fil8" d="M313 131c0,1 0,3 0,4 0,1 1,1 1,0 0,-1 0,-3 0,-4 0,-1 -1,-1 -1,0z"/>
     <path class="fil8" d="M315 131c0,0 0,1 0,1 0,0 0,0 0,0 0,0 0,0 0,0 0,0 0,1 0,1 0,2 0,3 1,5 0,0 1,0 1,0 0,-2 0,-4 0,-6 0,-1 -1,-1 -1,-1z"/>
     <path class="fil8" d="M311 130c0,1 0,2 0,4 0,1 1,1 1,0 0,-1 0,-2 0,-4 0,-1 -1,-1 -1,0z"/>
     <path class="fil8" d="M316 131c-1,1 -1,3 0,4 0,0 1,0 1,0 0,-1 0,-2 0,-4 0,-1 -1,-1 -1,-1z"/>
     <path class="fil8" d="M319 133c0,1 0,2 0,3 0,1 1,1 1,0 0,-1 0,-2 0,-3 0,-1 -1,-1 -1,0z"/>
    </g>
    <g>
     <path class="fil8" d="M325 129c0,1 -1,2 -1,3 0,0 -1,0 -1,0 0,1 0,2 1,3 0,0 0,0 0,0 0,0 0,0 0,0 0,0 0,0 0,1 0,0 1,0 1,0 0,-1 0,-1 -1,-2 0,-1 0,-3 1,-4 0,0 0,0 0,0z"/>
     <path class="fil8" d="M327 129c-1,2 -2,4 -2,6 0,1 1,1 1,0 0,-2 0,-4 1,-5 0,0 0,-1 0,0z"/>
     <path class="fil8" d="M329 130c0,0 -1,0 -1,0 0,1 0,1 0,2 0,0 0,0 0,0 0,1 0,1 0,2 0,0 0,0 0,0 0,0 0,1 0,1 0,0 1,0 1,0 0,-2 0,-4 0,-5z"/>
     <path class="fil8" d="M334 134c0,-1 0,-2 0,-4 0,-1 -1,-1 -1,0 0,0 0,0 0,0 0,0 0,0 0,0 0,-1 0,-1 0,-2 0,0 -1,-1 -1,0 0,1 0,2 0,4 0,0 0,0 0,0 0,1 0,1 0,2 0,0 0,0 0,0 0,1 1,1 1,0 0,0 0,0 0,0 0,0 0,0 0,0 0,0 0,0 1,0 0,0 1,0 1,0z"/>
     <path class="fil8" d="M337 130c0,0 -1,0 -1,0 0,1 0,2 0,4 0,0 1,0 1,0 0,-1 0,-2 0,-4z"/>
     <path class="fil8" d="M340 130c0,0 0,0 0,0 0,-1 -1,0 -1,0 0,1 0,2 0,3 0,0 0,0 0,0 0,0 0,0 0,1 0,0 1,0 1,0 0,-1 0,-3 0,-4 0,-1 -1,-1 -1,0z"/>
     <path class="fil8" d="M342 130c0,0 0,1 0,1 0,0 0,0 0,0 0,0 0,1 0,1 0,0 0,0 0,0 0,1 0,2 0,3 0,0 1,0 1,0 0,-2 0,-4 1,-6 0,-1 -1,-1 -1,0z"/>
     <path class="fil8" d="M336 131c0,0 0,0 0,-1 0,0 -1,0 0,0 0,0 0,0 0,1 0,0 0,0 0,0 0,1 0,3 0,4 0,0 1,0 1,0 0,-1 0,-1 0,-2 0,0 0,0 0,0 0,0 0,-1 0,-1 0,0 0,-1 0,-1 0,0 0,-1 0,-1z"/>
     <path class="fil8" d="M323 134c0,-1 -1,-2 -1,-3 0,0 -1,0 0,0 0,1 1,2 1,3 0,0 0,0 0,0z"/>
     <path class="fil8" d="M321 134c-1,-1 -1,-3 -1,-4 0,-1 -1,-1 -1,0 -1,2 0,3 1,5 0,1 1,0 1,0z"/>
     <path class="fil8" d="M328 131c0,1 0,2 0,3 0,1 1,0 1,0 0,-1 0,-2 0,-3 0,-1 -1,-1 -1,0z"/>
     <path class="fil8" d="M346 132c0,-1 0,-2 0,-3 0,-1 -1,-1 -1,0 0,0 0,1 0,1 0,0 0,0 0,0 0,1 0,3 0,4 0,1 1,0 1,-1 0,-1 0,-1 0,-2 0,0 0,0 0,0z"/>
     <path class="fil8" d="M348 131c0,0 -1,0 -1,0 0,1 0,2 0,3 0,0 1,0 1,0 0,-1 0,-2 0,-3z"/>
     <path class="fil8" d="M350 136c0,-1 -1,-3 -1,-4 0,0 0,0 0,0 0,0 0,-1 0,-1 0,-1 -1,-1 -1,0 0,1 0,1 0,1 0,0 0,0 0,0 0,0 0,1 0,1 0,0 0,0 0,0 0,1 0,1 -1,2 0,0 0,0 0,0 0,-1 0,-1 0,-2 0,1 0,2 1,3 0,1 1,0 1,0z"/>
     <path class="fil8" d="M352 134c0,0 -1,0 -1,0 0,1 0,2 0,3 0,1 1,1 1,0 0,-1 0,-2 0,-3z"/>
     <path class="fil8" d="M353 131c0,1 0,3 0,4 0,1 1,1 1,0 0,-1 0,-3 0,-4 0,-1 -1,-1 -1,0z"/>
     <path class="fil8" d="M354 131c0,0 0,1 0,1 0,0 0,0 0,0 0,0 0,0 0,0 0,0 0,1 0,1 0,2 0,3 1,5 0,0 1,0 1,0 0,-2 0,-4 0,-6 0,-1 -1,-1 -1,-1z"/>
     <path class="fil8" d="M351 130c0,1 0,2 0,4 0,1 1,1 1,0 0,-1 0,-2 0,-4 0,-1 -1,-1 -1,0z"/>
     <path class="fil8" d="M356 131c-1,1 -1,3 0,4 0,0 1,0 1,0 0,-1 0,-2 0,-4 0,-1 -1,-1 -1,-1z"/>
     <path class="fil8" d="M359 133c0,1 0,2 0,3 0,1 1,1 1,0 0,-1 0,-2 0,-3 0,-1 -1,-1 -1,0z"/>
    </g>
    <g>
     <path class="fil8" d="M365 129c0,1 -1,2 -1,3 0,0 -1,0 -1,0 0,1 0,2 1,3 0,0 0,0 0,0 0,0 0,0 0,0 0,0 0,0 0,1 0,0 1,0 1,0 0,-1 0,-1 -1,-2 0,-1 0,-3 1,-4 0,0 0,0 0,0z"/>
     <path class="fil8" d="M367 129c-1,2 -2,4 -2,6 0,1 1,1 1,0 0,-2 0,-4 1,-5 0,0 0,-1 0,0z"/>
     <path class="fil8" d="M369 130c0,0 -1,0 -1,0 0,1 0,1 0,2 0,0 0,0 0,0 0,1 0,1 0,2 0,0 0,0 0,0 0,0 0,1 0,1 0,0 1,0 1,0 0,-2 0,-4 0,-5z"/>
     <path class="fil8" d="M373 134c0,-1 0,-2 0,-4 0,-1 -1,-1 -1,0 0,0 0,0 0,0 0,0 0,0 0,0 0,-1 0,-1 0,-2 0,0 -1,-1 -1,0 0,1 0,2 0,4 0,0 0,0 0,0 0,1 0,1 0,2 0,0 0,0 0,0 0,1 1,1 1,0 0,0 0,0 0,0 0,0 0,0 0,0 0,0 0,0 1,0 0,0 1,0 1,0z"/>
     <path class="fil8" d="M377 130c0,0 -1,0 -1,0 0,1 0,2 0,4 0,0 1,0 1,0 0,-1 0,-2 0,-4z"/>
     <path class="fil8" d="M379 130c0,0 0,0 0,0 0,-1 -1,0 -1,0 0,1 0,2 0,3 0,0 0,0 0,0 0,0 0,0 0,1 0,0 1,0 1,0 0,-1 0,-3 0,-4 0,-1 -1,-1 -1,0z"/>
     <path class="fil8" d="M381 130c0,0 0,1 0,1 0,0 0,0 0,0 0,0 0,1 0,1 0,0 0,0 0,0 0,1 0,2 0,3 0,0 1,0 1,0 0,-2 0,-4 1,-6 0,-1 -1,-1 -1,0z"/>
     <path class="fil8" d="M375 131c0,0 0,0 0,-1 0,0 -1,0 0,0 0,0 0,0 0,1 0,0 0,0 0,0 0,1 0,3 0,4 0,0 1,0 1,0 0,-1 0,-1 0,-2 0,0 0,0 0,0 0,0 0,-1 0,-1 0,0 0,-1 0,-1 0,0 0,-1 0,-1z"/>
     <path class="fil8" d="M363 134c0,-1 -1,-2 -1,-3 0,0 -1,0 0,0 0,1 1,2 1,3 0,0 0,0 0,0z"/>
     <path class="fil8" d="M360 134c-1,-1 -1,-3 -1,-4 0,-1 -1,-1 -1,0 -1,2 0,3 1,5 0,1 1,0 1,0z"/>
     <path class="fil8" d="M367 131c0,1 0,2 0,3 0,1 1,0 1,0 0,-1 0,-2 0,-3 0,-1 -1,-1 -1,0z"/>
     <path class="fil8" d="M385 132c0,-1 0,-2 0,-3 0,-1 -1,-1 -1,0 0,0 0,1 0,1 0,0 0,0 0,0 0,1 0,3 0,4 0,1 1,0 1,-1 0,-1 0,-1 0,-2 0,0 0,0 0,0z"/>
     <path class="fil8" d="M387 131c0,0 -1,0 -1,0 0,1 0,2 0,3 0,0 1,0 1,0 0,-1 0,-2 0,-3z"/>
     <path class="fil8" d="M390 136c0,-1 -1,-3 -1,-4 0,0 0,0 0,0 0,0 0,-1 0,-1 0,-1 -1,-1 -1,0 0,1 0,1 0,1 0,0 0,0 0,0 0,0 0,1 0,1 0,0 0,0 0,0 0,1 0,1 -1,2 0,0 0,0 0,0 0,-1 0,-1 0,-2 0,1 0,2 1,3 0,1 1,0 1,0z"/>
     <path class="fil8" d="M391 134c0,0 -1,0 -1,0 0,1 0,2 0,3 0,1 1,1 1,0 0,-1 0,-2 0,-3z"/>
     <path class="fil8" d="M392 131c0,1 0,3 0,4 0,1 1,1 1,0 0,-1 0,-3 0,-4 0,-1 -1,-1 -1,0z"/>
     <path class="fil8" d="M394 131c0,0 0,1 0,1 0,0 0,0 0,0 0,0 0,0 0,0 0,0 0,1 0,1 0,2 0,3 1,5 0,0 1,0 1,0 0,-2 0,-4 0,-6 0,-1 -1,-1 -1,-1z"/>
     <path class="fil8" d="M390 130c0,1 0,2 0,4 0,1 1,1 1,0 0,-1 0,-2 0,-4 0,-1 -1,-1 -1,0z"/>
     <path class="fil8" d="M396 131c-1,1 -1,3 0,4 0,0 1,0 1,0 0,-1 0,-2 0,-4 0,-1 -1,-1 -1,-1z"/>
     <path class="fil8" d="M398 133c0,1 0,2 0,3 0,1 1,1 1,0 0,-1 0,-2 0,-3 0,-1 -1,-1 -1,0z"/>
    </g>
   </g>
   <g>
    <path class="fil9" d="M400 136c0,1 1,3 -2,3l-395 0c-3,0 -3,-3 -3,-4l0 2c0,-1 1,-3 3,-3l395 0c1,0 2,2 2,3l0 -1z"/>
    <path class="fil8" d="M400 136c0,1 -1,2 -2,2l-395 0c-1,0 -2,-1 -2,-2 0,-1 1,-2 2,-2l395 0c1,0 2,1 2,2z"/>
   </g>
  </g>
 </g>
</svg>
