<?xml version="1.0" encoding="UTF-8"?>
<!DOCTYPE svg PUBLIC "-//W3C//DTD SVG 1.1//EN" "http://www.w3.org/Graphics/SVG/1.1/DTD/svg11.dtd">
<!-- Creator: CorelDRAW X6 -->
<svg xmlns="http://www.w3.org/2000/svg" xml:space="preserve" width="200px" height="200px" version="1.1" style="shape-rendering:geometricPrecision; text-rendering:geometricPrecision; image-rendering:optimizeQuality; fill-rule:evenodd; clip-rule:evenodd"
viewBox="0 0 200 200"
 xmlns:xlink="http://www.w3.org/1999/xlink">
 <defs>
  <style type="text/css">
   <![CDATA[
    .fil0 {fill:#63A52F}
   ]]>
  </style>
 </defs>
 <g id="Layer_x0020_1">
  <metadata id="CorelCorpID_0Corel-Layer"/>
  <g id="_932589264">
   <path class="fil0" d="M177 131c2,0 3,1 4,3 2,7 3,13 5,20 1,3 2,7 3,10 0,1 1,2 1,3 0,1 0,2 -1,3 -1,1 -2,0 -3,-1 -2,-1 -4,-2 -6,-4 -3,-2 -5,-1 -7,1 -7,9 -16,15 -26,21 -16,9 -32,12 -50,11 -19,-1 -37,-8 -52,-20 -8,-6 -14,-13 -20,-21 -1,-1 -1,-2 -2,-3 -1,-1 -1,-2 0,-3 1,-1 2,0 3,0 3,1 5,3 8,4 2,1 4,2 6,-2 1,-3 3,-7 5,-10 2,-4 3,-3 5,0 3,4 7,8 11,12 8,6 16,10 26,13 9,2 18,2 26,1 14,-2 26,-8 36,-19 1,-2 1,-3 -1,-4 -2,-1 -4,-2 -5,-3 -2,-2 -1,-3 1,-4 1,0 1,-1 2,-1 8,-2 16,-5 25,-6 2,0 4,-2 6,-2z"/>
   <path class="fil0" d="M120 7c0,1 0,2 0,3 0,2 1,3 3,4 16,3 30,10 42,21 14,12 24,28 29,46 4,13 5,27 2,40 -2,7 -3,13 -6,19 0,1 -1,2 -2,2 -1,0 -1,-1 -2,-3 -1,-4 -3,-8 -4,-12 0,-2 -1,-2 -3,-1 -4,1 -7,2 -11,3 -3,1 -5,0 -4,-4 1,-3 1,-6 2,-9 4,-19 -1,-35 -12,-50 -9,-12 -20,-19 -34,-23 -2,-1 -3,0 -3,2 0,2 0,3 0,5 0,1 0,3 -2,4 -2,1 -3,0 -4,-2 -2,-2 -3,-4 -5,-6 -5,-5 -10,-10 -15,-15 -3,-3 -3,-4 0,-7 7,-7 15,-14 22,-22 1,-1 2,-3 4,-2 2,1 2,3 1,4 0,1 0,1 0,2 0,0 0,0 0,0z"/>
   <path class="fil0" d="M93 13c2,0 3,0 4,1 0,1 0,2 -1,3 -3,3 -6,6 -9,9 -2,2 -2,3 0,4 2,2 4,5 7,7 1,1 1,2 1,3 0,1 -1,2 -3,2 -12,2 -23,8 -32,16 -15,14 -22,31 -21,52 0,0 0,1 0,1 1,8 2,9 10,6 1,-1 3,-1 4,0 1,1 1,3 0,4 -4,9 -9,18 -13,27 -1,3 -3,4 -6,2 -10,-5 -19,-9 -29,-14 -1,-1 -2,-1 -2,-3 0,-1 1,-2 2,-2 1,0 2,-1 3,-1 5,-2 5,-3 4,-8 -3,-14 -2,-28 1,-41 3,-12 8,-23 16,-33 10,-12 22,-23 37,-29 7,-3 14,-5 21,-5 2,0 4,-2 5,-1z"/>
  </g>
 </g>
</svg>
